<?xml version="1.0" encoding="utf-8"?>
<!-- Generator: Adobe Illustrator 25.0.1, SVG Export Plug-In . SVG Version: 6.00 Build 0)  -->
<svg version="1.1" id="Layer_1" xmlns="http://www.w3.org/2000/svg" xmlns:xlink="http://www.w3.org/1999/xlink" x="0px" y="0px"
	 viewBox="0 0 1345.24 2345.09" enable-background="new 0 0 1345.24 2345.09" xml:space="preserve">
<g id="page4_1_">
	
		<linearGradient id="SVGID_1_" gradientUnits="userSpaceOnUse" x1="-1342.2444" y1="1057.4558" x2="3" y2="1057.4558" gradientTransform="matrix(-1 0 0 -1 3 2230)">
		<stop  offset="5.800939e-08" style="stop-color:#17B6E4"/>
		<stop  offset="1" style="stop-color:#2A317C"/>
	</linearGradient>
	<polygon fill="url(#SVGID_1_)" points="0,0 1345.24,0 1345.24,2345.09 0,2345.09 	"/>
	
		<image display="none" overflow="visible" width="512" height="512" xlink:href="../../send (2).png"  transform="matrix(0.9999 0 0 0.9927 415.9243 918.3503)">
	</image>
	<g>
		<path fill="#E9DAC3" d="M441.62,504.28c-1.08,3.06-1.88,5.21-2.38,6.45c-1,2.4-2.08,4.39-3.25,5.96h-9.75
			c-5.17,0-8.75-1.41-10.75-4.22c-1.58-2.15-2.38-5.46-2.38-9.93c0-1.32,0.08-3.37,0.25-6.14c0.17-2.77,0.25-4.78,0.25-6.02
			c0-7.2-5.33-10.8-16-10.8c-4.67,0-10.42,0.99-17.25,2.98c-8.58,2.32-12.87,5.09-12.87,8.31c0,1.9,1.62,2.85,4.87,2.85
			c2.83,0,7.06-0.81,12.69-2.42s9.94-2.42,12.94-2.42c4.25,0,7.62,0.99,10.12,2.98c-2.42,4.3-4.92,8.27-7.5,11.91
			c-2.5-1.32-4.42-1.99-5.75-1.99c-3.33,0-8.04,0.87-14.12,2.61c-6.08,1.74-10.62,2.61-13.62,2.61c-2.5,0-4.54-0.7-6.12-2.11
			c-1.58-1.41-2.37-3.31-2.37-5.71c0-10.26,5.29-18.41,15.87-24.44c8.83-5.04,18.83-7.57,30-7.57c4.92,0,8.96,0.83,12.12,2.48
			c4.08,2.15,6.12,5.46,6.12,9.93c0,1.49-0.27,3.72-0.81,6.7c-0.54,2.98-0.81,5.21-0.81,6.7c0,6.7,3.71,10.47,11.12,11.29H441.62z
			 M411.62,439.39c0,0.66-1.25,3.64-3.75,8.93c-1.5,3.06-7.92,4.59-19.25,4.59c-3.08,0-5.54-0.58-7.37-1.74
			c1.08-4.05,3.04-8.31,5.87-12.78c3.83,0.5,7.58,0.74,11.25,0.74c1.92,0,4.35-0.41,7.31-1.24c2.96-0.83,4.64-1.24,5.06-1.24
			l0.87,0.25V439.39z"/>
		<path fill="#E9DAC3" d="M489.36,504.28c-0.58,2.15-1.17,4.26-1.75,6.33c-0.92,2.9-1.92,4.92-3,6.08h-4.5
			c-2.92,0-6.31-1.39-10.19-4.18s-6.1-5.53-6.69-8.23c-4.17,8.27-12.33,12.41-24.5,12.41h-7.37c2.25-8.27,3.79-12.41,4.62-12.41
			c5.5,0,10.42-0.45,14.75-1.36c7.08-1.49,11-3.97,11.75-7.45c3.67-15.63,5.5-28.83,5.5-39.58c0-7.94-1.79-16.34-5.37-25.19
			c1.75-2.48,4.54-6.04,8.37-10.67c4.17,5.05,6.25,14.02,6.25,26.93c0,4.88-0.94,11.91-2.81,21.09s-2.81,16.05-2.81,20.6
			c0,3.89,1.29,7.47,3.87,10.73c2.58,3.27,5.62,4.9,9.12,4.9H489.36z"/>
		<path fill="#E9DAC3" d="M540.73,504.28c-1.17,4.72-2.33,8.85-3.5,12.41h-7.5c-4.58,0-8.37-1.61-11.37-4.84
			c-2.42-3.06-4.83-6.16-7.25-9.31c-2,2.4-3.98,4.8-5.94,7.2c-1.96,2.4-3.94,4.09-5.94,5.09c-2.58,1.24-5.83,1.86-9.75,1.86h-8.62
			c0.67-2.29,1.92-6.6,3.75-12.9c2.25,0,4.25,0,6,0c9.33,0,15.08-1.86,17.25-5.58c1.42-2.56,2.12-9.64,2.12-21.22
			c0-5.04-1.15-11.25-3.44-18.61c-2.29-7.36-3.44-11.62-3.44-12.78c3.58-4.72,6.5-8.27,8.75-10.67c1.58,1.66,3.46,6.66,5.62,15.01
			c2.08,7.86,3.12,13.32,3.12,16.38c0,1.9-0.29,4.8-0.88,8.69c-0.58,3.89-0.88,6.78-0.88,8.69c0,6.04,1.38,10.98,4.15,14.83
			c2.77,3.85,6.62,5.77,11.57,5.77H540.73z M551.35,405.14c0,9.18-7.5,17-22.5,23.45c-12.33,5.3-23.96,7.94-34.87,7.94
			c-0.75,0-1.85-0.08-3.31-0.25c-1.46-0.16-2.56-0.25-3.31-0.25l-0.5-1.36l3.75-12.16h1.62c11.5,0.08,21.79-1.53,30.87-4.84
			c6.58-2.48,15.83-7.32,27.75-14.52C551.19,403.73,551.35,404.39,551.35,405.14z"/>
		<path fill="#E9DAC3" d="M572.6,504.28c-1.17,5.79-2.75,9.93-4.75,12.41h-15c-0.42-0.41-0.83-1.24-1.25-2.48
			c-4.67,1.66-9,2.48-13,2.48h-5.37c0.42-2.4,1.71-6.45,3.87-12.16c7,0,11.96-0.41,14.87-1.24c7-1.9,11.5-6.16,13.5-12.78
			c1.5,0.58,2.25,0.99,2.25,1.24c0,0.42-0.96,2.23-2.88,5.46c-1.17,1.99-2.38,3.97-3.62,5.96c1.5,0.74,3.75,1.12,6.75,1.12H572.6z"
			/>
		<path fill="#E9DAC3" d="M609.97,504.28c-0.83,2.73-2,6.87-3.5,12.41H595.6c-2.25,0-3.58-0.74-4-2.23
			c-5.08,1.9-10.33,2.85-15.75,2.85l-0.5-1.61c-1.42,0.08-2.44,0.27-3.06,0.56c-0.62,0.29-1.73,0.43-3.31,0.43h-4.75
			c1-5.87,2.21-10.01,3.62-12.41c3.08,0,5.25-0.16,6.5-0.5c0.92-0.17,2.87-0.91,5.87-2.23c1.42-0.58,2.85-2.09,4.31-4.53
			c1.46-2.44,2.81-3.99,4.06-4.65v2.28c0,0.42-0.67,1.9-2,4.43c-1.42,2.87-2.21,4.52-2.38,4.94c0.08,0.17,0.46,0.25,1.12,0.25
			c4.58,0,8.21-1.18,10.87-3.55c2.58-2.79,5.12-5.58,7.62-8.36c0.42,0.25,0.62,0.7,0.62,1.36c0,0.58-0.62,1.9-1.87,3.97
			c-1.25,2.07-1.83,3.81-1.75,5.21c0.17,0.08,0.64,0.33,1.44,0.74c0.79,0.41,1.35,0.62,1.69,0.62H609.97z M605.35,450.68
			c0,0.91-1.15,3.06-3.44,6.45c-2.29,3.39-3.77,5.09-4.44,5.09c-0.17,0-1.11-1.43-2.81-4.28c-1.71-2.85-3.9-4.28-6.56-4.28
			c-2.83,0-5.42,1.28-7.75,3.85c-1.58,1.66-3.46,4.43-5.62,8.31c-2.17,3.89-3.79,6.41-4.87,7.57c-1-0.33-1.5-0.83-1.5-1.49
			c0-4.55,3.21-10.8,9.62-18.74c6.42-7.94,11.87-11.91,16.37-11.91c2.42,0,4.85,0.97,7.31,2.92
			C604.12,446.11,605.35,448.28,605.35,450.68z"/>
		<path fill="#E9DAC3" d="M648.22,495.47c0,8.93-4.75,15.01-14.25,18.24c-5.67,1.99-14.04,2.98-25.12,2.98h-5.25
			c0.17-2.15,1.17-6.29,3-12.41h6.75c3.42,0,6.33-0.41,8.75-1.24c1.5-2.48,3-4.96,4.5-7.45c1.5-2.89,2.25-5.67,2.25-8.31
			c0-4.8-1.56-11.95-4.69-21.47c-3.12-9.51-4.69-16.79-4.69-21.84c0-9.76,4.29-17.58,12.87-23.45l0.5,0.99
			c-2.17,0.83-3.25,4.8-3.25,11.91c0,5.21,1.5,12.68,4.5,22.4c3,9.72,4.5,17.1,4.5,22.15c0,3.23-0.96,6.7-2.87,10.42
			c2.58,0.5,5.17,0.99,7.75,1.49C646.63,490.8,648.22,492.66,648.22,495.47z"/>
		<path fill="#E9DAC3" d="M677.84,490.88c0,11.58-4.33,20.43-13,26.55l-1.38-1.37c0.92-1.9,1.94-5.23,3.06-9.99
			c1.12-4.76,1.6-7.96,1.44-9.62c-1.5-8.69-2.96-17.37-4.37-26.06c-1.83-10.75-2.75-19.44-2.75-26.06c0-8.52,4.75-15.96,14.25-22.34
			c0.08,0.17,0.12,0.46,0.12,0.87c0,1.24-0.42,3.54-1.25,6.89c-0.83,3.35-1.25,5.98-1.25,7.88c0,6.04,0.85,14.95,2.56,26.74
			C676.98,476.18,677.84,485.01,677.84,490.88z"/>
		<path fill="#E9DAC3" d="M809.58,504.28l-4.75,12.41c-2.33,0-4.62,0-6.88,0s-4.87,0-7.87,0c-1.58,0-2.62-0.16-3.12-0.48
			c-0.17-0.71-0.5-1.46-1-2.25c-8.5,4.05-20.54,6.08-36.12,6.08c-7.92,0-15.12-1.12-21.62-3.35c-9.08-3.14-13.62-7.86-13.62-14.15
			c0-7.03,3.29-13.32,9.87-18.86c6.33-5.29,13.12-7.94,20.37-7.94c2.58,0,6,0.29,10.25,0.87c3.42,0.5,6.83,0.99,10.25,1.49
			c1,0.17,2.29-0.04,3.88-0.62c1.58-0.58,2.75-0.87,3.5-0.87h1.5c-4.67,8.77-10.33,13.15-17,13.15c-2.25,0-5.21-0.25-8.87-0.74
			c-2.92-0.41-5.88-0.83-8.88-1.24c-2.08-0.25-5.21,0.21-9.37,1.37c-4.67,1.24-7,2.73-7,4.47c0,4.88,4.25,8.65,12.75,11.29
			c6.33,1.99,12.71,2.98,19.12,2.98c11.08,0,19.91-0.91,26.5-2.73c10.08-2.81,16.79-7.94,20.12-15.39l0.62,1.49
			c-0.83,2.23-2.88,6.12-6.12,11.66l1.25,1.36H809.58z M785.08,458c0,0.66-1.25,3.64-3.75,8.93c-1.5,3.06-7.92,4.59-19.25,4.59
			c-3.08,0-5.54-0.58-7.37-1.74c1.08-4.05,3.04-8.31,5.88-12.78c3.83,0.5,7.58,0.74,11.25,0.74c1.92,0,4.35-0.41,7.31-1.24
			c2.96-0.83,4.64-1.24,5.06-1.24l0.88,0.25V458z"/>
		<path fill="#E9DAC3" d="M858.2,504.28c-0.58,2.15-1.17,4.26-1.75,6.33c-0.92,2.9-1.92,4.92-3,6.08h-4.5
			c-2.92,0-6.31-1.39-10.19-4.18s-6.1-5.53-6.69-8.23c-4.17,8.27-12.33,12.41-24.5,12.41h-7.38c2.25-8.27,3.79-12.41,4.62-12.41
			c5.5,0,10.42-0.45,14.75-1.36c7.08-1.49,11-3.97,11.75-7.45c3.67-15.63,5.5-28.83,5.5-39.58c0-7.94-1.79-16.34-5.37-25.19
			c1.75-2.48,4.54-6.04,8.37-10.67c4.17,5.05,6.25,14.02,6.25,26.93c0,4.88-0.94,11.91-2.81,21.09c-1.88,9.18-2.81,16.05-2.81,20.6
			c0,3.89,1.29,7.47,3.87,10.73c2.58,3.27,5.62,4.9,9.12,4.9H858.2z"/>
		<path fill="#E9DAC3" d="M916.82,491.01c-1.58,3.39-3.17,6.78-4.75,10.17c-1.08,1.24-4.71,1.86-10.87,1.86
			c-3.58,0-9.04,1.28-16.37,3.85c-7.33,2.56-12.21,5.01-14.62,7.32c-0.33,0.33-1.08,2.44-2.25,6.33c-1.17,3.89-2.38,6.37-3.62,7.45
			l-1-1.37c1.33-4.47,2.29-8.19,2.88-11.17c-0.83,0.08-2.38,0.33-4.62,0.74c-1.58,0.33-3.08,0.5-4.5,0.5h-8.88
			c0.25-2.15,2.04-6.29,5.38-12.41c1.42,0,2.62,0,3.62,0c1-0.08,2.17-0.12,3.5-0.12c4.25,0,7.17-0.41,8.75-1.24
			c0.33-0.17,1.75-2.98,4.25-8.44c2.92-6.29,5.58-11.08,8-14.39c3.75-5.13,7.5-7.69,11.25-7.69c3.92,0,6.79,1.66,8.62,4.96
			c1.25,2.98,2.5,6,3.75,9.06c1.75,3.31,4.46,4.96,8.12,4.96C914.44,491.38,915.57,491.25,916.82,491.01z M894.57,493.61
			c-0.83-6.12-3.62-9.18-8.37-9.18c-3.33,0-6,2.15-8,6.45c-1.25,3.47-2.46,6.95-3.62,10.42
			C878.99,499.73,885.65,497.17,894.57,493.61z"/>
		<path fill="#E9DAC3" d="M988.68,492.87c0,4.39-2.21,9.76-6.62,16.13c-5.33,7.53-12.04,12.57-20.12,15.14
			c-7.17,1.49-14.33,2.98-21.5,4.47c-8.67,2.15-15.92,6.53-21.75,13.15l-1-1.74c0-9.43,5.29-16.38,15.87-20.85
			c3.17-1.32,13-3.76,29.5-7.32c10.67-2.23,16-5.46,16-9.68c0-3.14-0.67-5.38-2-6.7c-1.42,1.08-2.83,2.11-4.25,3.1
			c-1.75,1.16-3.33,1.74-4.75,1.74c-2,0-3.73-0.79-5.19-2.36c-1.46-1.57-2.19-3.35-2.19-5.34c0-3.14,1.85-7.01,5.56-11.6
			c3.71-4.59,7.14-6.89,10.31-6.89c2.75,0,5.54,2.48,8.37,7.45C987.43,486.04,988.68,489.81,988.68,492.87z"/>
	</g>
	<g>
		<path id="Floor_9_" fill="#F5F4F4" d="M387.41,1673.28c-157.52-90.94-157.52-238.39,0-329.33s412.9-90.94,570.42,0
			s157.52,238.39,0,329.33S544.93,1764.23,387.41,1673.28z"/>
		<ellipse id="Shadow_10_" fill="#E0DFDF" cx="513.47" cy="1606.21" rx="123.75" ry="71.45"/>
		
			<ellipse id="Shadow_1_" transform="matrix(0.8802 -0.4747 0.4747 0.8802 -619.0678 538.9048)" fill="#E0DFDF" cx="757.79" cy="1495.54" rx="176.54" ry="87.85"/>
		<g id="Plants_1_">
			<g>
				<path fill="#5EBDB0" d="M884.9,1471.39c17.16-20.46,44.04-33.79,74.27-41.65c29.84-7.76,35.19-26.13,15.41-32.09
					c-22.43-6.75-50.41,5.66-68.45,22.92c-31.44,30.08-35.38,53.11-35.38,53.11L884.9,1471.39z"/>
				<path opacity="0.15" fill="#010202" d="M884.9,1471.39c17.16-20.46,44.04-33.79,74.27-41.65c29.84-7.76,35.19-26.13,15.41-32.09
					c-22.43-6.75-50.41,5.66-68.45,22.92c-31.44,30.08-35.38,53.11-35.38,53.11L884.9,1471.39z"/>
				<g>
					<path fill="#FFFFFF" d="M876.06,1470.19c-0.13,0-0.26-0.03-0.38-0.09c-0.43-0.21-0.61-0.73-0.4-1.16
						c25.47-52.26,81.83-65.12,95.54-64.15c0.48,0.04,0.84,0.45,0.8,0.93c-0.04,0.48-0.48,0.84-0.93,0.8
						c-13.38-1.03-68.76,11.72-93.84,63.17C876.7,1470.01,876.38,1470.19,876.06,1470.19z"/>
				</g>
			</g>
			<g>
				<path fill="#5EBDB0" d="M870.75,1476.83c0,3.69,4,5.93,7.2,4.08c15.96-9.29,39.24-14.42,76.91-3.71
					c20.03,5.7,29.89,1.89,34.11-6.27c4.69-9.06-5.25-17.81-16.56-21.95c-38.55-14.09-73.35-4.47-101.65,23.64L870.75,1476.83z"/>
				<g>
					<path fill="#FFFFFF" d="M872.94,1477.57c-0.24,0-0.48-0.1-0.65-0.29c-0.32-0.36-0.29-0.91,0.07-1.23
						c33.28-29.75,84.85-23.96,104.37-12.35c0.41,0.24,0.55,0.78,0.3,1.19s-0.78,0.55-1.19,0.3
						c-19.12-11.37-69.67-17.03-102.32,12.16C873.35,1477.5,873.15,1477.57,872.94,1477.57z"/>
				</g>
			</g>
		</g>
		<g id="Plants_2_">
			<g>
				<path fill="#5EBDB0" d="M498.27,1546.2c-14.63-22.34-39.75-38.75-68.84-50.12c-28.72-11.23-31.87-30.1-11.52-33.68
					c23.07-4.06,49.39,11.57,65.27,30.84c27.68,33.58,28.87,56.92,28.87,56.92L498.27,1546.2z"/>
				<path opacity="0.15" fill="#010202" d="M498.27,1546.2c-14.63-22.34-39.75-38.75-68.84-50.12
					c-28.72-11.23-31.87-30.1-11.52-33.68c23.07-4.06,49.39,11.57,65.27,30.84c27.68,33.58,28.87,56.92,28.87,56.92L498.27,1546.2z"
					/>
				<g>
					<path fill="#FFFFFF" d="M507.18,1546.05c0.13,0.02,0.26,0,0.39-0.04c0.46-0.16,0.69-0.65,0.54-1.11
						c-19.13-54.9-73.58-74.32-87.3-74.97c-0.48-0.02-0.89,0.35-0.91,0.83c-0.02,0.48,0.38,0.89,0.83,0.91
						c13.41,0.56,66.9,19.75,85.73,73.8C506.58,1545.8,506.86,1546.02,507.18,1546.05z"/>
				</g>
			</g>
			<g>
				<path fill="#5EBDB0" d="M512.18,1549.08c-0.64,5.39-6.74,8.18-11.24,5.16c-14.77-9.89-36.77-16.31-72.81-10.54
					c-20.56,3.3-29.9-1.65-33.13-10.25c-3.59-9.55,7.31-17.07,19.03-19.84C453.97,1504.18,487.38,1517.84,512.18,1549.08
					L512.18,1549.08z"/>
				<g>
					<path fill="#FFFFFF" d="M509.42,1553.75c0.24,0.03,0.49-0.04,0.68-0.21c0.36-0.32,0.39-0.87,0.08-1.23
						c-29.54-33.47-81.44-33.8-102.19-24.58c-0.44,0.19-0.64,0.71-0.44,1.15c0.2,0.44,0.71,0.64,1.15,0.44
						c20.33-9.03,71.19-8.69,100.17,24.14C509.01,1553.63,509.21,1553.72,509.42,1553.75z"/>
				</g>
			</g>
		</g>
		<g id="Check_Mark_1_">
			<g id="Circle">
				<path id="XMLID_392_" fill="#37474F" d="M900.53,1148.15l0.01-0.01l-0.28-0.14c-0.01-0.01-0.02-0.01-0.03-0.02l-66.41-38.23
					c-0.02-0.01-0.04-0.02-0.06-0.03l-0.39-0.2l-0.01,0.02c-31.02-15.65-72.42-10.96-116.94,17.83
					c-89.45,57.84-157.6,190.97-152.24,297.35c2.68,53.03,23.12,89.38,54.02,105.37l-0.01,0.01l0.27,0.14
					c0.01,0.01,0.02,0.01,0.03,0.02l66.42,38.24c0.01,0,0.02,0.01,0.03,0.01l0.33,0.17l0.01-0.01
					c31.03,15.7,72.46,11.02,117.02-17.8c89.44-57.84,157.6-190.97,152.23-297.35C951.88,1200.5,931.43,1164.14,900.53,1148.15z"/>
				<path id="XMLID_384_" fill="#263339" d="M682.68,1567.29l-64.14-37.03c-0.05,0-0.05,0-0.05,0l-0.3-0.18
					c-30.89-16.02-51.32-52.39-53.99-105.34c-2.39-47.44,9.86-100.18,32.05-149.15l0.45-1.07l65.98,39.3
					c-22.23,48.98-34.44,101.71-32.05,149.16C633.24,1514.85,652.88,1550.77,682.68,1567.29z"/>
				<path id="XMLID_359_" fill="#465B64" d="M802.32,1550.87c89.44-57.84,157.6-190.97,152.23-297.35
					c-5.37-106.38-82.23-145.73-171.67-87.89c-89.45,57.84-157.6,190.97-152.23,297.35
					C636.01,1569.36,712.87,1608.71,802.32,1550.87z"/>
			</g>
			<path id="Shadow_7_" fill="#37474F" d="M878.07,1139.9l-112.1,230.9l-24.13-26.15c-7.44-8.09-18.05-12.72-29.11-12.72
				c-10,0-19.57,3.73-26.94,10.51c-16.04,14.82-17.04,39.96-2.23,56.03l63.56,68.86c7.04,7.62,16.62,12.13,26.99,12.69
				c0.73,0.04,1.46,0.06,2.2,0.06c1.9,0,3.82-0.14,5.75-0.41c13-1.93,24.18-10.13,29.88-21.91l128.57-264.82
				C927.38,1163.57,905.41,1145.31,878.07,1139.9z"/>
			<g>
				<path fill="#5EBDB0" d="M969.11,1063.84c-0.7-0.4-1.42-0.78-2.16-1.14c-17.12-8.27-37.77-1.14-46.03,15.93l-142.65,293.82
					l-8.1-8.78c-2.41-2.62-5.15-4.77-8.09-6.46c-4.26-2.44-22.34-12.91-25.26-14.6c-12.68-7.32-29.22-5.94-40.61,4.53
					c-13.93,12.87-14.8,34.69-1.93,48.65l63.56,68.86c2.42,2.62,5.19,4.81,8.21,6.53c4.15,2.36,22.17,12.81,25.12,14.52
					c4.65,2.7,9.9,4.28,15.41,4.58c2.27,0.12,4.55,0.03,6.89-0.3c11.29-1.68,21-8.8,25.94-19.02l168.76-347.6
					c7.92-16.36,1.74-35.95-13.74-44.87C993.72,1078.05,973.61,1066.43,969.11,1063.84z"/>
				<path opacity="0.15" fill="#010202" d="M969.11,1063.84c-0.7-0.4-1.42-0.78-2.16-1.14c-17.12-8.27-37.77-1.14-46.03,15.93
					l-142.65,293.82l-8.1-8.78c-2.41-2.62-5.15-4.77-8.09-6.46c-4.26-2.44-22.34-12.91-25.26-14.6
					c-12.68-7.32-29.22-5.94-40.61,4.53c-13.93,12.87-14.8,34.69-1.93,48.65l63.56,68.86c2.42,2.62,5.19,4.81,8.21,6.53
					c4.15,2.36,22.17,12.81,25.12,14.52c4.65,2.7,9.9,4.28,15.41,4.58c2.27,0.12,4.55,0.03,6.89-0.3c11.29-1.68,21-8.8,25.94-19.02
					l168.76-347.6c7.92-16.36,1.74-35.95-13.74-44.87C993.72,1078.05,973.61,1066.43,969.11,1063.84z"/>
				<path opacity="0.15" fill="#010202" d="M791.16,1485.69c-2.94-1.7-20.96-12.15-25.11-14.52c-3.02-1.72-5.79-3.91-8.21-6.52
					l-63.56-68.85c-2.89-3.15-5.06-6.72-6.57-10.46l25.28,14.58c1.49,3.76,3.7,7.33,6.6,10.48l63.56,68.85
					C785.51,1481.81,788.21,1483.97,791.16,1485.69z"/>
				<path opacity="0.15" fill="#010202" d="M954.2,1082.63c-3.24,2.89-5.97,6.46-7.98,10.59L799.5,1395.45l-21.22-23l142.65-293.82
					c2-4.15,4.75-7.71,8-10.59L954.2,1082.63z"/>
				<path id="Check_4_" fill="#5EBDB0" d="M992.25,1077.31c-17.12-8.27-37.77-1.14-46.03,15.93L799.5,1395.45l-29.33-31.78
					c-12.81-13.92-34.64-14.8-48.65-1.92c-13.93,12.87-14.8,34.69-1.93,48.65l63.56,68.86c6.11,6.61,14.43,10.53,23.43,11.01
					c2.27,0.12,4.55,0.03,6.89-0.3c11.29-1.68,21-8.8,25.94-19.02l168.76-347.6C1016.46,1106.23,1009.32,1085.58,992.25,1077.31z"/>
			</g>
		</g>
		<g id="Character_15_">
			<g>
				<path fill="#9F6867" d="M511,1111.25c-13.29,0-22.39,3.46-31.83,16.9c-8.66,12.33-32.47,53.44-32.47,53.44
					s-17.37-35.74-19.17-42.87c-1.8-7.13-1.64-10.29,0.07-13.39c2.11-3.81,4-7.15,4.4-12.26c0.67-8.56,2.77-15.89,0.85-16.14
					c-5.32-0.3-5.52,6.52-8.31,10.55c-1,1.44-4.25,1.65-5.35-0.59c-1.17-2.39-0.54-6.3-1.11-9.12c0.25-2.44,0.48-3.23,0.75-4.66
					c1.5,0.35,3.68,0.39,6.1,0.17c2.3,3.61,3.87,5.13,7.08,3.66c0.42-0.68-1.38-5.3-3.46-8.64c-0.33-0.53-0.83-0.93-1.43-1.09
					c-3.22-0.89-6.87-1.11-11.81-0.32c-0.58,0.09-1.18,0.35-1.51,0.84c-1.84,2.74-2.95,5.5-3.4,6.91c-0.24,0.74-0.92,0.72-1.1,0.08
					c-1.7-8.41-1.72-20.36-1.72-25.96c0-4.4-6.44-5.09-6.66,1.21c-0.23,6.46-0.4,18.41,0.43,25.39c0.1,0.76-0.76,1.12-1.07,0.29
					c-1.12-2.99-3.86-11.99-5-27.53c-0.31-4.17-7.07-4.86-7.02,1.01c0.14,16.1,3.87,30.94,3.87,30.94c0.2,0.74-0.47,1.38-0.98,0.55
					c-2.25-3.68-5.78-12.81-7.57-19.09c-1.43-5.04-8.17-3.76-6.99,2.52c2.11,11.27,5.46,25.54,10.44,35.72
					c5.33,10.89,9.94,16.34,12.58,24.9c2.64,8.56,13.61,57.01,25.33,75.89c9.18,14.8,19.69,13.44,30.99,5.63
					c11.3-7.81,51.7-64.1,51.7-64.1L511,1111.25z"/>
				<path fill="#884D4D" d="M446.7,1181.59c0,0,5.67,9.61,6.53,17.28c0,0,2.74-10.99-3.99-21.64L446.7,1181.59z"/>
				<path fill="#465B64" d="M513.83,1111.29c-6.76-0.69-15.16-0.93-24.55,4.97c-9.39,5.9-12.64,14.14-17.19,21.33
					c-4.54,7.19-20.27,32.69-20.27,32.69s5.76,24.2,28.7,29.19l34.34-46.59L513.83,1111.29z"/>
			</g>
			<g>
				<g id="XMLID_471_">
					<path id="XMLID_1137_" fill="#263339" d="M544.62,1536.74c1.67-0.21,4.05,5.72,4.08,7.66c0.03,1.94-1.91,6.1-4.48,10
						c-2.57,3.9-6.13,8.73-8.44,15.03c-1.97,5.37-3.79,8.89-9.27,15.91c-6.11,7.83-20.42,20.92-42.17,15.22
						c-5.31-1.39-7.96-3.07-9.89-5c-1.62-1.63-2.39-4.27-1.52-6.65L544.62,1536.74z"/>
					<path id="XMLID_1136_" fill="#37474F" d="M501.91,1529.96c-0.02,0.06-0.03,0.12-0.05,0.19c-0.38,1.6-0.06,3.27,0.15,4.9
						c0.71,5.72-0.05,11.61-2.19,16.96c-1.44,3.6-3.5,6.94-6.05,9.85c-2.6,2.97-6.85,6.1-10.16,8.22
						c-11.02,7.03-12.2,11.73-10.65,18.84c3.68,8.27,28.66,13.31,43.02,0.98c5.61-4.82,9.87-9.05,13.67-18.58
						c2.67-6.7,4.67-10.5,7.24-15.33c2.78-5.22,8.05-11.12,8.2-16.5c0.08-2.96-2.85-8.46-5.69-13c-2.61-4.16-5.3-8.12-7.65-7.65
						l0.65,2.35c-1.96,2.03-4.8,2.79-6.52,5.18c-2.12,2.95-2.04,6.9-3.36,10.28c-0.13,0.33-0.3,0.68-0.64,0.78
						c-0.36,0.11-0.74-0.14-0.92-0.47s-0.19-0.72-0.2-1.09c-0.05-1.69-0.1-3.38-0.15-5.07c-0.03-0.97-0.09-2.02-0.73-2.75
						c-1.36-1.54-4.71-1.36-6.57-1.43c-2.55-0.1-4.98,0.29-7.51,0.45c-0.94,0.06-1.64,0-2.44,0.64
						C502.64,1528.28,502.15,1529.1,501.91,1529.96z"/>
				</g>
				<g>
					<path fill="#9F6867" d="M465,1428.67c5.8,19.07,32.92,85.11,34.55,89.08c1.63,3.97,5.4,13.11,5.4,13.11s4.43,1.82,11.02,0.46
						c0.57,6.33,1.52,16.24,1.9,21.25c0.12,5.8,0.63,12.97-0.62,18.7c-1.06,4.88-2.29,10-3.22,14.9c-0.41,2.17-0.81,4.33-1.14,6.52
						c-0.35,2.3-0.57,4.8,0.55,6.84c0.52,0.96,1.31,1.75,2.15,2.44c3.76,3.09,8.82,4.41,13.67,4.01c2.57-0.21,5.15-0.9,7.24-2.4
						c4.21-3.02,5.7-8.27,7.84-12.72c2.33-4.84,1.57-5.36,1.77-10.54c0.14-3.62,1.14-12.82,2.59-22.44
						c1.45-9.61,7.69-43.41,10.68-77.09c2.07-23.32,0-44.94,0-44.94c23.8-64.65,34.39-103.09,37.51-124.57
						c3.16-21.81,1.65-29.57,1.25-42.13l-115.72,2.79C473.1,1331.75,457.21,1403.09,465,1428.67z M521.53,1326.09L521.53,1326.09
						L521.53,1326.09L521.53,1326.09L521.53,1326.09z"/>
					<path fill="#5EBDB0" d="M463.19,1380.93c2.38-21.98,18.83-106.5,18.83-106.5h116.59c0,0,0.74,16.22,0.53,23.67
						c-0.21,7.45-2.6,21.08-6.78,38.29c-4.17,17.22-19.59,66-22.57,73.2c-2.98,7.2-8.75,28-8.75,28
						c2.86,39.1-4.57,74.18-10.15,120.81c0,0-1.61,6.3-18.14,5.05c-16.06-1.21-19.3-7.13-19.3-7.13l-1.07-40.24
						c0,0-8.78,2.69-13.93,1.46c0,0-34.51-85.19-36.18-90.33C460.6,1422.1,460.8,1402.91,463.19,1380.93z"/>
					<path opacity="0.45" fill="#010202" d="M463.19,1380.93c2.38-21.98,18.83-106.5,18.83-106.5h116.59c0,0,0.74,16.22,0.53,23.67
						c-0.21,7.45-2.6,21.08-6.78,38.29c-4.17,17.22-19.59,66-22.57,73.2c-2.98,7.2-8.75,28-8.75,28
						c2.86,39.1-4.57,74.18-10.15,120.81c0,0-1.61,6.3-18.14,5.05c-16.06-1.21-19.3-7.13-19.3-7.13l-1.07-40.24
						c0,0-8.78,2.69-13.93,1.46c0,0-34.51-85.19-36.18-90.33C460.6,1422.1,460.8,1402.91,463.19,1380.93z"/>
					<path opacity="0.2" fill="#010202" d="M512.64,1329.52c-16.51-14.89-20.18-26.73-20.18-26.73c12.3,14.52,29.07,23.3,29.07,23.3
						s-15.67,82.79-14.53,99.81c1.14,17.02,5.38,90.2,5.38,90.2c0.03,0.7-11.12-77.39-11.43-83.63
						C500.11,1416.03,512.64,1329.52,512.64,1329.52z"/>
				</g>
				<g id="XMLID_419_">
					<path id="XMLID_470_" fill="#263339" d="M548.98,1599.87c1.63,0.46,1.42,5.31,0.69,7.11c-0.73,1.8-3.63,5.23-7.53,7.81
						c-3.9,2.58-7.54,6.18-11.06,11.91c-2.5,4.07-8.81,11.81-17.33,16.92c-8.53,5.11-21.13,6.9-30.49,4.24
						c-10.94-3.11-11.96-5.79-11.85-9.91L548.98,1599.87z"/>
					<path id="XMLID_434_" fill="#465B64" d="M515.14,1574.54c-2.87,14-7.87,24.17-19.47,32.79c-9.22,6.85-15.92,10.33-23.28,16.46
						c-3.13,2.61-3.4,8.17-0.99,14.16c4.97,3.99,12.04,6.28,21.55,6.26c10.62-0.02,14.7-1.89,20.8-6.06c3.51-2.4,5.93-4.6,8.32-6.99
						c5.1-5.12,8.66-11.44,12.34-15.49c3.68-4.06,11.65-8.2,13.91-13.1c1.24-2.69,0.72-8.91-0.12-14.21
						c-0.76-4.86,0.73-13.39-1.62-13.89c0.05,0.01-0.32,3.48-0.32,3.48c-0.19,0.79-0.68,1.19-2.33,1.76
						c-1.1,0.38-3.34,0.32-4.48,0.13c-1.34-0.22-2.11-0.2-3,0.85c-1.57,1.85-1.99,4.46-4.01,5.99c-0.14,0.11-0.29,0.21-0.47,0.25
						c-0.17,0.04-0.37,0-0.49-0.14c-0.13-0.15-0.11-0.37-0.09-0.57c0.19-1.74,0.39-3.47,0.58-5.21c0.06-0.52,0.12-1.06,0.04-1.58
						c-0.14-0.97-0.87-1.8-1.68-2.29c-1.42-0.86-3.08-1.5-4.68-1.94c-1.69-0.47-3.44-0.73-5.19-0.89
						C518.71,1574.14,516.87,1574.11,515.14,1574.54z"/>
				</g>
			</g>
			<path id="XMLID_418_" fill="#5EBDB0" d="M588.07,1116.26c0,0,4.8,6.6,8.65,20.17c0,0,7.32,31.03,7.32,67.8
				c0,30.77-4.15,80.65-4.15,80.65c-35.72,17.91-93.35,7.32-118.71-10.15c1.03-5.54,1.9-34.67,3.89-53.88
				c1.35-32.97,2.46-50.24,2.7-64.9c0.47-29.3,15.05-44.44,26.07-44.66l27.98,0.44L588.07,1116.26z"/>
			<g>
				<path fill="#884D4D" d="M596.89,1275.84c-5.31,4.37-15.74,12.77-17.65,17.01c-2.19,4.85-3.54,12.14-4.96,14.96
					c-1.42,2.82,0.76,4.13,3.82,3.15c3.06-0.98,4.9-3.6,7.27-9.94c2.36-6.34,8.95-11.3,8.95-11.3L596.89,1275.84z"/>
				<path fill="#9F6867" d="M577.49,1332.87c1.27,2.45,4.24,2.46,6.99,2.68c3.92,0.32,6.13,0.04,9.88-1.12
					c3.75-1.16,7.25-3.39,9.5-6.61c2.69-3.85,3.37-8.7,4.9-13.14c3.22-9.33,12.77-16.04,14.32-25.92c0.64-4.09,0.65-8.89,1.81-11.42
					c0.68-1.49,16.38-28.52,21.97-40.22c5.38-11.25,9.4-16.54,4.53-30.07c-4.88-13.53-21.49-61.1-33.24-77.63
					c-6.67-9.38-17.24-12.05-30.07-13.16c-9.75,25.42,1.6,51.66,1.6,51.66l25.8,49.78c0,0-10.03,34.28-16.3,53.35
					c-1.74,5.3-5.26,8.57-9.22,14.44c-1.72,2.55-5.67,7.01-7.07,9.75c-1.81,3.52-1.76,5.78-2.61,10.71
					C578.92,1313.81,576.88,1331.7,577.49,1332.87z"/>
				<path fill="#465B64" d="M586.7,1116.13c6.74,0.27,16.43,1.41,22.22,4.33c5.79,2.93,9.8,6.54,16.47,19.88
					c6.67,13.34,16.38,39.27,16.38,39.27s-3.22,19.56-34.16,24.64l-20.91-38.55C586.7,1165.7,577.38,1141.68,586.7,1116.13z"/>
			</g>
			<g id="XMLID_1138_">
				<g id="XMLID_1146_">
					<g>
						<path fill="#37474F" d="M506.33,1053.86c1.01,1.47,1.57,3.48,2.37,5.09c1.12,2.26,2.24,4.55,3.91,6.47
							c4.01,4.62,9.65,8,14.77,11.27c3.11,1.99,6.67,3.85,10.47,3.31c3.86-0.55,8.03,0.28,11.97,0.64
							c4.57,0.41,9.14,0.82,13.71,1.23l-0.77,14.41c0,0,1.7-3.82,4.02-8.38c2-3.92,10.32-23.81,10.35-23.88
							c4.12-9.85,9.03-22.99,4.09-33.34c-1.17-2.44-2.89-4.72-5.36-6.15c0.5-1.9,0.65-3.22,0.45-4.91
							c-0.66-5.57-3.5-8.76-7.28-11.54c-3.78-2.78-8.35-4.27-12.93-5.33c-6.13-1.41-12.42-2.11-18.71-2.08
							c-6.26,0.02-12.22,1.07-18.36,2.11c-3.38,0.57-6.79,1.03-10.23,1.07c-1.44,0.02-3.04,0.11-4.43-0.21
							c-1.8-0.42-3.6-1.3-5.34-1.93c-0.31-0.11-0.66-0.22-0.96-0.08c-0.3,0.15-0.43,0.5-0.52,0.82c-1.1,4.03,0.28,9.27,2.85,12.57
							c-1.05-0.13-1.86-0.49-2.27-0.66c-0.85-0.35-1.58-0.84-2.35-1.32c-1.39-0.87-2.24-1.88-3.31-3.15
							c-0.15-0.18-0.32-0.37-0.54-0.41c-0.34-0.06-0.64,0.24-0.85,0.52c-1.99,2.71-2.48,6.33-1.81,9.63
							c0.67,3.29,2.41,6.29,4.53,8.9c-2.28,3.38-2.31,7.98-0.62,11.69c0.75,1.65,1.82,3.13,3.08,4.43c1.56,1.6,3.42,2.91,5.06,4.4
							C503.01,1050.58,505.03,1051.97,506.33,1053.86z"/>
						<path fill="#9F6867" d="M548.08,1029.86c0.04,3.84,0.58,6.52,0.99,7.71c0.81,2.36,2.16,3.92,3.89,5.73
							c1.77,1.85,3.96,3.33,5.39,5.45c1.95,2.9,2.62,6.64,3.03,10.03c0.25,2.06,0.88,4.31,2.65,5.41c3.73,2.3,5.96-2.17,7.95-4.36
							c2.56-2.37,10.16-5.26,13.68,2.82c3.64,8.37-3.07,19.45-9.19,21.15c-10.55,2.94-12.83-4.24-12.83-4.24l-2.02,37.63
							c-5.96,11.28-19.93,14.85-29.11,13.06c-7.92-1.55-12.28-7.1-4.83-15.16l0.4-11.46c0,0-9.51,1.13-14.1,0.27
							c-7.64-1.44-11.43-7.93-13.49-16.31c-3.31-13.47-4.82-27.62-0.73-57.95c1.88-1.03,9.41,4.84,20.82,5.63
							C531.94,1036.05,542.39,1033,548.08,1029.86z"/>
					</g>
					<path id="XMLID_1147_" fill="#884D4D" d="M528.09,1103.64c0,0,17.25-2.9,23.34-5.89c4.08-2,7.5-5.59,8.55-7.93
						c0,0-1.29,5.05-5.02,9.51c-4.56,5.46-27.02,8.86-27.02,8.86L528.09,1103.64z"/>
				</g>
				<g id="XMLID_1139_">
					<path id="XMLID_1144_" fill="#263339" d="M537,1043.26l8.03,2.46c0.63-2.29-0.66-4.7-2.88-5.37
						C539.93,1039.66,537.62,1040.97,537,1043.26z"/>
					<path id="XMLID_1143_" fill="#884D4D" d="M534.21,1081.38l-11.82,4c1.05,3.38,4.54,5.23,7.81,4.13
						C533.46,1088.4,535.26,1084.76,534.21,1081.38z"/>
					<path fill="#F18F8F" d="M533.25,1084.27c-3.27,0-5.99,2.26-6.74,5.29c1.16,0.36,2.44,0.37,3.68-0.05
						c2.29-0.78,3.84-2.81,4.2-5.12C534.02,1084.32,533.65,1084.27,533.25,1084.27z"/>
					<path id="XMLID_1142_" fill="#263339" d="M501.15,1044.61l8.15-1.07c-0.24-2.22-2.27-3.78-4.52-3.48
						C502.54,1040.35,500.91,1042.39,501.15,1044.61z"/>
					<path fill="#263339" d="M551.37,1048.09l26.94,9.23c0,0-4.22-0.34-7.76,3.94l-19.08-7.25L551.37,1048.09z"/>
					<path id="XMLID_1141_" fill="#263339" d="M505.16,1058.6c-0.06,1.85,1.33,3.39,3.11,3.44c1.78,0.05,3.27-1.4,3.33-3.25
						c0.06-1.85-1.33-3.39-3.11-3.44C506.71,1055.3,505.22,1056.75,505.16,1058.6z"/>
					<path id="XMLID_394_" fill="#263339" d="M535.95,1058.62c-0.06,1.85,1.33,3.39,3.11,3.44c1.78,0.05,3.27-1.4,3.33-3.25
						c0.06-1.85-1.33-3.39-3.11-3.44C537.5,1055.31,536.01,1056.77,535.95,1058.62z"/>
					<g>
						<path fill="#263339" d="M489.27,1050.04c0.12,1.64,1.16,3.16,1.7,3.8c0.28,0.34,0.54,0.78,0.68,1.35
							c0.63,2.59,1.16,7.5,2.39,10.26c1.23,2.75,3.81,7.12,11.04,7.29c1.41,0.03,2.65-0.08,3.76-0.32c0.1-0.02,0.19-0.04,0.28-0.06
							c1.17-0.27,2.18-0.69,3.05-1.2c0.06-0.04,0.12-0.07,0.18-0.11c0.09-0.05,0.18-0.11,0.26-0.16c0.08-0.05,0.15-0.1,0.33-0.23
							c0.1-0.07,0.2-0.15,0.3-0.23c0.11-0.09,0.22-0.18,0.33-0.27c0.11-0.09,0.21-0.18,0.32-0.28c0.21-0.19,0.4-0.39,0.59-0.6
							c1.07-1.16,1.84-2.53,2.45-3.9c1.59-3.58,1.18-8.6,3.8-9.18c0.1-0.02,0.21-0.04,0.31-0.05c0.11-0.01,0.22-0.01,0.34-0.01
							c3.56,0.05,3.17,5.52,5.16,9.42c1.99,3.91,5.28,7.72,13.01,7.83c0.34,0.01,0.68,0,1-0.01c0.27-0.01,0.54-0.03,0.8-0.05
							c0.66-0.05,1.29-0.14,1.86-0.26c0.2-0.04,0.4-0.09,0.58-0.14c0.19-0.05,0.38-0.11,0.56-0.16c0.12-0.03,0.24-0.07,0.35-0.11
							c0.79-0.27,1.48-0.6,2.09-0.98c0.24-0.15,0.47-0.31,0.7-0.47c0.44-0.33,0.83-0.67,1.21-1.06c1.16-1.21,1.86-2.54,2.34-3.63
							c1.2-2.71,1.51-7.62,2.11-10.17c0.16-0.68,0.37-1.15,0.59-1.48c0.5-0.74,1.69-2.03,1.74-3.67c0.05-1.64-1.11-3.07-2.15-3.22
							c-0.61-0.09-1.24-0.17-1.89-0.25c-6.1-0.74-14.05-1.06-18.8,0.23c-5.96,1.63-8.03,3.54-11.36,3.49
							c-3.11-0.07-5.13-2.06-10.78-3.9c-4.51-1.46-11.94-1.42-17.61-0.9c-0.61,0.06-1.2,0.12-1.76,0.18
							C490.18,1046.93,489.15,1048.41,489.27,1050.04z M528.5,1053.77c0.31-0.46,0.91-0.94,1.7-1.39c0.1-0.06,0.2-0.12,0.31-0.17
							c0.06-0.03,0.11-0.06,0.17-0.09c0.26-0.14,0.54-0.27,0.84-0.4c0.25-0.11,0.51-0.22,0.78-0.32c0.78-0.3,1.65-0.57,2.54-0.8
							c0.33-0.08,0.67-0.17,1.01-0.24c0.86-0.19,1.74-0.32,2.62-0.41c0.21-0.02,0.42-0.04,0.61-0.05c5.74-0.47,9.32,0.89,10.63,2.06
							c1.35,1.22,0.74,6.53,0.19,9.22c-0.01,0.07-0.03,0.13-0.04,0.2c-0.01,0.07-0.03,0.14-0.04,0.21
							c-0.07,0.33-0.14,0.69-0.25,1.09c-0.06,0.22-0.12,0.44-0.19,0.67c-0.01,0.01,0,0.02-0.01,0.03c-0.11,0.36-0.23,0.74-0.38,1.13
							v0c-0.05,0.13-0.1,0.26-0.16,0.39c-0.03,0.07-0.06,0.15-0.1,0.23c-0.03,0.09-0.07,0.17-0.12,0.26
							c-0.05,0.11-0.1,0.22-0.16,0.32c-0.06,0.12-0.12,0.24-0.19,0.36c-0.07,0.13-0.14,0.25-0.23,0.38
							c-0.08,0.12-0.16,0.25-0.25,0.38c-1.43,2.06-3.84,3.8-8.03,3.79c-4.14-0.01-6.79-1.43-8.48-3.23l-0.01,0
							c-1.68-1.79-2.42-3.95-2.78-5.44C527.79,1058.93,527.38,1055.41,528.5,1053.77z M494.73,1050.97c0.32-0.3,0.78-0.61,1.4-0.89
							c0.04-0.02,0.07-0.03,0.11-0.05c0.19-0.09,0.4-0.17,0.62-0.24c0.12-0.04,0.25-0.09,0.38-0.12c0.1-0.03,0.21-0.06,0.32-0.09
							c0.07-0.02,0.14-0.04,0.21-0.06c0.03-0.01,0.06-0.02,0.08-0.02c0.1-0.03,0.21-0.05,0.31-0.07c0.41-0.09,0.85-0.16,1.32-0.22
							c0.23-0.03,0.47-0.06,0.72-0.07c0.14-0.01,0.28-0.02,0.43-0.03c0.11-0.01,0.22-0.01,0.33-0.01c0.29-0.01,0.6-0.01,0.92-0.01
							c0.11,0,0.22,0,0.34,0.01c0.1,0,0.21,0.01,0.31,0.01c0.82,0.03,1.7,0.11,2.65,0.25c4.09,0.59,8.37,2.49,9.49,4.17
							c1.12,1.68,0.87,5.18,0.33,8.18c-0.11,0.59-0.27,1.28-0.52,2.01c-0.01,0.05-0.04,0.1-0.05,0.16c-0.02,0.07-0.05,0.13-0.07,0.2
							c-0.02,0.05-0.03,0.09-0.05,0.14c-0.03,0.08-0.06,0.16-0.1,0.24c-0.07,0.17-0.14,0.33-0.22,0.5
							c-0.06,0.14-0.14,0.28-0.21,0.42c-0.03,0.05-0.06,0.1-0.08,0.15c-0.05,0.09-0.11,0.19-0.17,0.28
							c-0.05,0.08-0.1,0.16-0.15,0.25c0,0.01-0.01,0.03-0.02,0.04c-1.42,2.18-3.97,4.06-8.53,3.89c-1.72-0.06-3.14-0.44-4.3-1.03
							c-4.07-2.07-5.11-6.64-5.59-8.76C494.31,1057.47,493.51,1052.13,494.73,1050.97z"/>
					</g>
					<path id="XMLID_1140_" fill="#884D4D" d="M522.39,1056.33l-0.61,22.39l-12.5-3.61l11.65-18.97
						C521.47,1056.09,521.95,1056.17,522.39,1056.33z"/>
				</g>
			</g>
		</g>
		<g id="Speech_Bubble_6_">
			<g id="Speech_Bubble_7_">
				<ellipse id="XMLID_398_" fill="#5EBDB0" cx="697.05" cy="1002.64" rx="64.55" ry="56.53"/>
				<path id="XMLID_395_" fill="#5EBDB0" d="M645.52,1035.33c-0.35,7.58-6.76,21.14-18.36,26.07c-0.73,0.31-0.64,1.36,0.13,1.52
					c6.33,1.32,23.24,2.91,35.71-13.53L645.52,1035.33z"/>
			</g>
			<g>
				<path fill="#FCFCFC" d="M653.28,998.15c0.14-2.54,0.69-4.93,1.67-7.17c0.97-2.24,2.35-4.19,4.15-5.85
					c1.79-1.65,3.96-2.97,6.52-3.94c2.56-0.97,5.52-1.46,8.87-1.46c3.31,0,6.25,0.49,8.84,1.46c2.58,0.97,4.77,2.29,6.56,3.94
					c1.79,1.65,3.17,3.6,4.15,5.85c0.97,2.24,1.53,4.63,1.67,7.17c0.09,1.95,0.14,3.99,0.14,6.12c0,2.13-0.05,4.12-0.14,5.98
					c-0.14,2.54-0.69,4.93-1.67,7.17c-0.97,2.24-2.36,4.2-4.15,5.88c-1.79,1.68-3.98,2.99-6.56,3.94c-2.58,0.95-5.53,1.43-8.84,1.43
					c-3.35,0-6.31-0.48-8.87-1.43c-2.56-0.95-4.73-2.27-6.52-3.94c-1.79-1.68-3.17-3.64-4.15-5.88c-0.97-2.24-1.53-4.63-1.67-7.17
					c-0.09-1.86-0.14-3.85-0.14-5.98C653.15,1002.14,653.19,1000.1,653.28,998.15z M683.12,1009.91c0.04-0.82,0.09-1.72,0.14-2.72
					c0.04-1,0.07-2.01,0.07-3.06c0-1.04-0.02-2.05-0.07-3.02c-0.05-0.97-0.09-1.85-0.14-2.62c-0.09-1.13-0.33-2.17-0.71-3.13
					c-0.39-0.95-0.93-1.78-1.63-2.48c-0.7-0.7-1.58-1.26-2.62-1.66c-1.04-0.41-2.27-0.61-3.67-0.61c-1.41,0-2.63,0.2-3.67,0.61
					c-1.04,0.41-1.92,0.96-2.62,1.66c-0.7,0.7-1.25,1.53-1.63,2.48c-0.39,0.95-0.62,1.99-0.71,3.13c-0.09,0.77-0.15,1.64-0.17,2.62
					c-0.02,0.97-0.03,1.98-0.03,3.02c0,1.04,0.01,2.06,0.03,3.06c0.02,1,0.08,1.9,0.17,2.72c0.18,2.27,0.96,4.15,2.34,5.64
					c1.38,1.5,3.48,2.24,6.29,2.24c2.81,0,4.89-0.75,6.25-2.24C682.1,1014.06,682.9,1012.18,683.12,1009.91z"/>
				<path fill="#FCFCFC" d="M743.96,1025.75c0.14,0.18,0.2,0.43,0.2,0.75c0,0.41-0.15,0.76-0.44,1.05c-0.3,0.3-0.65,0.44-1.05,0.44
					h-10.81c-0.63,0-1.16-0.14-1.56-0.41c-0.41-0.27-0.81-0.66-1.22-1.16l-12.85-16.18v15.91c0,0.5-0.18,0.93-0.54,1.29
					c-0.36,0.36-0.79,0.54-1.29,0.54h-8.9c-0.5,0-0.93-0.18-1.29-0.54c-0.36-0.36-0.54-0.79-0.54-1.29v-43.91
					c0-0.5,0.18-0.93,0.54-1.29c0.36-0.36,0.79-0.54,1.29-0.54h8.9c0.5,0,0.93,0.18,1.29,0.54c0.36,0.36,0.54,0.79,0.54,1.29v14.34
					l11.96-14.68c0.23-0.27,0.52-0.59,0.88-0.95c0.36-0.36,0.97-0.54,1.84-0.54h10.6c0.41,0,0.76,0.15,1.05,0.44
					c0.29,0.29,0.44,0.64,0.44,1.05c0,0.32-0.07,0.57-0.2,0.75l-16.79,20.53L743.96,1025.75z"/>
			</g>
		</g>
		<g id="Like_icon_2_">
			<polygon fill="#E0DFDF" points="863.59,1056.09 853.82,1059.03 846.76,1035.46 856.51,1032.52 			"/>
			<path fill="#E0DFDF" d="M894.1,1035.16c0.38,1.26-0.87,3.99-2.77,4.56c0,0,0.91,0.96,1.37,2.49c0.56,1.82-0.93,4.28-3.86,5.15
				c-2.92,0.88-22.35,6.73-22.35,6.73l-6.58-21.89l-0.01,0c0,0,3.79-9.68,3.98-11.14c0.22-1.43-2.05-6.83-2.35-7.84
				c-0.25-0.83,3.31-2.33,6.17-1.17c0.66,0.27,1.29,0.67,1.82,1.26c1.12,1.23,1.96,2.43,2.56,3.67c0.97,1.92,1.36,3.91,1.36,6.18
				l13.5-4.06c1.13-0.34,2.11-0.24,2.89,0.09c1.2,0.5,1.98,1.53,2.23,2.36c0.62,1.97-0.53,3.49-1.15,4.08c0,0,2.88-0.24,3.69,2.48
				c0.46,1.52-0.3,3.54-2.23,4.53C892.38,1032.64,893.53,1033.27,894.1,1035.16z"/>
		</g>
		<g id="Like_icon_1_">
			<polygon fill="#E0DFDF" points="1003.63,1300.49 991.11,1297.48 998.41,1267.27 1010.91,1270.27 			"/>
			<path fill="#E0DFDF" d="M1050.26,1297.09c-0.39,1.62-3.49,3.79-5.93,3.21c0,0,0.38,1.63-0.09,3.59c-0.55,2.35-3.74,4.08-7.5,3.16
				c-3.74-0.9-28.67-6.9-28.67-6.9l6.76-28.07l-0.02-0.01c0,0,10.31-8.15,11.44-9.62c1.15-1.42,2.11-8.75,2.43-10.05
				c0.26-1.06,5.09-0.43,7.48,2.65c0.55,0.71,0.98,1.55,1.19,2.54c0.44,2.05,0.59,3.9,0.46,5.64c-0.17,2.71-1.01,5.14-2.45,7.61
				l17.32,4.17c1.45,0.35,2.46,1.08,3.1,1.94c1,1.31,1.18,2.93,0.92,4c-0.58,2.55-2.8,3.47-3.85,3.72c0,0,3.29,1.58,2.45,5.06
				c-0.47,1.95-2.58,3.67-5.32,3.52C1049.98,1293.25,1050.85,1294.67,1050.26,1297.09z"/>
		</g>
		<g id="Like_icon_4_">
			<polygon fill="#E0DFDF" points="370.93,1282.41 384.6,1286.53 394.49,1253.53 380.84,1249.42 			"/>
			<path fill="#E0DFDF" d="M328.2,1253.1c-0.53,1.77,1.22,5.58,3.88,6.39c0,0-1.27,1.35-1.92,3.49c-0.79,2.55,1.3,5.99,5.41,7.21
				c4.09,1.23,31.3,9.42,31.3,9.42l9.21-30.65l0.02,0c0,0-5.31-13.56-5.57-15.6c-0.31-2.01,2.87-9.56,3.29-10.98
				c0.35-1.16-4.63-3.26-8.64-1.64c-0.92,0.38-1.8,0.94-2.55,1.77c-1.57,1.72-2.74,3.4-3.59,5.14c-1.35,2.69-1.91,5.48-1.91,8.65
				l-18.91-5.69c-1.58-0.47-2.96-0.34-4.05,0.13c-1.69,0.7-2.77,2.14-3.12,3.31c-0.87,2.76,0.74,4.89,1.61,5.71
				c0,0-4.03-0.33-5.17,3.47c-0.64,2.13,0.42,4.95,3.12,6.34C330.61,1249.58,328.99,1250.46,328.2,1253.1z"/>
		</g>
	</g>
</g>
</svg>
