<svg id="Layer_1" data-name="Layer 1" xmlns="http://www.w3.org/2000/svg" xmlns:xlink="http://www.w3.org/1999/xlink" viewBox="0 0 1347.64 2368.51"><defs><style>.cls-1{fill:#f1eff1;}.cls-2{fill:url(#linear-gradient);}.cls-3{fill:#2a2a64;}</style><linearGradient id="linear-gradient" x1="0.95" y1="1184.75" x2="1348.1" y2="1184.75" gradientUnits="userSpaceOnUse"><stop offset="0" stop-color="#19b7e5"/><stop offset="1" stop-color="#2f2e80"/></linearGradient></defs><rect class="cls-1" y="1.37" width="1347.64" height="2367.13"/><path class="cls-2" d="M1,1432c196.1-279.53,397-452.18,546.88-559.15,294.82-210.39,546.08-276.41,696.47-560.25,91-171.63,103.8-328.49,103.8-310.76V2369H1Z" transform="translate(-0.46 -0.49)"/><image width="512" height="512" transform="translate(417.32 928.44)" xlink:href="../../send%20(2).png"/><path class="cls-3" d="M414,482.06q0,21.42-15.9,33.07-14.16,10.39-36.32,10.39-11.28,0-19.17-3.63Q332.31,517,332.3,507.11q0-16.65,15.53-30.43,14.91-13.28,31.82-13.78,1.5,2.25,2.63,9.64a88.66,88.66,0,0,1,.75,10.52q0,4.26-6.14,12.65a34.27,34.27,0,0,1-8.58,1.07,36.19,36.19,0,0,0-8.33.94,13.28,13.28,0,0,0-7.14,4.63L351,500.6q4.4-10,7.39-12.4t13.53-4.13l1-1c-.08-1.25-.21-2.5-.37-3.75-.17-1.76-.55-2.88-1.13-3.39h-1.25q-6.27-.12-17.91,7.39-12.29,7.89-12.28,13.78,0,15,31.94,15a47.68,47.68,0,0,0,20.92-4.63q11.76-5.76,11.77-15.53,0-6.39-3.82-18.92t-3.82-19q0-8,9.64-16.66a16.73,16.73,0,0,1,.25,5.26c-.16,3.59-.25,5.34-.25,5.26q0,5.64,3.7,17T414,482.06Zm26.8-74.52q0,11.65-19.16,22-17,9.41-29.93,9.4a17.34,17.34,0,0,1-2.51-.25,21.55,21.55,0,0,1-2.25-.44c-.42-.13-.63-.52-.63-1.19s1.55-4.72,4.64-12.4a17.16,17.16,0,0,0,4,.37,43.86,43.86,0,0,0,19.41-4.13q4.76-2.37,13.27-9,7.77-6.14,13.15-8.26Z" transform="translate(-0.46 -0.49)"/><path class="cls-3" d="M502.26,511a35.46,35.46,0,0,1-4.88,12.53h-5.26q-11,0-17.79,7.26-4.89,6.76-9.77,13.65-5.88,7.26-14.4,7.27-12.9,0-15.53.25-10,1.13-14,5.76h-1.88l-.5-1.49q0-12.33,11.4-16.18,6.13-2,21.54-2,7,0,13.53-7,5.25-6.54,10.39-13,6.14-7,12.15-7Z" transform="translate(-0.46 -0.49)"/><path class="cls-3" d="M537.58,494.84a16.5,16.5,0,0,1-1.51,7.26q-1.87,3.13-3.63,6.26-8.15,15.17-26.8,15.16H490.86q2.5-5.38,6.14-12.53h12.65q11.77,0,18.28-4.38V505a18.43,18.43,0,0,0-3.19-10.21c-2.21-3.54-3.32-5.49-3.32-5.82q6.76-10.51,8.27-10.52,2,0,4.94,6.95T537.58,494.84ZM529.69,540a33.35,33.35,0,0,1-2.38,7.32q-2.5,5.68-3.89,5.68a26.5,26.5,0,0,1-4-1.19,19.39,19.39,0,0,0-6-1.19,26.66,26.66,0,0,0-8,1.5,52.94,52.94,0,0,1-7.51,2q2-10.1,4.19-12.37t12-4.54a7,7,0,0,1,2.13-.25A31.19,31.19,0,0,1,529.69,540Z" transform="translate(-0.46 -0.49)"/><path class="cls-3" d="M617,511a35.27,35.27,0,0,1-4.88,12.53h-5.26q-11,0-17.79,7.26-4.87,6.76-9.77,13.65-5.88,7.26-14.4,7.27-12.9,0-15.53.25-10,1.13-14,5.76h-1.88l-.5-1.49q0-12.33,11.4-16.18,6.13-2,21.54-2,7,0,13.53-7,5.26-6.54,10.39-13,6.13-7,12.15-7Z" transform="translate(-0.46 -0.49)"/><path class="cls-3" d="M669.58,511a47.72,47.72,0,0,1-2.63,8.27q-1.5,4-1.5,4.26h-8.89q-2,0-8.89-1.82c-4.6-1.21-7.64-1.81-9.15-1.81a57.08,57.08,0,0,0-11.33,1.81,57.62,57.62,0,0,1-11.84,1.82h-9a1.14,1.14,0,0,1-.37-1q0-1.87,2.5-6.53a33.15,33.15,0,0,1,3.14-5q-.51,0,17.91-1.26.75-7,6.76-17.21,6.88-11.43,12.9-11.43,3.63,0,5.89,3.65a12.87,12.87,0,0,1,2,7q0,7.29-6.14,15.72v1.64q1.88,2.38,8.39,1.88Zm-9.14-66.63q0,8.14-4.88,12.28t-13.15,4.13h-3.64a10.57,10.57,0,0,1-7.14-2.88,74.49,74.49,0,0,1,5-12.9,46.34,46.34,0,0,0,9,1.5,20.81,20.81,0,0,0,12.53-3.63h1.88A2.18,2.18,0,0,1,660.44,444.36Zm-11.52,57a8.06,8.06,0,0,0-1.38-4.57,4.19,4.19,0,0,0-3.63-2.07,6.51,6.51,0,0,0-4.2,1.94,5.43,5.43,0,0,0-2.19,4c0,.58.82,1.77,2.44,3.57s2.78,2.69,3.45,2.69a5.18,5.18,0,0,0,3.82-1.75A5.38,5.38,0,0,0,648.92,501.35Z" transform="translate(-0.46 -0.49)"/><path class="cls-3" d="M701.14,494.84a16.64,16.64,0,0,1-1.5,7.26q-1.87,3.13-3.63,6.26-8.14,15.17-26.8,15.16h-9.77q2.5-5.38,6.14-12.53,9.88,0,13.27-.37,7.89-.89,12.65-4V505a18.51,18.51,0,0,0-3.19-10.21c-2.22-3.54-3.32-5.49-3.32-5.82q6.76-10.51,8.26-10.52,2,0,5,6.95T701.14,494.84Zm0-50.1q0,8.52-5.71,12.9-5.1,4-13.79,4a40,40,0,0,1-11.93-2.13q1.74-4.38,5.34-12.9a49.14,49.14,0,0,0,8.82.75,38.07,38.07,0,0,0,8.7-.75,63.69,63.69,0,0,0,8.08-3.26A1.64,1.64,0,0,1,701.14,444.74Z" transform="translate(-0.46 -0.49)"/><path class="cls-3" d="M844.42,511q-.75,2.76-1.56,5.58a25.65,25.65,0,0,1-3.7,6.95h-3.63a19.85,19.85,0,0,1-8.64-1.63A30.54,30.54,0,0,1,820,516.5q-5.76,14-25.55,21.17a99.12,99.12,0,0,1-34.07,5.64,28.29,28.29,0,0,1-16.65-5.39q-8.52-6-8.52-14.53a20.16,20.16,0,0,1,1.63-6.64q1.24-3.37,2.63-6.63,4.13-11.78,14.15-15.91,4.51-1.87,19.66-3.76,12.9-1.5,19.54-6.13-1.76,13.14-14.65,17.28-1,.25-23.17,3.38-12.15,1.63-12.15,8.89,0,8.26,9.27,12.65a38.13,38.13,0,0,0,16.53,3.39,83,83,0,0,0,27.05-4.51q17.53-6.14,17.54-17,0-11.14-3.07-33.25t-3.07-33q0-4.26,3.76-8.14.24-.25,7.14-6.14,1.25,7.14,1.75,22.67.63,18.78,1.25,25.42,1.38,13.9,5.14,21.67a40.94,40.94,0,0,0,5,7.89q4.38,5.52,8,5.51Z" transform="translate(-0.46 -0.49)"/><path class="cls-3" d="M874.73,511Q873,519.77,870,523.52h-15a6.79,6.79,0,0,1-1.25-2.51,39,39,0,0,1-13,2.51h-5.38a79.7,79.7,0,0,1,3.88-12.28q10.51,0,14.91-1.25,10.51-2.88,13.52-12.9c1.5.59,2.26,1,2.26,1.25q0,.63-2.88,5.51c-1.18,2-2.38,4-3.64,6A15.78,15.78,0,0,0,870.1,511Z" transform="translate(-0.46 -0.49)"/><path class="cls-3" d="M910.92,497.59q-.24,6.89-7.63,18.54-4.63,7.39-19,7.39a5.19,5.19,0,0,1-3.26-.88v-.37a28,28,0,0,0-4.76.62,29,29,0,0,1-5.26.63h-5.13c-.76,0-1.13-.46-1.13-1.38q0-2,2.38-6.39a24.73,24.73,0,0,1,3-4.76h6.14q6.76,0,10.33-4.69t7-9.71a1.62,1.62,0,0,1,.62,1.5,29.59,29.59,0,0,1-1.69,5.64q-1.69,4.75-2.32,6.14a5.79,5.79,0,0,0,1.76.25q6.89,0,10.64-2.88a20.21,20.21,0,0,0,4.26-5.77C908.13,499.22,909.5,497.93,910.92,497.59Z" transform="translate(-0.46 -0.49)"/><path class="cls-3" d="M984.69,495.46a8.67,8.67,0,0,1-1,2.51c-.75,1.67-1.21,2.75-1.38,3.25q-3.63,10.15-12,15-5.38,3.13-16.66,5.64-12,2.5-16.65,4.76-12.15,5.88-18.42,12.77-2.62,3-3.75,2.88c-.34,0-.5-.46-.5-1.37a32.37,32.37,0,0,1,1-6.14c.42-1.75.83-3.47,1.25-5.14,1.25-1.5,2.55-3,3.88-4.5a44.24,44.24,0,0,1,6.64-4.89,84.07,84.07,0,0,1,23.55-10.64q9-2.13,18-4.39,10.9-3.5,14.41-11.15Q984.69,494.08,984.69,495.46Z" transform="translate(-0.46 -0.49)"/><path class="cls-3" d="M1011.37,497.47q0,17.53-13,26.8L997,522.89a55.79,55.79,0,0,0,3.07-10.08q1.68-7.2,1.44-9.71-2.26-13.14-4.39-26.3-2.75-16.28-2.75-26.3,0-12.9,14.28-22.54a2.2,2.2,0,0,1,.12.87,35.74,35.74,0,0,1-1.25,6.95,35.3,35.3,0,0,0-1.25,8q0,9.13,2.56,27T1011.37,497.47Z" transform="translate(-0.46 -0.49)"/></svg>