<svg id="Layer_1" data-name="Layer 1" xmlns="http://www.w3.org/2000/svg" xmlns:xlink="http://www.w3.org/1999/xlink" viewBox="0 0 1076 1890"><defs><style>.cls-1{fill:#f2f0f2;}.cls-2{fill:url(#linear-gradient);}.cls-3{fill:#e51742;}.cls-4{fill:#e4072b;}.cls-5{fill:#c11823;}.cls-6{fill:#c6c7e5;}.cls-7{fill:url(#Degradado_sin_nombre_67);}.cls-8{fill:url(#Degradado_sin_nombre_67-2);}.cls-9{fill:url(#Degradado_sin_nombre_67-3);}.cls-10{fill:url(#Degradado_sin_nombre_67-4);}.cls-11{fill:#757e96;}</style><linearGradient id="linear-gradient" x1="1" y1="1515.95" x2="1076" y2="1515.95" gradientUnits="userSpaceOnUse"><stop offset="0" stop-color="#e2d2e9"/><stop offset="0.23" stop-color="#dfd2e9"/><stop offset="0.37" stop-color="#d7d1e9"/><stop offset="0.49" stop-color="#c8cfe9"/><stop offset="0.59" stop-color="#b4cce8"/><stop offset="0.69" stop-color="#99c9e8"/><stop offset="0.78" stop-color="#78c5e7"/><stop offset="0.86" stop-color="#51c0e6"/><stop offset="0.94" stop-color="#25bae6"/><stop offset="1" stop-color="#01b6e5"/></linearGradient><linearGradient id="Degradado_sin_nombre_67" x1="1616.16" y1="365.81" x2="1703.51" y2="365.81" gradientTransform="translate(-1.3 2019.21) rotate(-90)" gradientUnits="userSpaceOnUse"><stop offset="0" stop-color="#2a2861"/><stop offset="0.93" stop-color="#332c86"/></linearGradient><linearGradient id="Degradado_sin_nombre_67-2" x1="1474.43" y1="1093.09" x2="1561.79" y2="1093.09" gradientTransform="translate(1880.05 1803.74) rotate(180)" xlink:href="#Degradado_sin_nombre_67"/><linearGradient id="Degradado_sin_nombre_67-3" x1="786.59" y1="935.38" x2="873.95" y2="935.38" gradientTransform="translate(1646.87 -119.62) rotate(90)" xlink:href="#Degradado_sin_nombre_67"/><linearGradient id="Degradado_sin_nombre_67-4" x1="941.68" y1="250.29" x2="1029.04" y2="250.29" gradientTransform="translate(-271.3 111.67)" xlink:href="#Degradado_sin_nombre_67"/></defs><g id="page02"><rect class="cls-1" width="1076" height="1890"/><path class="cls-2" d="M1,1496c43.91-47,117.8-112.25,223.11-140.83,222.24-60.3,368,101.28,564.66,50.54,77.84-20.09,185-78.94,287.23-263.84V1890H1Z"/><path class="cls-3" d="M538,404.2V667.86l-116.31.45c-1,.11-17.54,1.66-28-11.74-10.71-13.66-4.84-29.73-4.54-30.51L515.42,416.74A25.79,25.79,0,0,1,538,404.2Z"/><path class="cls-4" d="M538,404.2V667.86l116.31.45c1,.11,17.54,1.66,28-11.74,10.71-13.66,4.84-29.73,4.54-30.51L560.58,416.74A25.79,25.79,0,0,0,538,404.2Z"/><path class="cls-4" d="M538,407V387.89a46.42,46.42,0,0,0-15.38,2.19,47.31,47.31,0,0,0-20.3,13.13Q438.87,508.44,375.4,613.65A49.79,49.79,0,0,0,379.13,664c14,19.9,37.34,20.67,39.78,20.71H538V666.4l-114.45.45c-12.19,1-23.79-4.72-29.82-14.75-7.36-12.26-2.87-25.11-2.23-26.82q62.13-103,124.28-206A25.36,25.36,0,0,1,538,407Z"/><path class="cls-5" d="M538,407V387.89a46.42,46.42,0,0,1,15.38,2.19,47.31,47.31,0,0,1,20.3,13.13Q637.13,508.44,700.6,613.65A49.79,49.79,0,0,1,696.87,664c-14,19.9-37.34,20.67-39.78,20.71H538V666.4l114.45.45c12.19,1,23.79-4.72,29.82-14.75,7.36-12.26,2.87-25.11,2.23-26.82q-62.13-103-124.28-206A25.36,25.36,0,0,0,538,407Z"/><path class="cls-6" d="M579.67,527.74c-1.79-9.84-7.8-18.88-15.47-25.15A40.67,40.67,0,0,0,541.94,494a55.21,55.21,0,0,0-7.74.4l-.34.06h0A39.67,39.67,0,0,0,513.39,503c-7.61,6.34-13.54,15.44-15.23,25.3-1.93,11.28.77,23,4.66,33.58C507,573.22,514.61,583,521,593.11c3.29,5.27,6.4,10.64,9.76,15.87,2.68,4.16,5.9,8,8.46,12.26l.16.36.21-.55c2.51-4.27,5.7-8.15,8.33-12.34,3.31-5.26,6.37-10.66,9.62-16,6.24-10.2,13.78-20,17.83-31.38C579.12,550.74,581.71,539,579.67,527.74Zm-77.16,30.19c-1.5-1.83-1.8-4.13-2.24-6.38a44.14,44.14,0,0,1-.93-9.66.35.35,0,0,1,.69,0,65.45,65.45,0,0,0,1.44,9.34c.39,2,.46,4.4,1.73,6C503.57,557.75,502.9,558.42,502.51,557.93Zm14.24,19.37.53-.53c.3-.3.75.17.45.47l-.53.53C516.9,578.07,516.45,577.6,516.75,577.3Zm.89,1.68c.35-.31.71-.59,1-.93a11.7,11.7,0,0,1,1-.91c.36-.28.86.22.5.52-.7.59-1.22,1.48-2,1.92C517.72,579.78,517.31,579.27,517.64,579Zm1.16,2.34a29.18,29.18,0,0,0,3.6-4.31c.26-.33.81.12.56.45-1.1,1.46-2,3.63-3.67,4.53C518.88,582.21,518.42,581.64,518.8,581.32Zm.57,3.9a55.1,55.1,0,0,1,3.18-4.88c.31-.46,1.05,0,.74.45-1.07,1.62-2,3.32-3.16,4.89A.44.44,0,0,1,519.37,585.22Zm1.6,3c1.79-3.76,4.74-6.88,6.41-10.69.15-.35.73-.2.58.17-1.57,3.84-4.25,7.33-6.26,11C521.43,589.2,520.74,588.75,521,588.27Zm1,2.22c1.4-3.36,4-6.24,5.92-9.29a.31.31,0,0,1,.54.32c-1.87,3.12-3.83,6.21-5.74,9.29C522.5,591.18,521.83,590.91,522,590.49Zm1.64,3.65a.43.43,0,0,1-.57-.59c1.71-3.55,4.45-6.48,6.08-10.08.12-.27.58-.06.47.21-1.45,3.58-3.74,6.82-5.71,10.13A.52.52,0,0,1,523.65,594.14Zm.6,1.64c1.55-3,3.59-5.83,5.09-8.93.21-.42.8,0,.62.37a73.78,73.78,0,0,1-5,9A.44.44,0,0,1,524.25,595.78Zm.87,3.27c1.28-3.56,3.57-6.68,5.35-10,.26-.49,1,0,.73.44-1.74,3.33-3.72,6.48-5.26,9.92C525.73,599.88,525,599.53,525.12,599.05Zm2.82.81c1.09-2.91,2.76-5.58,3.94-8.46.2-.5,1-.27.82.25-.7,1.78-1.51,3.56-2.39,5.27-.55,1.09-.82,2.45-1.7,3.34A.41.41,0,0,1,527.94,599.86Zm.68,2.53c1.56-2.91,3.29-5.73,4.93-8.61.14-.26.52,0,.39.24-1.55,2.93-3.16,5.82-4.59,8.82C529.12,603.33,528.36,602.88,528.62,602.39Zm2.1,2.05c-.29.55-1.08.06-.82-.49,1.14-2.37,2.45-4.68,3.75-7,.26-.47,1,0,.71.44C533.11,599.74,531.94,602.11,530.72,604.44Zm.35,2.8a44.67,44.67,0,0,1,4-8.13c.25-.45.92,0,.68.41-1.43,2.65-2.65,5.35-3.92,8.08C531.66,608.06,530.92,607.71,531.07,607.24Zm1.46,1.59c.87-2.32,2.21-4.46,3.18-6.73.21-.49,1-.27.81.24a55.27,55.27,0,0,1-3.2,6.84C533.08,609.6,532.35,609.3,532.53,608.83Zm1.78,1.73a32.22,32.22,0,0,1,2.48-5.33c.18-.34.68,0,.5.31-.89,1.7-1.55,3.45-2.27,5.23C534.84,611.2,534.17,611,534.31,610.56Zm2.05,1.3a23.33,23.33,0,0,1,1.19-2.77c.22-.5,1.05-.27.83.25a25,25,0,0,0-1.18,2.77A.44.44,0,0,1,536.36,611.86Zm1,2.66c.27-1.26.92-2.39,1.13-3.68,0-.33.63-.24.59.09a12.12,12.12,0,0,1-1,3.89C537.83,615.23,537.25,614.91,537.34,614.52Zm1.86,1.22a.37.37,0,0,1-.68-.2c.05-.64.5-1.19.54-1.84a.36.36,0,0,1,.72,0A4.84,4.84,0,0,1,539.2,615.74Zm20.92-52c-2.33,2.39-6.2,3.06-9.2,4.2-.36.14-.61-.47-.25-.63,2.91-1.32,6.41-2,8.9-4.15A.4.4,0,0,1,560.12,563.7Zm1.44-2.84a49.24,49.24,0,0,1-17,7,.14.14,0,0,1-.07-.27,89.47,89.47,0,0,0,16.84-7.22C561.6,560.24,561.83,560.68,561.56,560.86Zm3.45-5.54c-2,1.69-3.91,3.71-6.29,5s-4.82,2.58-7.33,3.64a39.16,39.16,0,0,1-16.2,3.34.19.19,0,0,1,0-.37,45.94,45.94,0,0,0,16.39-4.09c2.27-1,4.47-2.21,6.69-3.3,2.38-1.17,4.24-3,6.3-4.63C564.89,554.62,565.33,555.06,565,555.32Zm5-17A30.19,30.19,0,0,1,554.62,560c-7.6,4-17.58,6.26-26,3.86a24.43,24.43,0,0,1-6.18-2.71,8.86,8.86,0,0,1-2.35-1.57l-.35-.36a26.38,26.38,0,0,1-2.74-2.56q-1-1.08-2-2.22a20.09,20.09,0,0,1-1.91-2.44,28.52,28.52,0,0,1-4-7.53,23.67,23.67,0,0,1-1.24-8.4c-.08-.85-.16-1.7-.25-2.55a21,21,0,0,1,2.59-12.11,46.83,46.83,0,0,1,4.65-6.44,21.58,21.58,0,0,1,4.65-4.55,31.64,31.64,0,0,1,13.16-4.78,38.61,38.61,0,0,1,28.54,8.18c3.28,2.66,6.51,6.07,8,10.11A29.68,29.68,0,0,1,570,538.36Z"/><path class="cls-5" d="M568.17,502.43c-7.09-6.39-22.9-13.54-34.5-11.32h0c-9.43.88-18.57,6.57-24.25,11.79a46,46,0,0,0-14,24.77c-2.08,10.89.33,22.3,3.76,32.66,3.93,11.87,11.43,22,18.19,32.42,3.53,5.41,6.93,10.91,10.49,16.3,3.32,5,7.45,9.58,10.45,14.81.1.24.11.2.11.15h0c.2,1.37,1.39,1.54,2.13.37,0,0,0,0,0,0,3-5.25,6.9-10.54,10.17-15.6,3.51-5.42,6.86-11,10.33-16.39,6.67-10.44,14.07-20.69,17.89-32.6,3.32-10.39,5.62-21.82,3.44-32.69A45.93,45.93,0,0,0,568.17,502.43Zm7.16,58.94c-4.05,11.35-11.59,21.18-17.83,31.38-3.25,5.3-6.31,10.7-9.62,16-2.63,4.19-5.82,8.07-8.33,12.34l-.21.55-.16-.36c-2.56-4.25-5.78-8.1-8.46-12.26-3.36-5.23-6.47-10.6-9.76-15.87-6.35-10.14-14-19.89-18.14-31.21-3.89-10.59-6.59-22.3-4.66-33.58,1.69-9.86,7.62-19,15.23-25.3a39.67,39.67,0,0,1,20.47-8.53h0l.34-.06a55.21,55.21,0,0,1,7.74-.4,40.67,40.67,0,0,1,22.26,8.55c7.67,6.27,13.68,15.31,15.47,25.15C581.71,539,579.12,550.74,575.33,561.37Z"/><path class="cls-5" d="M561.13,513.81a38.61,38.61,0,0,0-28.54-8.18,31.64,31.64,0,0,0-13.16,4.78,21.58,21.58,0,0,0-4.65,4.55,46.83,46.83,0,0,0-4.65,6.44,21,21,0,0,0-2.59,12.11c.09.85.17,1.7.25,2.55a23.67,23.67,0,0,0,1.24,8.4,28.52,28.52,0,0,0,4,7.53,20.09,20.09,0,0,0,1.91,2.44q1,1.14,2,2.22a26.38,26.38,0,0,0,2.74,2.56l.35.36a8.86,8.86,0,0,0,2.35,1.57,24.43,24.43,0,0,0,6.18,2.71c8.46,2.4,18.44.18,26-3.86A30.19,30.19,0,0,0,570,538.36a29.68,29.68,0,0,0-.87-14.44C567.64,519.88,564.41,516.47,561.13,513.81Zm6.2,23.51c-1.12,9.9-7.84,17.88-16.75,21.84-7.64,3.39-17,4.56-24.78,1.13-.82-.5-1.66-.95-2.5-1.41a9.55,9.55,0,0,1-2.63-2.48c-1.67-2-3.9-3.61-5.33-5.8a31.7,31.7,0,0,1-4.65-14.2,41.32,41.32,0,0,1-.38-5.61c2.24-10.42,10-19.16,20.51-21.4A38.58,38.58,0,0,1,542,509a.42.42,0,0,0,.41-.19,39.14,39.14,0,0,1,12.28,4.25,28.19,28.19,0,0,1,10.57,9.68C567.83,526.94,567.87,532.59,567.33,537.32Z"/><path class="cls-5" d="M564.58,554.87c-2.06,1.63-3.92,3.46-6.3,4.63-2.22,1.09-4.42,2.3-6.69,3.3a45.94,45.94,0,0,1-16.39,4.09.19.19,0,0,0,0,.37,39.16,39.16,0,0,0,16.2-3.34c2.51-1.06,4.92-2.38,7.33-3.64s4.24-3.27,6.29-5C565.33,555.06,564.89,554.62,564.58,554.87Z"/><path class="cls-5" d="M561.3,560.41a89.47,89.47,0,0,1-16.84,7.22.14.14,0,0,0,.07.27,49.24,49.24,0,0,0,17-7C561.83,560.68,561.6,560.24,561.3,560.41Z"/><path class="cls-5" d="M559.57,563.12c-2.49,2.12-6,2.83-8.9,4.15-.36.16-.11.77.25.63,3-1.14,6.87-1.81,9.2-4.2A.4.4,0,0,0,559.57,563.12Z"/><path class="cls-5" d="M527.38,577.58c-1.67,3.81-4.62,6.93-6.41,10.69-.23.48.46.93.73.44,2-3.63,4.69-7.12,6.26-11C528.11,577.38,527.53,577.23,527.38,577.58Z"/><path class="cls-5" d="M527.93,581.2c-1.94,3-4.52,5.93-5.92,9.29-.18.42.49.69.72.32,1.91-3.08,3.87-6.17,5.74-9.29A.31.31,0,0,0,527.93,581.2Z"/><path class="cls-5" d="M529.16,583.47c-1.63,3.6-4.37,6.53-6.08,10.08a.43.43,0,0,0,.57.59.52.52,0,0,0,.27-.33c2-3.31,4.26-6.55,5.71-10.13C529.74,583.41,529.28,583.2,529.16,583.47Z"/><path class="cls-5" d="M529.34,586.85c-1.5,3.1-3.54,5.88-5.09,8.93a.44.44,0,0,0,.76.46,73.78,73.78,0,0,0,5-9C530.14,586.81,529.55,586.43,529.34,586.85Z"/><path class="cls-5" d="M530.47,589.06c-1.78,3.31-4.07,6.43-5.35,10-.17.48.61.83.82.37,1.54-3.44,3.52-6.59,5.26-9.92C531.46,589,530.73,588.57,530.47,589.06Z"/><path class="cls-5" d="M530.31,596.92c.88-1.71,1.69-3.49,2.39-5.27.2-.52-.62-.75-.82-.25-1.18,2.88-2.85,5.55-3.94,8.46a.41.41,0,0,0,.67.4C529.49,599.37,529.76,598,530.31,596.92Z"/><path class="cls-5" d="M533.55,593.78c-1.64,2.88-3.37,5.7-4.93,8.61-.26.49.5.94.73.45,1.43-3,3-5.89,4.59-8.82C534.07,593.76,533.69,593.52,533.55,593.78Z"/><path class="cls-5" d="M533.65,597c-1.3,2.29-2.61,4.6-3.75,7-.26.55.53,1,.82.49,1.22-2.33,2.39-4.7,3.64-7C534.62,596.94,533.91,596.51,533.65,597Z"/><path class="cls-5" d="M535.12,599.11a44.67,44.67,0,0,0-4,8.13c-.15.47.59.82.81.36,1.27-2.73,2.49-5.43,3.92-8.08C536,599.07,535.37,598.66,535.12,599.11Z"/><path class="cls-5" d="M535.71,602.1c-1,2.27-2.31,4.41-3.18,6.73-.18.47.55.77.79.35a55.27,55.27,0,0,0,3.2-6.84C536.73,601.83,535.92,601.61,535.71,602.1Z"/><path class="cls-5" d="M536.79,605.23a32.22,32.22,0,0,0-2.48,5.33c-.14.46.53.64.71.21.72-1.78,1.38-3.53,2.27-5.23C537.47,605.2,537,604.89,536.79,605.23Z"/><path class="cls-5" d="M537.55,609.09a23.33,23.33,0,0,0-1.19,2.77.44.44,0,0,0,.84.25,25,25,0,0,1,1.18-2.77C538.6,608.82,537.77,608.59,537.55,609.09Z"/><path class="cls-5" d="M538.47,610.84c-.21,1.29-.86,2.42-1.13,3.68-.09.39.49.71.68.3a12.12,12.12,0,0,0,1-3.89C539.1,610.6,538.52,610.51,538.47,610.84Z"/><path class="cls-5" d="M539.06,613.7c0,.65-.49,1.2-.54,1.84a.37.37,0,0,0,.68.2,4.84,4.84,0,0,0,.58-2A.36.36,0,0,0,539.06,613.7Z"/><path class="cls-5" d="M522.55,580.34a55.1,55.1,0,0,0-3.18,4.88.44.44,0,0,0,.76.46c1.12-1.57,2.09-3.27,3.16-4.89C523.6,580.32,522.86,579.88,522.55,580.34Z"/><path class="cls-5" d="M523,577.46c.25-.33-.3-.78-.56-.45a29.18,29.18,0,0,1-3.6,4.31c-.38.32.08.89.49.67C521,581.09,521.86,578.92,523,577.46Z"/><path class="cls-5" d="M520.13,577.66c.36-.3-.14-.8-.5-.52a11.7,11.7,0,0,0-1,.91c-.33.34-.69.62-1,.93s.08.8.45.6C518.91,579.14,519.43,578.25,520.13,577.66Z"/><path class="cls-5" d="M517.28,576.77l-.53.53c-.3.3.15.77.45.47l.53-.53C518,576.94,517.58,576.47,517.28,576.77Z"/><path class="cls-5" d="M533.41,619.2c-1.75-2.19-3.64-4.27-5.21-6.6-1.37-2-2.64-4.11-3.85-6.24a25.53,25.53,0,0,0-1.73-2.43c-.88-1.17-2.26-2.16-2.71-3.6a.17.17,0,0,0-.32.08c.35,2,2.15,3.55,3.22,5.18,1.61,2.43,2.93,5,4.5,7.51a68.32,68.32,0,0,0,4.42,5.77c1.71,2.13,3.22,4.4,5,6.47.51.58,1.37-.26.86-.83C536.1,622.82,534.81,621,533.41,619.2Z"/><path class="cls-5" d="M536.15,626.19c-.5-.78-1-1.56-1.54-2.33a38.16,38.16,0,0,0-4-4.32,56.67,56.67,0,0,1-4.32-5.32c-1.06-1.45-2.58-3.24-3.16-4.92a.2.2,0,0,0-.39.1c.42,1.52,1.51,2.63,2.2,4a31.6,31.6,0,0,0,3.47,5.2c1.59,2,3.61,3.77,5.12,5.86,1.08,1.48,1.72,3.39,2.93,4.73.56.63,1.52-.29.94-.92A13.74,13.74,0,0,1,536.15,626.19Z"/><path class="cls-5" d="M567.55,585.15c-2,3.28-4.47,6.3-6.58,9.54s-4.32,6.71-6.53,10c-4.51,6.8-9.48,13.2-13.18,20.51-.37.72.7,1.38,1.07.65,3.59-7.09,8.43-13.27,12.77-19.9,2.17-3.32,4.33-6.69,6.34-10.12s4.54-6.86,6.61-10.41A.29.29,0,0,0,567.55,585.15Z"/><path class="cls-5" d="M558.89,602.29c-.59,2.15-2.8,4.36-4.11,6.12-1.88,2.52-3.72,5-5.4,7.68-1.55,2.47-3,5-4.57,7.47a69.41,69.41,0,0,0-4.5,7.49.65.65,0,1,0,1.18.52c1.21-2.8,3.2-5.4,4.81-8s3.23-5.41,4.88-8.09,3.53-5.15,5.27-7.74c1-1.52,2.84-3.49,2.84-5.41A.21.21,0,0,0,558.89,602.29Z"/><path class="cls-5" d="M542.86,510c-3.88-.15-7.32-.29-11.13.66a30.25,30.25,0,0,0-9.35,4.13,21.54,21.54,0,0,0-6.39,6.81c-1.54,2.53-3.12,5.86-3.33,8.83,0,.25.39.32.44.07.57-2.9,2.33-5.79,3.84-8.32a21.09,21.09,0,0,1,6.6-6.66,28.78,28.78,0,0,1,8.51-3.63,26.81,26.81,0,0,1,5.64-.87c1.71-.09,3.44.25,5.15.25A.64.64,0,0,0,542.86,510Z"/><path class="cls-5" d="M539.69,512.38c-5-.82-10.8,1.19-15,3.79-3.26,2-7.14,6-7.44,10a.21.21,0,0,0,.4.06c1.1-4,4.69-7.31,8.13-9.36a25,25,0,0,1,6.76-2.69c2.34-.58,4.74-.43,7.08-.86A.49.49,0,0,0,539.69,512.38Z"/><path class="cls-5" d="M535.34,516a23.13,23.13,0,0,0-8.41,2.59c-2,1-4.25,2.5-4.68,4.84a.29.29,0,0,0,.55.16c.59-2.08,2.82-3.22,4.65-4.09a21.89,21.89,0,0,1,7.86-2.2C536.15,517.27,536.16,516,535.34,516Z"/><path class="cls-5" d="M511.07,498.76a38.22,38.22,0,0,1,20.73-8.53,58,58,0,0,1,12.43-.1,50.36,50.36,0,0,1,6.3,1.32c1.6.39,3.67.79,5,1.79.71.53,1.43-.65.72-1.17a12.85,12.85,0,0,0-3.93-1.55,46.42,46.42,0,0,0-21.26-1.38,39.87,39.87,0,0,0-11.4,3.07c-3.2,1.39-6.88,3.38-9,6.26C510.54,498.7,510.87,498.92,511.07,498.76Z"/><path class="cls-5" d="M518.6,490.41c4.46-1.18,8.58-2.57,13.22-3.05a48.26,48.26,0,0,1,14.43,1c.71.14,1-.93.32-1.1a40.77,40.77,0,0,0-14-.91,45.25,45.25,0,0,0-6.63,1.13c-2.54.66-4.92,1.87-7.4,2.7C518.36,490.2,518.42,490.46,518.6,490.41Z"/><path class="cls-5" d="M526,485.71a48,48,0,0,1,6.66-.74c1.94,0,3.92-.51,5.8.2.71.26,1-.89.33-1.13-2-.69-4-.1-6.12-.06a25.37,25.37,0,0,0-6.77,1.36A.19.19,0,0,0,526,485.71Z"/><path class="cls-5" d="M494.8,551c-.35-2.19-1.17-4.24-1.39-6.47-.42-4.18-1.05-8.48-.58-12.68,0-.16-.24-.2-.28,0-1.17,4.42-.62,8.91-.26,13.4.17,2.09,1,4,1.34,6.09.27,1.5.37,3.07,1.3,4.35.45.63,1.53,0,1.06-.6A9.16,9.16,0,0,1,494.8,551Z"/><path class="cls-5" d="M501.47,551.24A65.45,65.45,0,0,1,500,541.9a.35.35,0,0,0-.69,0,44.14,44.14,0,0,0,.93,9.66c.44,2.25.74,4.55,2.24,6.38.39.49,1.06-.18.69-.66C501.93,555.64,501.86,553.2,501.47,551.24Z"/><path class="cls-7" d="M318.26,403.05h9.27a9.75,9.75,0,0,0,9.75-9.75V345A9.75,9.75,0,0,1,347,335.2h54a9.75,9.75,0,0,0,9.75-9.75h0A9.74,9.74,0,0,0,401,315.7H318.26"/><path class="cls-8" d="M405.62,756.91v-9.27a9.76,9.76,0,0,0-9.75-9.75H347.51a9.75,9.75,0,0,1-9.75-9.75v-54A9.74,9.74,0,0,0,328,664.4h0a9.75,9.75,0,0,0-9.75,9.75v82.76"/><path class="cls-9" d="M757.74,667h-9.27a9.75,9.75,0,0,0-9.75,9.75v48.35a9.75,9.75,0,0,1-9.75,9.75H675a9.75,9.75,0,0,0-9.75,9.75h0a9.74,9.74,0,0,0,9.75,9.75h82.76"/><path class="cls-10" d="M670.38,315.7V325a9.76,9.76,0,0,0,9.75,9.75h48.36a9.75,9.75,0,0,1,9.75,9.75v54a9.74,9.74,0,0,0,9.75,9.75h0a9.75,9.75,0,0,0,9.75-9.75V315.7"/><path class="cls-11" d="M171.67,982.33l-4.1,5.69-6-1.37a33.33,33.33,0,0,0-6.77,1.05,33.84,33.84,0,0,1-6.91,1,17.55,17.55,0,0,1-11.23-3.53,12.38,12.38,0,0,1-5-10.37q0-5.25,4.61-12.67,4.45-7.2,9.14-10l-2.8-3.16q0-2.75,3.45-5.91c2.31-2.11,4.39-3.17,6.27-3.17a9.29,9.29,0,0,1,5.4,1.59,5.68,5.68,0,0,1,2.66,4.82,7.31,7.31,0,0,1-1.3,3.64,7.43,7.43,0,0,0-1.29,2.91c0,.87.58,1.64,1.76,2.31a7.54,7.54,0,0,0,3.78,1h2.88l-1.87,7.2h-3a10.74,10.74,0,0,1-6.41-2,17.89,17.89,0,0,1-3.67-3.74c-1-1.4-1.61-2.09-1.8-2.09a66.55,66.55,0,0,0-8.43,5.76q-4.32,4-4.32,8.71a9.4,9.4,0,0,0,4.18,8.35,16,16,0,0,0,9.29,2.45,40.69,40.69,0,0,0,7.16-.94,41.41,41.41,0,0,1,7.17-.93,15.8,15.8,0,0,1,3.52.5c2.26.58,3.43.89,3.53.94Z"/><path class="cls-11" d="M185.78,946a8,8,0,0,1-.57,3.32q-4.11,8.85-7.74,11.44t-11.85,2.6h-4q1.31-3.75,2.88-7.2c4.66,0,7.56-.08,8.71-.22a17,17,0,0,0,7.92-3l.07-1.08a6,6,0,0,0-1.15-3.67,6.42,6.42,0,0,1-3.38,1.15q-4.68,0-4.68-3.46c0-1.58.77-3.53,2.3-5.83,1.63-2.54,3.17-3.82,4.61-3.82q2.67,0,4.9,3.68A11.59,11.59,0,0,1,185.78,946Zm.51-27.72a29.49,29.49,0,0,1-2.16,5.19q-1.31,2.65-11.09,2.66a7.77,7.77,0,0,1-4.25-1,27,27,0,0,1,3.38-7.41,49.77,49.77,0,0,0,6.48.43,16.25,16.25,0,0,0,4.22-.72,22.19,22.19,0,0,1,2.91-.72l.51.14Z"/><path class="cls-11" d="M232.44,956.2l-2.16,7.2h-2.95c-1.25,0-2.76,1.19-4.54,3.6-2.78,3.69-4.51,5.88-5.18,6.55a11,11,0,0,1-7.92,3.6q-10.51,0-12.82.21-9,.95-11.88,4.9h-1.51l-.29-.79q0-8,9.5-10.66,5-1.37,15.77-1.37a25.68,25.68,0,0,0,6.55-.79q4.4-1.08,4.4-3.45c0-1-.94-1.66-2.81-2-3.22-.53-5-.84-5.33-.93a4.06,4.06,0,0,1-2.81-4.11q0-1.87,3.21-6.3c2.13-2.95,3.78-4.43,4.93-4.43q4.76,0,8.64,8.72Z"/><path class="cls-11" d="M254.25,951.08q0,7.78-8.2,10.59-4.91,1.73-14.48,1.73h-3a43.36,43.36,0,0,1,1.73-7.2h3.89a15.61,15.61,0,0,0,5-.72q1.29-2.16,2.59-4.32a10.6,10.6,0,0,0,1.29-4.83q0-4.17-2.7-12.45t-2.7-12.68q0-8.49,7.42-13.6l.29.57c-1.25.48-1.87,2.79-1.87,6.91q0,4.54,2.59,13t2.59,12.85a13.33,13.33,0,0,1-1.66,6.05l4.47.86Q254.25,948.64,254.25,951.08Z"/><path class="cls-11" d="M271.32,948.42q0,10.08-7.49,15.41L263,963a32.35,32.35,0,0,0,1.76-5.8,20.94,20.94,0,0,0,.83-5.58q-1.29-7.56-2.52-15.12a94.42,94.42,0,0,1-1.58-15.12q0-7.41,8.2-13a1.17,1.17,0,0,1,.08.5,21.14,21.14,0,0,1-.72,4,20.4,20.4,0,0,0-.72,4.57,119.28,119.28,0,0,0,1.47,15.52A119.45,119.45,0,0,1,271.32,948.42Z"/><path class="cls-11" d="M332.16,982.33,328.05,988l-6-1.37a33.23,33.23,0,0,0-6.77,1.05,34,34,0,0,1-6.91,1,17.58,17.58,0,0,1-11.24-3.53,12.37,12.37,0,0,1-5-10.37q0-5.25,4.6-12.67,4.47-7.2,9.15-10L303.14,949q0-2.75,3.46-5.91t6.26-3.17a9.29,9.29,0,0,1,5.4,1.59,5.65,5.65,0,0,1,2.66,4.82,7.38,7.38,0,0,1-1.29,3.64,7.35,7.35,0,0,0-1.3,2.91q0,1.3,1.77,2.31a7.49,7.49,0,0,0,3.78,1h2.88l-1.88,7.2h-2.95a10.76,10.76,0,0,1-6.41-2,18.14,18.14,0,0,1-3.67-3.74c-1-1.4-1.61-2.09-1.8-2.09a67,67,0,0,0-8.42,5.76q-4.32,4-4.32,8.71a9.41,9.41,0,0,0,4.17,8.35,16,16,0,0,0,9.29,2.45,40.78,40.78,0,0,0,7.17-.94,41.43,41.43,0,0,1,7.16-.93,15.8,15.8,0,0,1,3.53.5c2.25.58,3.43.89,3.53.94Z"/><path class="cls-11" d="M353.76,947.12a7.83,7.83,0,0,1-1,3c-.91,1.77-1.42,2.76-1.51,2.95q-3.9,10.37-23.33,10.37h-5.62a37.51,37.51,0,0,1,2.67-7.2q6.33,0,7.41-.08,5.83-.36,5.83-1.8c0-2.2,1.11-4.63,3.32-7.27q3.45-4.24,6.62-4.25a6.76,6.76,0,0,1,3.82,1A3.82,3.82,0,0,1,353.76,947.12Z"/><path class="cls-11" d="M422.3,956.2c-.63,1.77-1.08,3-1.37,3.74a17,17,0,0,1-1.87,3.46h-5.62c-3,0-5-.82-6.19-2.45q-1.37-1.87-1.37-5.76,0-1.16.15-3.57c.09-1.6.14-2.77.14-3.49q0-6.25-9.22-6.26A36.25,36.25,0,0,0,387,943.6q-7.42,2-7.42,4.82c0,1.1.94,1.66,2.81,1.66a29.08,29.08,0,0,0,7.31-1.41,29.47,29.47,0,0,1,7.45-1.4A9,9,0,0,1,403,949a77.34,77.34,0,0,1-4.32,6.91,7.88,7.88,0,0,0-3.31-1.15,31.82,31.82,0,0,0-8.14,1.51,31.49,31.49,0,0,1-7.84,1.51,5.12,5.12,0,0,1-3.53-1.22,4.24,4.24,0,0,1-1.37-3.32q0-8.93,9.14-14.18a34,34,0,0,1,17.28-4.39,15,15,0,0,1,7,1.44,6.13,6.13,0,0,1,3.53,5.76,24.45,24.45,0,0,1-.47,3.89,24.23,24.23,0,0,0-.47,3.88q0,5.83,6.41,6.56ZM405,918.54a29.93,29.93,0,0,1-2.16,5.18q-1.31,2.67-11.09,2.67a7.86,7.86,0,0,1-4.25-1,27.28,27.28,0,0,1,3.39-7.42,49.57,49.57,0,0,0,6.48.44,16.26,16.26,0,0,0,4.21-.72,22.19,22.19,0,0,1,2.91-.72l.51.14Z"/><path class="cls-11" d="M449.8,956.2c-.33,1.24-.67,2.47-1,3.67a9.58,9.58,0,0,1-1.72,3.53h-2.6q-2.52,0-5.86-2.43c-2.24-1.61-3.52-3.21-3.86-4.77q-3.6,7.2-14.11,7.2h-4.25q2-7.2,2.67-7.2a41,41,0,0,0,8.49-.8q6.12-1.29,6.77-4.32,3.17-13.61,3.17-23a39.15,39.15,0,0,0-3.1-14.62q1.51-2.16,4.83-6.19,3.6,4.4,3.6,15.62a66.84,66.84,0,0,1-1.62,12.24,66.44,66.44,0,0,0-1.62,12,9.84,9.84,0,0,0,2.23,6.23,6.55,6.55,0,0,0,5.26,2.85Z"/><path class="cls-11" d="M479.39,956.2q-1,4.09-2,7.2h-4.32a8.53,8.53,0,0,1-6.55-2.81q-2.1-2.67-4.18-5.4-1.72,2.09-3.42,4.17a10.81,10.81,0,0,1-3.42,3,12.88,12.88,0,0,1-5.62,1.08h-5c.38-1.34,1.1-3.83,2.16-7.49h3.45q8.07,0,9.94-3.24,1.21-2.24,1.22-12.31a37.8,37.8,0,0,0-2-10.8,49.16,49.16,0,0,1-2-7.42q3.11-4.11,5-6.19,1.37,1.44,3.24,8.71a44.88,44.88,0,0,1,1.8,9.5,38.47,38.47,0,0,1-.5,5,37.47,37.47,0,0,0-.51,5,14.49,14.49,0,0,0,2.39,8.61,7.75,7.75,0,0,0,6.67,3.35Zm6.12-57.53q0,8-13,13.61a50.73,50.73,0,0,1-20.08,4.6,16.92,16.92,0,0,1-1.91-.14,17.07,17.07,0,0,0-1.91-.14l-.29-.8,2.16-7h.94a50.25,50.25,0,0,0,17.78-2.81q5.68-2.16,16-8.42A2.28,2.28,0,0,1,485.51,898.67Z"/><path class="cls-11" d="M497.75,956.2q-1,5-2.73,7.2h-8.64a3.91,3.91,0,0,1-.72-1.44,22.41,22.41,0,0,1-7.49,1.44h-3.1a45.37,45.37,0,0,1,2.24-7.06,35.09,35.09,0,0,0,8.56-.72,10.43,10.43,0,0,0,7.78-7.42c.86.34,1.3.58,1.3.72a16.33,16.33,0,0,1-1.66,3.17c-.67,1.15-1.37,2.31-2.09,3.46a9.07,9.07,0,0,0,3.89.65Z"/><path class="cls-11" d="M519.28,956.2q-.72,2.37-2,7.2H511c-1.29,0-2.06-.44-2.3-1.3a25.65,25.65,0,0,1-9.08,1.66l-.28-.94a5.53,5.53,0,0,0-1.77.32,4.88,4.88,0,0,1-1.9.26h-2.74a22.67,22.67,0,0,1,2.09-7.2,16.65,16.65,0,0,0,3.74-.29,20.7,20.7,0,0,0,3.39-1.3,6,6,0,0,0,2.48-2.63,7.25,7.25,0,0,1,2.34-2.7v1.33a11.85,11.85,0,0,1-1.15,2.57c-.82,1.67-1.28,2.62-1.37,2.87s.26.15.65.15a9.07,9.07,0,0,0,6.26-2.06q2.24-2.43,4.39-4.86a.86.86,0,0,1,.36.8,6.9,6.9,0,0,1-1.08,2.3,5.66,5.66,0,0,0-1,3l.83.44a2.56,2.56,0,0,0,1,.36Zm-2.66-31.11q0,.79-2,3.75c-1.32,2-2.18,2.95-2.56,2.95a13.68,13.68,0,0,1-1.62-2.49,4.34,4.34,0,0,0-3.78-2.48,5.92,5.92,0,0,0-4.46,2.23,24,24,0,0,0-3.24,4.83,26.63,26.63,0,0,1-2.81,4.39c-.58-.19-.86-.48-.86-.87q0-4,5.54-10.87t9.43-6.91a6.75,6.75,0,0,1,4.21,1.69A4.83,4.83,0,0,1,516.62,925.09Z"/><path class="cls-11" d="M559.46,956.2q-.87,2.73-2.74,7.2h-2q-5.69,0-8.13-2.67-2.31-2.44-2.31-7.85a4.2,4.2,0,0,0-4.46-4.46q-3.09,0-6.48,3a13,13,0,0,1,5.33,1.08q2.16,1.31,2.16,4.9a8.85,8.85,0,0,1-2.52,6.37,8.26,8.26,0,0,1-6.19,2.63c-1.88,0-3.17-.41-3.89-1.22-.67-1.16-1.35-2.31-2-3.46l-3.92,1.12a15.84,15.84,0,0,1-4.21.54h-2.81a73.86,73.86,0,0,1,2-7.2,27.36,27.36,0,0,0,5-.69,14.23,14.23,0,0,0,10.11-6.23,67.7,67.7,0,0,1,4.54-5.4,10.41,10.41,0,0,1,6.84-2.44,4.82,4.82,0,0,1,5.11,3.81c.43,2.35.87,4.73,1.3,7.13.81,2.54,2.71,3.82,5.69,3.82Z"/><path class="cls-11" d="M587.46,956.2c-.33,1.24-.67,2.47-1,3.67a9.73,9.73,0,0,1-1.73,3.53h-2.6q-2.52,0-5.86-2.43c-2.23-1.61-3.52-3.21-3.85-4.77q-3.61,7.2-14.12,7.2h-4.25q2-7.2,2.67-7.2a41,41,0,0,0,8.49-.8q6.12-1.29,6.77-4.32,3.16-13.61,3.17-23a39.15,39.15,0,0,0-3.1-14.62q1.51-2.16,4.83-6.19,3.6,4.4,3.6,15.62a66.84,66.84,0,0,1-1.62,12.24,66.44,66.44,0,0,0-1.62,12,9.84,9.84,0,0,0,2.23,6.23,6.55,6.55,0,0,0,5.26,2.85Z"/><path class="cls-11" d="M604.89,945.9q0,4.83-4,10.87-4.32,6.63-8.79,6.63H581.56a35.67,35.67,0,0,1,3.24-7.2,73.39,73.39,0,0,0,8.57-.29q6.12-.87,6.12-4.39,0-4.9-3.39-14.8t-3.38-15.16a13.4,13.4,0,0,1,1.8-7.12c1.53-1.92,3.05-3.82,4.53-5.69l1.16.86q-1.66,1.8-1.66,7.42,0,5,3.17,14.54T604.89,945.9Z"/><path class="cls-11" d="M652.84,944.89c0,3.75-1.56,7.87-4.68,12.39q-5,7.26-10.37,7.27a7.92,7.92,0,0,1-5.18-2,6,6,0,0,1-2.38-4.72q0-2.37,2.38-6.05.5-.72,4.1-5.32l-5-.87q-3.6-.79-3.6-3c0-.38.68-1.51,2-3.38s2.22-2.81,2.56-2.81.43.19.72.57l.72.8a6.55,6.55,0,0,0,2.45,1,12.88,12.88,0,0,0,2.88.47,18.65,18.65,0,0,0,3.34-.47,19,19,0,0,1,3.42-.47,6.39,6.39,0,0,1,4.58,2A6.23,6.23,0,0,1,652.84,944.89ZM651,916.09a32.28,32.28,0,0,1-2.16,5.11q-1.3,2.67-11.09,2.67a7.86,7.86,0,0,1-4.25-1,29.82,29.82,0,0,1,3.31-7.42,43,43,0,0,0,6.55.51,15.35,15.35,0,0,0,4.22-.76,24.58,24.58,0,0,1,2.84-.75l.58.14Zm-3,34.78a4.68,4.68,0,0,0-1.83-3.75,6.41,6.41,0,0,0-4.14-1.51,7.28,7.28,0,0,0-1.3.15c-.67.09-1.1.14-1.3.14l-2.3,3.31a7.49,7.49,0,0,0-1.51,3.39,3.78,3.78,0,0,0,1.73,3.24,6.38,6.38,0,0,0,3.74,1.22,7.32,7.32,0,0,0,4.86-1.73A5.55,5.55,0,0,0,647.94,950.87Z"/><path class="cls-11" d="M695.75,947.27a5,5,0,0,1-.58,1.44c-.43,1-.69,1.58-.79,1.87a15.65,15.65,0,0,1-6.91,8.64,35.18,35.18,0,0,1-9.58,3.24,45.8,45.8,0,0,0-9.57,2.74,34.41,34.41,0,0,0-10.59,7.34c-1,1.15-1.72,1.7-2.16,1.66-.19,0-.28-.27-.28-.8a18.78,18.78,0,0,1,.57-3.52c.24-1,.48-2,.72-3,.72-.86,1.47-1.72,2.23-2.59a25.91,25.91,0,0,1,3.82-2.81,48.36,48.36,0,0,1,13.54-6.12q5.18-1.21,10.36-2.52,6.27-2,8.28-6.4C695.44,946.48,695.75,946.74,695.75,947.27Z"/><path class="cls-11" d="M741.18,956.2,739,963.4h-2.95c-1.25,0-2.76,1.19-4.54,3.6-2.78,3.69-4.51,5.88-5.18,6.55a11,11,0,0,1-7.92,3.6q-10.51,0-12.82.21-9,.95-11.88,4.9h-1.51l-.29-.79q0-8,9.51-10.66,5-1.37,15.77-1.37a25.73,25.73,0,0,0,6.55-.79q4.4-1.08,4.39-3.45c0-1-.94-1.66-2.81-2q-4.82-.79-5.33-.93a4,4,0,0,1-2.8-4.11c0-1.25,1.06-3.35,3.2-6.3s3.78-4.43,4.93-4.43q4.75,0,8.64,8.72Z"/><path class="cls-11" d="M759.4,956.2q-1,5-2.74,7.2H748a3.91,3.91,0,0,1-.72-1.44,22.36,22.36,0,0,1-7.49,1.44h-3.09a45,45,0,0,1,2.23-7.06,35.19,35.19,0,0,0,8.57-.72,10.43,10.43,0,0,0,7.77-7.42c.87.34,1.3.58,1.3.72a15.68,15.68,0,0,1-1.66,3.17c-.67,1.15-1.36,2.31-2.08,3.46a9,9,0,0,0,3.88.65Z"/><path class="cls-11" d="M787.48,942.16a9.45,9.45,0,0,1-.87,4q-3.52,8.35-8.49,11.88a21.44,21.44,0,0,1-8.39,3.13q-5.29,1-7.09,2.41-.79.64-2.38,5.76c-1.06,3.41-2,5.52-2.81,6.34l-.57-.07-.72-1.44a46,46,0,0,1,2.8-9.8,4.26,4.26,0,0,1-.72-.72,1.06,1.06,0,0,0-.79-.28h-3.6q.87-2.6,2.88-7.2h1.15a24.32,24.32,0,0,0,4.4-.36A51.93,51.93,0,0,1,770,944q6-6.78,11.59-6.77a6.56,6.56,0,0,1,4.07,1.4A4.34,4.34,0,0,1,787.48,942.16Zm-4.68,5.4q0-2.23-5.19-2.24c-1.82,0-4,1.25-6.55,3.75a26.5,26.5,0,0,0-4.9,6.26h1c1.59,0,4.51-1,8.79-2.88Q782.8,949.36,782.8,947.56Z"/><path class="cls-11" d="M849,956.2q-1.87,7.2-2.31,7.2-1,0-7.56.25c-4.37.16-7,.25-8.06.25q-5.76,0-8.57-4.25c-1.15.34-2.3.7-3.46,1.08a13,13,0,0,1-3.6.58,9.57,9.57,0,0,1-6.33-2.16,7.19,7.19,0,0,1-2.81-5.91,12.75,12.75,0,0,1,1.3-5.18l2.59-4.75-.58,3.38a5.91,5.91,0,0,0,2.23,4.83,8.24,8.24,0,0,0,5.33,1.8q3.46,0,4.54-2a12.85,12.85,0,0,0,.72-5.18,120.51,120.51,0,0,0-.94-13.54q-.79-6.76-1.65-13.53a9.12,9.12,0,0,1,1.58-6l3.89-4.9h1.08l.21,1-1.15,5a91.71,91.71,0,0,0,1.23,12.6A115.29,115.29,0,0,1,828,939.56c2.54-3.16,4-4.94,4.32-5.32,2-2.07,3.91-3.1,5.69-3.1a6.49,6.49,0,0,1,3.6,1.26,3.54,3.54,0,0,1,1.87,2.92q0,4.81-4.82,11.08a38.78,38.78,0,0,1-8.93,8.5,10,10,0,0,0,4.82,1.3Zm-10.23-15.27c0-.48-.5-.95-1.51-1.4a6.25,6.25,0,0,0-2.3-.69c-1.83,0-3.78,1.26-5.87,3.78s-3.13,4.7-3.13,6.52a2.82,2.82,0,0,0,.28,1.37Q838.82,943.23,838.81,940.93Z"/><path class="cls-11" d="M880.14,956.2a28.29,28.29,0,0,1-1.51,4.75c-.58,1.53-.87,2.35-.87,2.45h-5.11a27,27,0,0,1-5.11-1,26.83,26.83,0,0,0-5.26-1,33.25,33.25,0,0,0-6.51,1,32.85,32.85,0,0,1-6.81,1h-5.18a.64.64,0,0,1-.22-.58,10,10,0,0,1,1.44-3.76,20,20,0,0,1,1.8-2.89q-.28,0,10.3-.72.43-4,3.89-9.89,4-6.57,7.41-6.57a3.89,3.89,0,0,1,3.39,2.09,7.47,7.47,0,0,1,1.15,4q0,4.2-3.53,9v.94q1.08,1.38,4.82,1.09Zm-5.26-38.31q0,4.68-2.8,7.06a11.38,11.38,0,0,1-7.57,2.37h-2.08a6.09,6.09,0,0,1-4.11-1.65,43.19,43.19,0,0,1,2.88-7.42,26.42,26.42,0,0,0,5.19.87,12,12,0,0,0,7.2-2.09h1.08A1.26,1.26,0,0,1,874.88,917.89Zm-6.62,32.76a4.72,4.72,0,0,0-.79-2.63,2.42,2.42,0,0,0-2.09-1.18A3.73,3.73,0,0,0,863,948a3.12,3.12,0,0,0-1.26,2.27c0,.34.46,1,1.4,2s1.6,1.55,2,1.55a3,3,0,0,0,2.2-1A3.1,3.1,0,0,0,868.26,950.65Z"/><path class="cls-11" d="M907.28,956.2q-3,7.2-4.68,7.2H891.3c-2.07,0-3.34-.39-3.82-1.16l-4.32.76a24.41,24.41,0,0,1-4.17.4h-4.61q1.36-3.18,3.31-7.2h5.4c3.74,0,6.34-.29,7.78-.87a6.16,6.16,0,0,0,2.59-2.45,13.57,13.57,0,0,1,3.53-3.52v1.08l-2.81,5.32c.24.29,1.13.44,2.66.44Zm-4.61-30.82a29.93,29.93,0,0,1-2.16,5.18q-1.29,2.67-11.08,2.67a7.84,7.84,0,0,1-4.25-1,27.23,27.23,0,0,1,3.38-7.42,49.81,49.81,0,0,0,6.48.44,16.12,16.12,0,0,0,4.21-.72,22.54,22.54,0,0,1,2.92-.72l.5.14Z"/><path class="cls-11" d="M922.76,945.9q0,4.83-4,10.87-4.32,6.63-8.78,6.63H899.43a36.86,36.86,0,0,1,3.24-7.2,73.26,73.26,0,0,0,8.57-.29q6.12-.87,6.12-4.39,0-4.9-3.38-14.8t-3.39-15.16a13.4,13.4,0,0,1,1.8-7.12q2.31-2.88,4.54-5.69l1.15.86q-1.65,1.8-1.65,7.42,0,5,3.16,14.54T922.76,945.9Z"/><path class="cls-11" d="M942.13,948.42q0,10.08-7.49,15.41l-.79-.79a31.53,31.53,0,0,0,1.76-5.8,20.94,20.94,0,0,0,.83-5.58q-1.29-7.56-2.52-15.12a95.6,95.6,0,0,1-1.58-15.12q0-7.41,8.21-13a1.4,1.4,0,0,1,.07.5,20.33,20.33,0,0,1-.72,4,20.4,20.4,0,0,0-.72,4.57,119.28,119.28,0,0,0,1.47,15.52A117.64,117.64,0,0,1,942.13,948.42Z"/></g></svg>