<svg id="Layer_1" data-name="Layer 1" xmlns="http://www.w3.org/2000/svg" xmlns:xlink="http://www.w3.org/1999/xlink" viewBox="0 0 1076 1891.09"><defs><linearGradient id="linear-gradient" x1="0.39" y1="944.45" x2="1076" y2="944.45" gradientUnits="userSpaceOnUse"><stop offset="0" stop-color="#1eb8e6"/><stop offset="1" stop-color="#302e80"/></linearGradient></defs><rect y="1.09" width="1076" height="1890" fill="#f2f0f2"/><path d="M.39,1141.89C157,918.7,317.36,780.86,437,695.45c235.39-168,436-220.7,556.09-447.32C1065.74,111.09,1076-14.15,1076,0V1890H.39Z" transform="translate(0 1.09)" fill="url(#linear-gradient)"/><path d="M330.15,383.4q0,17.1-12.69,26.4-11.31,8.31-29,8.3a36.37,36.37,0,0,1-15.31-2.9Q265,411.3,265,403.4q0-13.29,12.39-24.3,11.91-10.59,25.4-11c.81,1.2,1.5,3.77,2.1,7.7a71,71,0,0,1,.61,8.4q0,3.41-4.9,10.1a27.26,27.26,0,0,1-6.85.85,29,29,0,0,0-6.65.75,10.58,10.58,0,0,0-5.71,3.7l-1.5-1.4q3.51-8,5.9-9.9t10.81-3.3l.79-.8c-.06-1-.16-2-.29-3a4.2,4.2,0,0,0-.91-2.7h-1q-5-.09-14.3,5.9-9.8,6.3-9.79,11,0,12,25.5,12a38,38,0,0,0,16.69-3.7q9.4-4.59,9.4-12.4,0-5.1-3-15.1t-3-15.2q0-6.39,7.69-13.3a13.54,13.54,0,0,1,.21,4.2q-.21,4.31-.21,4.2,0,4.5,3,13.55T330.15,383.4Zm21.41-59.5q0,9.3-15.31,17.6-13.59,7.5-23.9,7.5a13.35,13.35,0,0,1-2-.2,14.64,14.64,0,0,1-1.79-.35c-.34-.1-.5-.41-.5-.95s1.23-3.76,3.69-9.9a13.8,13.8,0,0,0,3.21.3,35.11,35.11,0,0,0,15.5-3.3,70.34,70.34,0,0,0,10.6-7.2,45,45,0,0,1,10.5-6.6Z" transform="translate(0 1.09)" fill="#2a2a63"/><path d="M400.65,406.5a27.91,27.91,0,0,1-3.9,10h-4.2q-8.79,0-14.2,5.8-3.9,5.4-7.8,10.9-4.69,5.81-11.5,5.8-10.29,0-12.4.2-8,.9-11.2,4.6H334l-.4-1.19q0-9.84,9.1-12.92,4.91-1.59,17.2-1.59,5.61,0,10.8-5.62,4.2-5.22,8.3-10.35,4.91-5.62,9.7-5.63Z" transform="translate(0 1.09)" fill="#2a2a63"/><path d="M428.85,393.6a13.24,13.24,0,0,1-1.2,5.8c-1,1.67-2,3.34-2.9,5q-6.5,12.11-21.4,12.1h-11.8q2-4.29,4.9-10h10.1q9.4,0,14.6-3.5v-1.3a14.68,14.68,0,0,0-2.55-8.15A29.71,29.71,0,0,1,416,388.9q5.4-8.4,6.6-8.4,1.6,0,3.95,5.55T428.85,393.6Zm-6.3,36a25.94,25.94,0,0,1-1.9,5.85q-2,4.53-3.1,4.53a20.36,20.36,0,0,1-3.2-.95,15.39,15.39,0,0,0-4.8-.95,21.27,21.27,0,0,0-6.4,1.2,39.94,39.94,0,0,1-6,1.6q1.61-8.06,3.35-9.87t9.55-3.62a5.39,5.39,0,0,1,1.7-.21A24.93,24.93,0,0,1,422.55,429.62Z" transform="translate(0 1.09)" fill="#2a2a63"/><path d="M492.25,406.5a27.91,27.91,0,0,1-3.9,10h-4.2q-8.79,0-14.2,5.8-3.9,5.4-7.8,10.9-4.69,5.81-11.5,5.8-10.29,0-12.4.2-8,.9-11.2,4.6h-1.5l-.4-1.19q0-9.84,9.1-12.92,4.9-1.59,17.2-1.59,5.61,0,10.8-5.62,4.2-5.22,8.3-10.35,4.9-5.62,9.7-5.63Z" transform="translate(0 1.09)" fill="#2a2a63"/><path d="M534.25,406.5a38.49,38.49,0,0,1-2.1,6.6c-.8,2.14-1.2,3.27-1.2,3.4h-7.1a37.51,37.51,0,0,1-7.1-1.45,37.43,37.43,0,0,0-7.3-1.45,46.18,46.18,0,0,0-9.05,1.45A45.7,45.7,0,0,1,491,416.5h-7.2a.9.9,0,0,1-.3-.8q0-1.5,2-5.21a27.77,27.77,0,0,1,2.5-4q-.39,0,14.3-1,.6-5.61,5.4-13.74,5.5-9.12,10.3-9.13a5.39,5.39,0,0,1,4.7,2.92,10.21,10.21,0,0,1,1.6,5.62q0,5.82-4.9,12.55V405q1.5,1.9,6.7,1.5ZM527,353.3q0,6.51-3.9,9.8t-10.5,3.3h-2.9a8.4,8.4,0,0,1-5.7-2.3,59.49,59.49,0,0,1,4-10.3,36.87,36.87,0,0,0,7.2,1.2,16.55,16.55,0,0,0,10-2.9h1.5A1.74,1.74,0,0,1,527,353.3Zm-9.2,45.5a6.47,6.47,0,0,0-1.1-3.65,3.34,3.34,0,0,0-2.9-1.65,5.22,5.22,0,0,0-3.35,1.55,4.34,4.34,0,0,0-1.75,3.15q0,.71,2,2.85c1.3,1.44,2.22,2.15,2.75,2.15a4.12,4.12,0,0,0,3-1.4A4.26,4.26,0,0,0,517.75,398.8Z" transform="translate(0 1.09)" fill="#2a2a63"/><path d="M559.45,393.6a13.24,13.24,0,0,1-1.2,5.8q-1.5,2.5-2.9,5-6.5,12.11-21.4,12.1h-7.8q2-4.29,4.9-10,7.91,0,10.6-.3a22.71,22.71,0,0,0,10.1-3.2v-1.3a14.68,14.68,0,0,0-2.55-8.15,28.73,28.73,0,0,1-2.65-4.65q5.4-8.4,6.6-8.4c1.07,0,2.38,1.85,4,5.55S559.45,392.27,559.45,393.6Zm0-40q0,6.81-4.56,10.3-4.08,3.21-11,3.2a31.76,31.76,0,0,1-9.52-1.7q1.39-3.5,4.27-10.3a39.05,39.05,0,0,0,7,.6,30.39,30.39,0,0,0,7-.6,49.45,49.45,0,0,0,6.44-2.6A1.29,1.29,0,0,1,559.45,353.6Z" transform="translate(0 1.09)" fill="#2a2a63"/><path d="M673.85,406.5c-.4,1.47-.82,2.95-1.25,4.45a20.24,20.24,0,0,1-3,5.55h-2.9a15.88,15.88,0,0,1-6.9-1.3,24.11,24.11,0,0,1-5.5-4.3q-4.61,11.21-20.4,16.9a79.24,79.24,0,0,1-27.2,4.5,22.57,22.57,0,0,1-13.3-4.3q-6.8-4.8-6.8-11.6a16.11,16.11,0,0,1,1.3-5.3c.66-1.8,1.36-3.56,2.1-5.3q3.3-9.39,11.3-12.7,3.6-1.5,15.7-3,10.31-1.2,15.6-4.9Q631.24,395.7,621,399q-.8.21-18.5,2.7-9.71,1.31-9.7,7.1,0,6.6,7.4,10.1a30.51,30.51,0,0,0,13.2,2.7A66.15,66.15,0,0,0,635,418q14-4.89,14-13.6,0-8.89-2.45-26.55t-2.45-26.35a9.33,9.33,0,0,1,3-6.5q.19-.19,5.7-4.9a143.13,143.13,0,0,1,1.4,18.1q.5,15,1,20.3,1.1,11.1,4.1,17.3a33.07,33.07,0,0,0,4,6.3c2.33,2.94,4.46,4.4,6.4,4.4Z" transform="translate(0 1.09)" fill="#2a2a63"/><path d="M698.05,406.5q-1.41,7-3.8,10h-12a5.25,5.25,0,0,1-1-2,30.93,30.93,0,0,1-10.4,2h-4.3a63.49,63.49,0,0,1,3.1-9.8q8.4,0,11.9-1,8.4-2.29,10.8-10.3c1.2.47,1.8.8,1.8,1s-.77,1.8-2.3,4.4c-.94,1.6-1.9,3.2-2.9,4.8a12.53,12.53,0,0,0,5.4.9Z" transform="translate(0 1.09)" fill="#2a2a63"/><path d="M727,395.8q-.21,5.51-6.1,14.8-3.71,5.91-15.2,5.9a4.13,4.13,0,0,1-2.6-.7v-.3a23,23,0,0,0-3.8.5,22.86,22.86,0,0,1-4.2.5H691c-.6,0-.9-.36-.9-1.1q0-1.59,1.9-5.1a18.62,18.62,0,0,1,2.4-3.8h4.9a9.73,9.73,0,0,0,8.25-3.75q2.85-3.75,5.55-7.75a1.29,1.29,0,0,1,.5,1.2,23.85,23.85,0,0,1-1.35,4.5q-1.35,3.81-1.85,4.9a4.22,4.22,0,0,0,1.4.2c3.66,0,6.5-.76,8.5-2.3a16.23,16.23,0,0,0,3.4-4.6Q725.24,396.2,727,395.8Z" transform="translate(0 1.09)" fill="#2a2a63"/><path d="M785.85,394.1a7,7,0,0,1-.8,2c-.6,1.34-1,2.2-1.1,2.6a21.86,21.86,0,0,1-9.6,12q-4.3,2.51-13.3,4.5-9.6,2-13.3,3.8-9.71,4.71-14.7,10.2c-1.4,1.6-2.4,2.37-3,2.3-.27,0-.4-.36-.4-1.1a25.6,25.6,0,0,1,.8-4.9c.33-1.4.66-2.76,1-4.1q1.5-1.8,3.1-3.6a35.22,35.22,0,0,1,5.3-3.9,67.35,67.35,0,0,1,18.8-8.5q7.2-1.69,14.4-3.5,8.7-2.79,11.5-8.9C785.41,393,785.85,393.37,785.85,394.1Z" transform="translate(0 1.09)" fill="#2a2a63"/><path d="M807.15,395.7q0,14-10.4,21.4l-1.1-1.1A44.51,44.51,0,0,0,798.1,408q1.35-5.74,1.15-7.75-1.8-10.5-3.5-21a131.37,131.37,0,0,1-2.2-21q0-10.29,11.4-18a1.88,1.88,0,0,1,.1.7,28.8,28.8,0,0,1-1,5.55,28.18,28.18,0,0,0-1,6.35,164.43,164.43,0,0,0,2.05,21.55A166,166,0,0,1,807.15,395.7Z" transform="translate(0 1.09)" fill="#2a2a63"/></svg>