<svg id="Layer_1"  data-name="Layer 1" xmlns="http://www.w3.org/2000/svg" xmlns:xlink="http://www.w3.org/1999/xlink" viewBox="0 0 1076 1890"><defs><linearGradient id="Degradado_sin_nombre_15" y1="228.55" x2="444.89" y2="228.55" gradientUnits="userSpaceOnUse"><stop offset="0.05" stop-color="#806bad"/><stop offset="1" stop-color="#52c2e6"/></linearGradient></defs><g id="background"><rect width="1076" height="1890" fill="#f2f0f2"/><path d="M0,0V455.92c13.66,1.36,233.54,19.48,365.35-153C463.67,174.17,444.91,28.47,440.67,0Z" opacity="0.44" fill="url(#Degradado_sin_nombre_15)"/><path d="M798.14,1890H1076V1496a130.25,130.25,0,0,1-50.22,15.68c-17.85,1.64-23.75-1.82-55.63-3.32-21.74-1-37.38-1.75-54.64,1-27.41,4.4-46.63,15.67-62.09,24.92-26,15.55-75,44.79-103.22,106.86-8.58,18.89-25,62-18.25,117.15C740.87,1831.27,784.32,1876.64,798.14,1890Z" fill="#e2d2e9"/><path d="M390.82,424.1c-17.52,5.18-32,18-38.36,33.6a52.89,52.89,0,0,0,4.79,48.17c17.82,27.72,63.56,36.65,92.46,18s34.47-60.57,11.28-84.82-70-25.38-94.55-2.26" fill="#e2d2e9"/></g><path d="M539.88,971.23,535,966a.62.62,0,0,1,0-.88.63.63,0,0,1,.89,0l3.87,4.11,4.89-7.1a.63.63,0,0,1,1,.71Z" fill="#064663"/><path d="M492.41,952.66l1.23-58.24,47.44-.24A33.12,33.12,0,0,1,553,895.73a32.31,32.31,0,0,1,18.17,14.54A31.69,31.69,0,0,1,574.74,931c-2.36,12.3-12.88,22.36-26.72,25.73l-1.75-.23-2.43-2.78L540.55,955l-3.42-1.25-2.3,2.78-3.54.64-.64,3.54-2.75,2.33,1.22,3.39-1.22,3.38,2.75,2.33.64,3.54,3.54.64,2.33,2.75,3.39-1.22,3.38,1.22,2.33-2.75,3.54-.64.64-3.54,2.36-1.73.4-1a70.63,70.63,0,0,0,25.37-19.52c1.77,3.14,7.91,15.2,3.41,26.84-4.34,11.22-15.85,18.7-28.76,18.47l-48.34.62c-.55-5.49-2.55-31.28,15.59-52.32a65.88,65.88,0,0,1,24.93-17.77l-1.41,6,14.48-12.26L540,914.32l4.77,6a55.92,55.92,0,0,0-28.44,6.75A56.56,56.56,0,0,0,492.41,952.66Z" fill="#064663"/><path d="M654.52,919.13,700.2,809.34a211.1,211.1,0,0,0-186.13-74.45Z" fill="#01b6e5"/><path d="M574.31,831l-72.24-94.46a211.14,211.14,0,0,0-157.54,124Z" fill="#01b6e5"/><path d="M457.35,856,339.43,871.3A211.16,211.16,0,0,0,368,1069.71Z" fill="#064663"/><path d="M421.57,970.87l-45.68,109.79A211.09,211.09,0,0,0,562,1155.11Z" fill="#064663"/><path d="M502.68,1057.19l72.23,94.45a211.1,211.1,0,0,0,157.54-124Z" fill="#01b6e5"/><path d="M618.65,1032.07l117.92-15.33A211.16,211.16,0,0,0,708,818.33Q663.31,925.21,618.65,1032.07Z" fill="#01b6e5"/><g id="welcome_balleghni" data-name="welcome balleghni"><path d="M474.35,530.84q-1.46,5.5-5.36,16.22h-7.62q-11.85,0-14.93-8.76-1.63-8.12-3.25-16.23-3.24-8.6-15.42-8.6a50.54,50.54,0,0,0-14.44,2.6q-10.54,3.4-10.55,7.79,0,4,5.2,5h8.27q13.47,0,13.47,9.25,0,5.19-7.79,15.25-19,24.35-59.23,24.34-16.87,0-28.72-5.84-15.42-7.62-15.42-22.72,0-18.66,13.14-28.07,11.21-8.28,30-8.28a31.57,31.57,0,0,0,9.73-1.13q4.21-1.95,8.28-4.06-4.38,13.64-9.74,17.85-4.54,3.4-14.77,3.41c-1.08,0-3-.06-5.84-.16h-6.81q-13.47,0-13.47,7.3,0,12.83,14.28,19.8A57.37,57.37,0,0,0,369,561.34a121.83,121.83,0,0,0,25.15-2.59q15.75-3.4,22.88-9.9-.31-2.43-7.46-3.08-10.07-.66-13-1.79-7-2.43-7-9.74,0-12.5,16.88-25.15,15.9-12,28.72-12,13.47,0,17.53,8.76,1.29,2.78,2.43,16.23.81,8.76,6.49,8.77Zm-71.08,59.07a39,39,0,0,1-4.06,8.6q-3.73,6.48-5.84,6.49a15.88,15.88,0,0,1-4.71-1.06,16,16,0,0,0-4.54-1.05,41.61,41.61,0,0,0-10.71,1.62q-5.19,1.62-10.55,3.08a2.34,2.34,0,0,1-1.13-1.94c0-1.41,1.1-4,3.32-7.79s3.95-6.22,5.2-7.31,4.46-2.1,9.65-3.08A56.69,56.69,0,0,1,390.45,586Q399,586,403.27,589.91Z" fill="#064663"/><path d="M499.69,530.84l-7.18,16.22H462.34L469,530.84Z" fill="#064663"/><path d="M523.22,530.84,516,547.06H485.87l6.65-16.22Z" fill="#064663"/><path d="M546.75,530.84l-7.19,16.22H509.4l6.65-16.22Z" fill="#064663"/><path d="M601.41,530.84a62.48,62.48,0,0,1-5.68,16.22H570.25q-7,0-8.6-2.59l-9.74,1.7a53.51,53.51,0,0,1-9.41.89h-8.76q2.26-7.14,5.84-16.22h12.17q12.66,0,17.53-2c2.05-.87,4-2.7,5.84-5.52a30.8,30.8,0,0,1,8-8v2.43l-6.33,12q.81,1,6,1Zm-8.93-62q0,1.64-4.7,7.79t-6.33,6.17q-1.47,0-8.6-4.46c-4.77-3-7.14-4.73-7.14-5.28q0-1.29,4.78-7.38t6.25-6.09q1.46,0,8.6,4.22T592.48,468.84Z" fill="#064663"/><path d="M668.43,530.84q-1.45,5.5-5,16.22h-9.9q-14,0-22.07-7.14-13.63,6.18-16.88,6.82-2.12.33-16.39.32h-6.33c.54-4.11,1-6.87,1.3-8.27a36.18,36.18,0,0,1,2.6-7.95q17.85,0,26-1.79-.48-1.29-6.33-6.49-5.19-4.71-5.19-6.49,0-8.12,7-14.2t15.09-6.09a20.71,20.71,0,0,1,12.09,4.06q5.76,4.05,5.76,10.06c0,2.17-.87,4.87-2.6,8.12a74.7,74.7,0,0,0-3.73,8,20.13,20.13,0,0,0,13.8,4.87Zm-25.64-73.52q0,2.12-11.85,13.63-14.45-12.81-14.44-13.14,0-1,5.43-7.06t6.41-6.09q.81,0,7.63,5.93T642.79,457.32Z" fill="#064663"/><path d="M732.2,530.84c-.76,2.81-1.51,5.57-2.27,8.27q-1.78,5.68-3.89,7.95h-5.85q-5.67,0-13.22-5.46t-8.68-10.76q-8.13,16.21-31.81,16.22H656.9q4.4-16.21,6-16.22a93,93,0,0,0,19.15-1.79q13.79-2.92,15.25-9.74,7.14-30.66,7.14-51.76,0-15.58-7-32.95,3.42-4.86,10.88-14,8.11,9.9,8.11,35.21,0,9.58-3.65,27.59t-3.65,26.94a22.23,22.23,0,0,0,5,14q5,6.41,11.85,6.41Z" fill="#064663"/><path d="M772.45,509.9a21.47,21.47,0,0,1-2,9.41q-2.43,4.07-4.71,8.12-10.54,19.64-34.72,19.63H718.41q3.24-7,8-16.22,12.82,0,17.2-.49,10.23-1.14,16.39-5.19v-2.11q.16-6.33-4.14-13.23c-2.86-4.6-4.3-7.11-4.3-7.55q8.78-13.62,10.71-13.63,2.6,0,6.41,9T772.45,509.9Zm-14,62.15q-.48,3.26-4.54,7.79-3.41,3.42-6.66,6.82l-15.09-9.74q5.52-9.24,11.85-13.95Z" fill="#064663"/><path d="M341.08,327.71l-.65,3.67a11.16,11.16,0,0,1-1.37,3.53,11.84,11.84,0,0,1-4.43-.61,10.48,10.48,0,0,0-1.54-.61,45.89,45.89,0,0,1-3.24,3.88,29.93,29.93,0,0,1-9.44,7.13q-8,3.89-19,3.89a31.57,31.57,0,0,1-12.32-2.45q-7.56-3.17-7.56-8.57,0-5.69,4.47-11,4.75-5.55,10.37-5.33c.33,0,1.1,0,2.3.14.91.05,1.66.08,2.23.08a19.57,19.57,0,0,0,7.71-1.59q-1.67,5.47-4.18,7.27c-1.39.92-3.55,1.37-6.48,1.37h-2.52c-1.15-.05-2.09-.07-2.81-.07a12.14,12.14,0,0,0-4,.79q-2.88.87-2.88,2.31,0,5,7.34,7.48a35.64,35.64,0,0,0,11.6,1.8,57,57,0,0,0,12.88-1.51q7.64-1.8,11.67-5.11a15.93,15.93,0,0,0-3.93-.79,13.25,13.25,0,0,1-4.21-1,3.46,3.46,0,0,1-1.94-3.31c0-1.35,1.08-3.49,3.24-6.45s3.86-4.42,5.11-4.42q3.88,0,7.49,8.42a4.19,4.19,0,0,0,2.88,1.08Zm-10-33.34a9.81,9.81,0,0,1-3.13,7.71,11.69,11.69,0,0,1-8.1,2.81,14.64,14.64,0,0,1-4.39-1,27.22,27.22,0,0,1,2.59-7.63,10.06,10.06,0,0,0,3.81.64,9.73,9.73,0,0,0,4.72-1.15c1.41-.77,2.79-1.53,4.14-2.3Q331.07,293.65,331.07,294.37Z" fill="#064663"/><path d="M366.49,327.71c-.24,1.34-.5,2.71-.79,4.1-.38,2.07-1,3.1-1.73,3.1h-11.3c-2.07,0-3.34-.38-3.82-1.15l-4.32.75a23.44,23.44,0,0,1-4.17.4h-3.89q1-3.17,2.59-7.2h5.4c3.74,0,6.34-.29,7.78-.86a6.23,6.23,0,0,0,2.59-2.45,13.61,13.61,0,0,1,3.53-3.53V322l-2.81,5.33c.24.29,1.13.43,2.66.43Zm-5.4,17.78a23.83,23.83,0,0,1-1.87,3.82c-1.1,1.92-2,2.88-2.59,2.88a7.18,7.18,0,0,1-2-.47,7.18,7.18,0,0,0-2.09-.47,19.11,19.11,0,0,0-4.75.72c-1.53.48-3.07.94-4.61,1.37a1.07,1.07,0,0,1-.57-.93A9.17,9.17,0,0,1,344.1,349a15,15,0,0,1,2.3-3.24c.53-.46,2-.9,4.25-1.34a25.15,25.15,0,0,1,4.68-.64Q359.22,343.77,361.09,345.49Z" fill="#064663"/><path d="M391.4,327.71c-.33,1.34-.67,2.71-1,4.1-.48,2.07-1,3.1-1.52,3.1h-11.3c-2.06,0-3.34-.38-3.82-1.15l-4.32.75a23.35,23.35,0,0,1-4.17.4h-3.89c.67-2.11,1.54-4.51,2.59-7.2h5.4q5.63,0,7.78-.86a6.23,6.23,0,0,0,2.59-2.45,13.61,13.61,0,0,1,3.53-3.53V322l-2.81,5.33c.24.29,1.13.43,2.66.43ZM382,345.93a7.37,7.37,0,0,1-2,3.45c-1,1-2,2-3,3l-6.69-4.32a21,21,0,0,1,5.25-6.2Z" fill="#064663"/><path d="M432.52,327.71l-2.38,7.2h-2.38a18.49,18.49,0,0,0-9.64,2.81q-.94.57-7.13,5.33-3.67,2.81-6.19,2.8a7.7,7.7,0,0,1-6.7-3.38,11.52,11.52,0,0,1-1.87-7.56h-9.58a66.63,66.63,0,0,1,2.23-7.2q6.63,0,7.71-.5c1.29-.63,1.94-2.57,1.94-5.84a114.94,114.94,0,0,0-1.19-13.86,115.85,115.85,0,0,1-1.18-13.64,15.4,15.4,0,0,1,2.52-8.14,17.49,17.49,0,0,1,6-6l.29,1.15a14.75,14.75,0,0,0-2.81,8.86q0,4.68.69,14.22t.68,14.29q3-3.67,6-7.27,4-4.39,7.63-4.4a4.12,4.12,0,0,1,3.38,1.62,5.75,5.75,0,0,1,1.3,3.71q0,6.27-7.27,14.4-7.43,8.36-13.54,8.21a7.39,7.39,0,0,0,6.34,3.6q1.44,0,4.39-2.74a42.26,42.26,0,0,1,6.41-5,20,20,0,0,1,10.29-2.74Zm-15.34-9.65q0-4-3.74-4-5.26,0-12,13,3.31-.36,9.15-3.24Q417.18,320.59,417.18,318.06Z" fill="#064663"/><path d="M450.73,318.42a9.63,9.63,0,0,1-.86,4.18c-.72,1.2-1.42,2.4-2.09,3.6q-4.68,8.71-15.41,8.71h-5.61q1.44-3.09,3.52-7.2,5.69,0,7.64-.22a16.41,16.41,0,0,0,7.27-2.3v-.94a10.67,10.67,0,0,0-1.84-5.86,21.55,21.55,0,0,1-1.91-3.35c2.6-4,4.18-6.05,4.76-6.05q1.14,0,2.84,4A17.66,17.66,0,0,1,450.73,318.42Zm0-28.8c0,3.27-1.09,5.74-3.29,7.42a12.5,12.5,0,0,1-7.92,2.3,23.19,23.19,0,0,1-6.86-1.22q1-2.52,3.07-7.42a27.94,27.94,0,0,0,5.07.43,21.71,21.71,0,0,0,5-.43,35.75,35.75,0,0,0,4.65-1.87A.93.93,0,0,1,450.73,289.62Z" fill="#064663"/><path d="M529.35,316.26q0,10.31-18.07,16.42a84.28,84.28,0,0,1-27.14,4.68,20.29,20.29,0,0,1-9.07-2.09q-5-2.67-5-7,0-3.75,3.81-9.83t7.2-7.17a63.18,63.18,0,0,1,9.43-1.44,19.11,19.11,0,0,0,9.15-3.09v1.08q-2,3.45-2.74,4.53a10.31,10.31,0,0,1-3.6,3.68c-.86.43-3,.84-6.55,1.22a48,48,0,0,0-8.14,1.3q-4,1.21-4,3.74,0,7.35,14.55,7.34,20.52,0,34.56-9c-.77-2.25-3.2-3.38-7.27-3.38a42.41,42.41,0,0,0-5.3.47,42,42,0,0,1-5.14.47l-.29-.8q2.81-4.61,4.53-7.05l7.56-1.44q5.48-1.44,5.48-3.75a10.52,10.52,0,0,0-2-6.12c-1.68,1.68-2.57,2.55-2.66,2.6a5.31,5.31,0,0,1-3.39,1.15,3.81,3.81,0,0,1-3-1.59,5.13,5.13,0,0,1-1.3-3.31q0-2.88,2.88-6.91,3-4.32,5.76-4.32,3.24,0,6.41,4.61,3,4.32,2.95,7.77a11.63,11.63,0,0,1-1.58,5.76,41,41,0,0,1-3.6,4.9c0,.29.55.67,1.51,1.15a7.57,7.57,0,0,1,2.66,1.66A5.06,5.06,0,0,1,529.35,316.26Zm-18.5,25.85a25.68,25.68,0,0,1-1.37,4.25c-.91,2.3-1.65,3.45-2.23,3.45a9.07,9.07,0,0,1-2.05-.46,8.8,8.8,0,0,0-2.49-.47q-3.66,0-10.44,3.45a1.12,1.12,0,0,1-.57-1,9.15,9.15,0,0,1,4.32-7.78,14.92,14.92,0,0,1,8.78-2.66A17.94,17.94,0,0,1,510.85,342.11Zm2.81-58.9a23.52,23.52,0,0,1-2.52,3.78c-1.49,2-2.38,3-2.67,3a17.92,17.92,0,0,1-3-1.51c-2.06-1.15-3.22-1.78-3.46-1.87v-.94c0-.29.75-1.32,2.24-3.09s2.35-2.67,2.59-2.67,1.19.53,3.27,1.59S513.37,283.12,513.66,283.21Z" fill="#064663"/><path d="M593,327.71a37.81,37.81,0,0,0-.93,4.54,5.6,5.6,0,0,1-1.23,2.66h-1.65q-6,0-8.14-3.46a45.57,45.57,0,0,1-1.94-6.4c-.58-2.36-1.88-3.53-3.89-3.53a13.57,13.57,0,0,0-6,1.51q5.84,2.09,5.83,5.9a10,10,0,0,1-2.16,6.27,7.15,7.15,0,0,1-5.76,2.95q-6,0-6.55-6.26l-.57-.51a19.1,19.1,0,0,0-2.88.65,6.29,6.29,0,0,0-2.27,1.66,3.2,3.2,0,0,0-1,1.87q0,3,3.53,8.64l6.48,10.37q3.52,6.26,3.53,10.58a12,12,0,0,1-1.44,4.54c-1,2-1.85,3.19-2.66,3.52a13.6,13.6,0,0,1-1-3.52c-.34-1.78-.6-3-.79-3.6q-.94-2.74-7.28-13-5.25-8.58-5.25-12.53,0-4.68,4-10.44,4.32-6.12,8.71-6.12a9.77,9.77,0,0,0,2.45-.43,20.79,20.79,0,0,1,6-6.7,14.08,14.08,0,0,1,8.42-3.1c2.31,0,3.86,1.2,4.68,3.6q.79,3.39,1.66,6.7a5.34,5.34,0,0,0,5.4,3.6Z" fill="#064663"/><path d="M623.17,327.71c-.67,2.74-1.35,5.14-2,7.2h-4.32a8.54,8.54,0,0,1-6.55-2.81q-2.09-2.66-4.18-5.4c-1.15,1.39-2.29,2.79-3.42,4.18a10.68,10.68,0,0,1-3.42,2.95,12.84,12.84,0,0,1-5.61,1.08h-5q.59-2,2.16-7.49h3.46q8.06,0,9.93-3.24,1.23-2.24,1.23-12.31a37.8,37.8,0,0,0-2-10.8,48.51,48.51,0,0,1-2-7.42c2.06-2.73,3.74-4.8,5-6.19.91,1,2,3.87,3.24,8.71a44.83,44.83,0,0,1,1.8,9.51,37.47,37.47,0,0,1-.51,5,38.47,38.47,0,0,0-.5,5,14.48,14.48,0,0,0,2.39,8.6,7.72,7.72,0,0,0,6.66,3.35Zm6.12-57.53q0,8-13,13.61a50.8,50.8,0,0,1-20.09,4.61,17.63,17.63,0,0,1-1.91-.15c-.84-.09-1.47-.14-1.91-.14l-.28-.79,2.16-7.06h.93A50.3,50.3,0,0,0,613,277.45q5.68-2.16,16-8.42A2.31,2.31,0,0,1,629.29,270.18Z" fill="#064663"/><path d="M641.67,318.42a9.63,9.63,0,0,1-.86,4.18c-.72,1.2-1.42,2.4-2.09,3.6q-4.68,8.71-15.41,8.71H617.7q1.44-3.09,3.52-7.2c3.8,0,6.34-.07,7.64-.22a16.41,16.41,0,0,0,7.27-2.3v-.94a10.59,10.59,0,0,0-1.84-5.86,21.55,21.55,0,0,1-1.91-3.35c2.6-4,4.18-6.05,4.76-6.05q1.14,0,2.84,4A17.66,17.66,0,0,1,641.67,318.42ZM635.48,346a7.32,7.32,0,0,1-2,3.45c-1,1-2,2-3,3l-6.69-4.32a20.86,20.86,0,0,1,5.25-6.19Z" fill="#064663"/><path d="M684.22,327.71c-.72,2.59-1.1,3.94-1.15,4a7.68,7.68,0,0,1-1.8,3.17h-3.38a11.38,11.38,0,0,1-7.85-2.56,9.15,9.15,0,0,1-2.88-7.23,86.58,86.58,0,0,1,1-10.87,85.73,85.73,0,0,0,1-11.09,32.25,32.25,0,0,0-3.46-15.41c2-2.88,3.67-5.06,5-6.55q4.11,6.19,4.1,16.7a80.09,80.09,0,0,1-1.15,11.27,79.8,79.8,0,0,0-1.15,11.05q0,4.47,2.52,6.19,1.95,1.3,6.19,1.3Z" fill="#064663"/><path d="M708.7,327.71c-.33,1.34-.67,2.71-1,4.1-.49,2.07-1,3.1-1.52,3.1h-11.3c-2.07,0-3.34-.38-3.82-1.15l-4.32.75a23.44,23.44,0,0,1-4.17.4h-3.89c.67-2.11,1.54-4.51,2.59-7.2h5.4q5.63,0,7.78-.86A6.23,6.23,0,0,0,697,324.4a13.61,13.61,0,0,1,3.53-3.53V322l-2.81,5.33c.24.29,1.13.43,2.66.43Zm-9.43,18.22a7.32,7.32,0,0,1-2,3.45c-1,1-2,2-3,3l-6.69-4.32a21,21,0,0,1,5.25-6.2Z" fill="#064663"/><path d="M742.69,320q-1.38,2.94-2.74,5.9Q739,327,733.69,327c-2.07,0-5.21.74-9.44,2.23s-7,2.91-8.42,4.25a18.37,18.37,0,0,0-1.29,3.67c-.68,2.26-1.37,3.7-2.09,4.32l-.58-.79q1.15-3.89,1.66-6.48c-.48.05-1.37.19-2.67.43a12.68,12.68,0,0,1-2.59.29h-5.11c.14-1.25,1.18-3.65,3.09-7.2h2.09c.58,0,1.25-.07,2-.07a12,12,0,0,0,5-.72,31.28,31.28,0,0,0,2.45-4.9,50.56,50.56,0,0,1,4.61-8.35c2.16-3,4.31-4.46,6.47-4.46a5.27,5.27,0,0,1,5,2.88c.72,1.72,1.44,3.48,2.16,5.25a5,5,0,0,0,4.68,2.88A10.31,10.31,0,0,0,742.69,320Zm-12.82,1.51q-.72-5.32-4.82-5.33-2.88,0-4.61,3.74-1.08,3-2.09,6.05Q722.16,324.62,729.87,321.52Z" fill="#064663"/><path d="M788.55,327.71a20.38,20.38,0,0,1-2.81,7.2h-3a13.28,13.28,0,0,0-10.22,4.18q-2.82,3.89-5.62,7.84a10.29,10.29,0,0,1-8.28,4.18c-5,0-7.92.05-8.93.14-3.84.44-6.53,1.54-8.06,3.32h-1.08l-.29-.86c0-4.73,2.18-7.82,6.55-9.3q3.53-1.16,12.38-1.15,4,0,7.78-4.05l6-7.45q3.52-4,7-4.05Z" fill="#064663"/><path d="M814.25,318.64a7.73,7.73,0,0,1-1,2.95l-1.52,3q-3.88,10.36-23.32,10.37h-5.62a39.09,39.09,0,0,1,2.66-7.2q6.34,0,7.42-.07,5.83-.36,5.83-1.8c0-2.21,1.11-4.63,3.31-7.27,2.31-2.84,4.52-4.25,6.63-4.25a6.65,6.65,0,0,1,3.81,1A3.8,3.8,0,0,1,814.25,318.64Z" fill="#064663"/></g><path d="M213.15,1250.49c-.35,1-.6,1.68-.76,2.08a8.94,8.94,0,0,1-1,1.92h-3.12c-1.66,0-2.8-.45-3.44-1.36a5.41,5.41,0,0,1-.76-3.2c0-.42,0-1.08.08-2s.08-1.54.08-1.94q0-3.48-5.12-3.48a20.23,20.23,0,0,0-5.52,1q-4.12,1.13-4.12,2.68c0,.62.52.92,1.56.92a16.25,16.25,0,0,0,4.06-.78,16.26,16.26,0,0,1,4.14-.78,5,5,0,0,1,3.24,1q-1.17,2.09-2.4,3.84a4.54,4.54,0,0,0-1.84-.64,17.63,17.63,0,0,0-4.52.84,17.6,17.6,0,0,1-4.36.84,2.79,2.79,0,0,1-2-.68,2.32,2.32,0,0,1-.76-1.84q0-4.95,5.08-7.88a18.93,18.93,0,0,1,9.6-2.44,8.37,8.37,0,0,1,3.88.8,3.42,3.42,0,0,1,2,3.2,13.77,13.77,0,0,1-.26,2.16,12.64,12.64,0,0,0-.26,2.16c0,2.16,1.18,3.38,3.56,3.64Zm-9.6-20.92a16.11,16.11,0,0,1-1.2,2.88c-.48,1-2.54,1.48-6.16,1.48a4.27,4.27,0,0,1-2.36-.56,14.88,14.88,0,0,1,1.88-4.12,27.67,27.67,0,0,0,3.6.24,8.9,8.9,0,0,0,2.34-.4,13.14,13.14,0,0,1,1.62-.4l.28.08Z" fill="#757e96"/><path d="M226.59,1250.49c-.14.75-.28,1.51-.44,2.28-.22,1.15-.54,1.72-1,1.72h-6.28c-1.15,0-1.86-.21-2.12-.64l-2.4.42a13,13,0,0,1-2.32.22h-2.16c.37-1.17.85-2.5,1.44-4h3a13.18,13.18,0,0,0,4.32-.48,3.36,3.36,0,0,0,1.43-1.36,7.8,7.8,0,0,1,2-2v.6l-1.56,3c.13.16.62.24,1.48.24Zm-3,9.88a14.2,14.2,0,0,1-1,2.12c-.62,1.07-1.1,1.6-1.45,1.6a3.68,3.68,0,0,1-1.11-.26,4.12,4.12,0,0,0-1.16-.26,10.86,10.86,0,0,0-2.64.4c-.86.27-1.71.52-2.57.76a.58.58,0,0,1-.31-.52,5.18,5.18,0,0,1,.84-1.9,8.45,8.45,0,0,1,1.28-1.8,6.19,6.19,0,0,1,2.36-.74,13.8,13.8,0,0,1,2.6-.36A4.6,4.6,0,0,1,223.59,1260.37Z" fill="#757e96"/><path d="M242.27,1250.49l-.56,2a5.44,5.44,0,0,1-1,2h-1.44a5.93,5.93,0,0,1-3.27-1.34,4.88,4.88,0,0,1-2.13-2.66c-1.34,2.67-3.95,4-7.85,4h-2.35c.72-2.66,1.21-4,1.48-4a22.56,22.56,0,0,0,4.72-.44c2.26-.48,3.52-1.28,3.76-2.4a58.15,58.15,0,0,0,1.76-12.76,22,22,0,0,0-1.72-8.12c.56-.8,1.45-1.94,2.68-3.44q2,2.45,2,8.68a37.24,37.24,0,0,1-.91,6.8,37.94,37.94,0,0,0-.9,6.64,5.45,5.45,0,0,0,1.25,3.46,3.6,3.6,0,0,0,2.92,1.58Z" fill="#757e96"/><path d="M268.14,1250.49l-1.6,4h-2.6a4.1,4.1,0,0,1-3.4-1.72,6.2,6.2,0,0,1-1.32-3.88,7.89,7.89,0,0,1,.4-1.92,7.43,7.43,0,0,0,.4-1.92c0-1.6-1.3-2.4-3.92-2.4a14.58,14.58,0,0,0-4.52,1.08,12.43,12.43,0,0,1,2.56.56,2.17,2.17,0,0,1,1.2,2.12q0,1.77-2.56,4.92t-4.28,3.16h-9.24a1,1,0,0,1-.16-.56c0-.53.56-1.68,1.68-3.44q11.68,0,11.68-1.16c0-1.06-.88-1.6-2.64-1.6a7.16,7.16,0,0,0-4.24,1.28c-.5,0-.76-.29-.76-.72q0-3.15,5.16-6.44,4.85-3.07,8.48-3.08a6,6,0,0,1,3,.76,2.85,2.85,0,0,1,1.64,2.52,6.74,6.74,0,0,1-.46,2,7.28,7.28,0,0,0-.46,2.1,4.45,4.45,0,0,0,1.06,2.86,3.75,3.75,0,0,0,2.62,1.46Z" fill="#757e96"/><path d="M279.86,1247.65q0,4.32-4.56,5.88a25.52,25.52,0,0,1-8,1h-1.68a25.88,25.88,0,0,1,1-4h2.17a8.48,8.48,0,0,0,2.79-.4l1.44-2.4a5.85,5.85,0,0,0,.73-2.68,24.88,24.88,0,0,0-1.5-6.92,24.82,24.82,0,0,1-1.5-7,8.79,8.79,0,0,1,4.11-7.56l.16.32c-.69.27-1,1.55-1,3.84a26.86,26.86,0,0,0,1.44,7.22,26.91,26.91,0,0,1,1.44,7.14,7.35,7.35,0,0,1-.92,3.36l2.48.48A1.8,1.8,0,0,1,279.86,1247.65Z" fill="#757e96"/><path d="M289.34,1246.17a9.83,9.83,0,0,1-4.16,8.56l-.44-.44a17,17,0,0,0,1-3.22,11.42,11.42,0,0,0,.46-3.1c-.48-2.8-.94-5.6-1.4-8.4a53.41,53.41,0,0,1-.88-8.4q0-4.11,4.56-7.2a.66.66,0,0,1,0,.28,11.05,11.05,0,0,1-.4,2.22,11.77,11.77,0,0,0-.4,2.54,67.19,67.19,0,0,0,.82,8.62A65.34,65.34,0,0,1,289.34,1246.17Z" fill="#757e96"/><path d="M333.26,1243.37q0,6.12-8.36,9.28a38.43,38.43,0,0,1-13.52,2.28,17.92,17.92,0,0,1-6.32-1q-3.6-1.4-3.6-4.56a8.94,8.94,0,0,1,1.52-4.8,12.35,12.35,0,0,1,3.56-3.64c1-.72,2.94-1.08,5.68-1.08.59,0,1.36,0,2.32.06l1.92.06a10.93,10.93,0,0,0,3.4-.8l.16.48a10.1,10.1,0,0,1-3.12,3.28,6.37,6.37,0,0,1-3.24.72c-.37,0-1.1,0-2.2-.1s-2-.1-2.76-.1a7.09,7.09,0,0,0-2.84.56,2.37,2.37,0,0,0-1.68,2.12q0,4.89,9.48,4.88a48,48,0,0,0,9.32-.92c4.7-.88,7-2.2,7-4a5.37,5.37,0,0,0-.22-1.28,5.85,5.85,0,0,1-.22-1.28,9.22,9.22,0,0,1,1.36-1.6,22.86,22.86,0,0,1,1.64-1.68A11.81,11.81,0,0,1,333.26,1243.37Zm-10.64-10.12a16.11,16.11,0,0,1-1.2,2.88q-.72,1.48-6.16,1.48a4.32,4.32,0,0,1-2.36-.56,15.49,15.49,0,0,1,1.88-4.12,27.9,27.9,0,0,0,3.6.24,8.78,8.78,0,0,0,2.34-.4,14.16,14.16,0,0,1,1.62-.4l.28.08Z" fill="#757e96"/><path d="M371.1,1250.49a31.94,31.94,0,0,1-1.44,4h-3.52q-5,0-5-10.68a55.41,55.41,0,0,1,.48-7.08,35.93,35.93,0,0,1-4,8.8q-5.67,8.85-13.92,8.84a17.25,17.25,0,0,0-11.4,4.48l-.16-.44a6.37,6.37,0,0,1,2.2-5.08,12.08,12.08,0,0,1,5-2.32q2.85-.55,5.64-1.12c1.6-3,2.28-5.36,2-7.12q-1.32-9.36-1.32-11.24,0-2.12,3.32-4.64h.56a.66.66,0,0,1,0,.28,8.65,8.65,0,0,1-.2,1.42,11.07,11.07,0,0,0-.2,1.34,43.71,43.71,0,0,0,.52,5.08,41.71,41.71,0,0,1,.52,5.08,12.7,12.7,0,0,1-1,5q-1.75,4.13-1.88,4.48,3,.33,6.52-4.56a97.31,97.31,0,0,0,5.24-9.24q2.68-5,3.64-5a2.3,2.3,0,0,1,1.44.84,3,3,0,0,1,.08.88q0,1-.18,3.84c-.12,1.87-.18,3-.18,3.32a19.31,19.31,0,0,0,1.24,7.32q1.49,3.52,4.16,3.52Z" fill="#757e96"/><path d="M387.54,1250.49c-.37,1.52-.74,2.86-1.12,4H384a4.75,4.75,0,0,1-3.64-1.56c-.77-1-1.54-2-2.32-3l-1.9,2.32a5.84,5.84,0,0,1-1.9,1.64,7.11,7.11,0,0,1-3.12.6h-2.76c.22-.74.62-2.12,1.2-4.16h1.92q4.49,0,5.52-1.8c.46-.82.68-3.1.68-6.84a20.86,20.86,0,0,0-1.1-6,27.27,27.27,0,0,1-1.1-4.12c1.15-1.52,2.08-2.66,2.8-3.44q.76.81,1.8,4.84a24.83,24.83,0,0,1,1,5.28,20.29,20.29,0,0,1-.28,2.8,22.37,22.37,0,0,0-.28,2.8,8.06,8.06,0,0,0,1.33,4.78,4.3,4.3,0,0,0,3.7,1.86Zm3.4-32q0,4.44-7.2,7.56a28.08,28.08,0,0,1-11.16,2.56,8.63,8.63,0,0,1-1.06-.08c-.46,0-.82-.08-1.06-.08l-.16-.44,1.2-3.92H372a27.77,27.77,0,0,0,9.88-1.56,59.28,59.28,0,0,0,8.88-4.68A1.24,1.24,0,0,1,390.94,1218.53Z" fill="#757e96"/><path d="M397.74,1250.49a9.53,9.53,0,0,1-1.52,4h-4.8a2.31,2.31,0,0,1-.4-.8,12.25,12.25,0,0,1-4.16.8h-1.72a26.67,26.67,0,0,1,1.24-3.92,19.34,19.34,0,0,0,4.76-.4,5.79,5.79,0,0,0,4.32-4.12c.48.19.72.32.72.4a8.29,8.29,0,0,1-.92,1.76c-.37.64-.76,1.28-1.16,1.92a5,5,0,0,0,2.16.36Z" fill="#757e96"/><path d="M409.7,1250.49c-.26.88-.64,2.22-1.12,4H405.1c-.72,0-1.14-.24-1.28-.72a14,14,0,0,1-5,.92l-.16-.52a3.1,3.1,0,0,0-1,.18,2.64,2.64,0,0,1-1.06.14h-1.52a13,13,0,0,1,1.16-4,9,9,0,0,0,2.08-.16,10.5,10.5,0,0,0,1.88-.72,3.21,3.21,0,0,0,1.38-1.46,4.12,4.12,0,0,1,1.3-1.5v.74a6.13,6.13,0,0,1-.64,1.43c-.45.93-.7,1.46-.76,1.59s.15.08.36.08a5,5,0,0,0,3.48-1.14c.83-.9,1.64-1.8,2.44-2.7a.46.46,0,0,1,.2.44,3.72,3.72,0,0,1-.6,1.28,3.18,3.18,0,0,0-.56,1.68l.46.24a1.38,1.38,0,0,0,.54.2Zm-1.48-17.28a5.83,5.83,0,0,1-1.1,2.08c-.73,1.1-1.2,1.64-1.42,1.64a8.39,8.39,0,0,1-.9-1.38,2.4,2.4,0,0,0-2.1-1.38,3.34,3.34,0,0,0-2.48,1.24,14.76,14.76,0,0,0-1.8,2.68,13.68,13.68,0,0,1-1.56,2.44q-.48-.15-.48-.48c0-1.46,1-3.48,3.08-6s3.8-3.84,5.24-3.84a3.78,3.78,0,0,1,2.34.94A2.68,2.68,0,0,1,408.22,1233.21Z" fill="#757e96"/><path d="M421.94,1247.65q0,4.32-4.56,5.88a25.52,25.52,0,0,1-8,1h-1.68a25.88,25.88,0,0,1,1-4h2.16a8.5,8.5,0,0,0,2.8-.4l1.44-2.4a5.83,5.83,0,0,0,.72-2.68,24.88,24.88,0,0,0-1.5-6.92,24.82,24.82,0,0,1-1.5-7,8.8,8.8,0,0,1,4.12-7.56l.16.32c-.69.27-1,1.55-1,3.84a26.86,26.86,0,0,0,1.44,7.22,26.91,26.91,0,0,1,1.44,7.14,7.35,7.35,0,0,1-.92,3.36l2.48.48A1.8,1.8,0,0,1,421.94,1247.65Z" fill="#757e96"/><path d="M431.42,1246.17a9.83,9.83,0,0,1-4.16,8.56l-.44-.44a17,17,0,0,0,1-3.22,11.42,11.42,0,0,0,.46-3.1c-.48-2.8-.94-5.6-1.4-8.4a53.41,53.41,0,0,1-.88-8.4q0-4.11,4.56-7.2a.66.66,0,0,1,0,.28,11.05,11.05,0,0,1-.4,2.22,11.77,11.77,0,0,0-.4,2.54,67.19,67.19,0,0,0,.82,8.62A65.34,65.34,0,0,1,431.42,1246.17Z" fill="#757e96"/><path d="M478.62,1250.49a14.41,14.41,0,0,1-1.36,4h-2.6a3.19,3.19,0,0,1-1.72-.6c-.48-.4-.95-.81-1.4-1.24q-1.16,3.64-6.6,5.92a23.75,23.75,0,0,1-9.08,1.88,15.59,15.59,0,0,1-7.28-1.68q-4-2.07-4-5.72,0-2.52,2.84-5.92c1.89-2.26,3.67-3.4,5.32-3.4a24.25,24.25,0,0,1,2.88.26,22.26,22.26,0,0,0,2.88.26,4.73,4.73,0,0,0,2.36-1l.2.44c0,2.86-2.29,4.28-6.88,4.28-.43,0-1,0-1.7,0l-1.42,0c-2.43,0-3.64.76-3.64,2.28q0,3.33,4.08,5a17.7,17.7,0,0,0,7,1.28,20.53,20.53,0,0,0,6.4-1.2q4.51-1.51,4.52-3.68a27.34,27.34,0,0,0-1.2-4.76q1.44-1.68,1.56-1.8a11,11,0,0,1,1.68-1.56,10.22,10.22,0,0,0,1.76,5,4.41,4.41,0,0,0,3.68,2Zm-11.72-13.84a5.41,5.41,0,0,1-1.16,1.92c-.77,1-1.29,1.52-1.56,1.52A7.5,7.5,0,0,1,462,1239c-1.19-.73-1.78-1.16-1.78-1.3a5.42,5.42,0,0,1,1.2-1.84c.8-1,1.32-1.48,1.56-1.48a7.71,7.71,0,0,1,2.12,1C466.31,1236.07,466.9,1236.49,466.9,1236.65Z" fill="#757e96"/><path d="M501.94,1247.69a5.79,5.79,0,0,1-.9,2,9.45,9.45,0,0,1-1.3,1.9c-.45.4-3.13,1-8,1.72q-6.12,1-7.48,1.08-1.64.12-8.72.12a8,8,0,0,1,1.8-4l6.88-.36c-.35-.53-.68-1.06-1-1.6a3.56,3.56,0,0,1-.56-1.76,7.45,7.45,0,0,1,2.66-5.26,7.81,7.81,0,0,1,5.38-2.58,7.57,7.57,0,0,1,3,.88c1.33.67,2,1.36,2,2.08,0,.94-.71,2.24-2.12,3.92-1.65-1.92-3.35-2.88-5.08-2.88s-2.8.42-2.8,1.24c0,1.42,1,2.6,3,3.56a11.67,11.67,0,0,0,5,1.2,15.09,15.09,0,0,0,4.2-.68l4-1.28Z" fill="#757e96"/><path d="M538.22,1244.25s-.75,1.3-2.24,4l-7.32,2.16a36.62,36.62,0,0,0-8.2,3.6q-3.91,2.52-3.92,5.4a4.67,4.67,0,0,0,2.08,4,7.12,7.12,0,0,0,4.4,1.4,21.16,21.16,0,0,0,5.6-1.1,21.59,21.59,0,0,1,5.64-1.1,7.14,7.14,0,0,1,3.84.8,5.32,5.32,0,0,1-.82,2.24,4.31,4.31,0,0,1-1.54,1.76,17.61,17.61,0,0,0-3.16-.52,18.31,18.31,0,0,0-5.38,1.18,18,18,0,0,1-5.42,1.18,8.28,8.28,0,0,1-5.52-1.92,6.5,6.5,0,0,1-2.44-5.24,13.34,13.34,0,0,1,1.92-6.44,21.7,21.7,0,0,1,4.16-5.32l-2-1.76a3.33,3.33,0,0,1-1.12-2.4q0-2.91,3.18-6c2.12-2.06,4.17-3.1,6.14-3.1a6.89,6.89,0,0,1,2.08.48c1.07.38,1.6.75,1.6,1.12a7,7,0,0,1-1,2c-.65,1.1-1.09,1.67-1.3,1.72a6.1,6.1,0,0,0-6.08-.88c-1,.4-1.52,1-1.52,1.76q0,1.68,2.28,2.88a7.78,7.78,0,0,0,3.76,1,27.23,27.23,0,0,0,6.08-1.44c2.59-.82,4.65-1.56,6.2-2.2Zm-9.36-14.48a5.91,5.91,0,0,1-1.24,1.76,16.7,16.7,0,0,1-1.52,1.72q-.76-.63-3.6-2.52l1.36-1.92c.72-1,1.23-1.52,1.52-1.52a7.18,7.18,0,0,1,1.88,1.16A7.32,7.32,0,0,1,528.86,1229.77Z" fill="#757e96"/><path d="M577,1250.49a31.94,31.94,0,0,1-1.44,4h-3.52q-5,0-5-10.68a55.41,55.41,0,0,1,.48-7.08,36.3,36.3,0,0,1-4,8.8q-5.69,8.85-13.92,8.84a17.22,17.22,0,0,0-11.4,4.48l-.16-.44a6.34,6.34,0,0,1,2.2-5.08,12.08,12.08,0,0,1,5-2.32l5.64-1.12c1.6-3,2.28-5.36,2-7.12q-1.32-9.36-1.32-11.24,0-2.12,3.32-4.64h.56a.66.66,0,0,1,0,.28,10,10,0,0,1-.2,1.42,11.07,11.07,0,0,0-.2,1.34,41.53,41.53,0,0,0,.52,5.08,41.71,41.71,0,0,1,.52,5.08,12.7,12.7,0,0,1-1,5q-1.75,4.13-1.88,4.48,3,.33,6.52-4.56a99.67,99.67,0,0,0,5.24-9.24q2.68-5,3.64-5a2.3,2.3,0,0,1,1.44.84,3.4,3.4,0,0,1,.08.88q0,1-.18,3.84c-.12,1.87-.18,3-.18,3.32a19.11,19.11,0,0,0,1.24,7.32c1,2.35,2.37,3.52,4.16,3.52Z" fill="#757e96"/><path d="M586.94,1245.33a5.28,5.28,0,0,1-.48,2.32c-.4.67-.79,1.34-1.16,2q-2.59,4.85-8.56,4.84h-3.12c.53-1.14,1.19-2.48,2-4,2.11,0,3.52,0,4.24-.12a9,9,0,0,0,4-1.28v-.52a5.85,5.85,0,0,0-1-3.26,11.12,11.12,0,0,1-1.06-1.86q2.16-3.36,2.64-3.36c.43,0,1,.74,1.58,2.22A9.81,9.81,0,0,1,586.94,1245.33Zm-3.44,15.32a4,4,0,0,1-1.12,1.92c-.56.56-1.11,1.12-1.64,1.68l-3.72-2.4a11.78,11.78,0,0,1,2.92-3.44Z" fill="#757e96"/><path d="M600.66,1261.89q0,3.24-3.72,4.92l-6.28,2.28a4.1,4.1,0,0,1,1.88-3.28,21.16,21.16,0,0,1,3.2-.88,4.9,4.9,0,0,0,3-1.6.9.9,0,0,0-.44-.08,3.39,3.39,0,0,0-1.22.38,3.22,3.22,0,0,1-1.18.38,2.79,2.79,0,0,1-1.72-.56,1.7,1.7,0,0,1-.76-1.44,5.36,5.36,0,0,1,1.74-3.72,5.09,5.09,0,0,1,3.66-1.8c.64,0,1,.15,1,.44a2.77,2.77,0,0,1-.74,1.46c-.49.63-.9.94-1.22.94a2.25,2.25,0,0,1-.4-.06,2.24,2.24,0,0,0-.44-.06c-1.07,0-1.6.34-1.6,1,0,.22.23.45.7.7a2.48,2.48,0,0,0,1,.38,4.9,4.9,0,0,0,1.28-.46,5.35,5.35,0,0,1,1.28-.46C600.31,1260.37,600.66,1260.88,600.66,1261.89Z" fill="#757e96"/><path d="M626,1250.49a31.94,31.94,0,0,1-1.44,4H621q-5,0-5-10.68a55.41,55.41,0,0,1,.48-7.08,36.3,36.3,0,0,1-4,8.8q-5.68,8.85-13.92,8.84a17.22,17.22,0,0,0-11.4,4.48l-.16-.44a6.34,6.34,0,0,1,2.2-5.08,12.08,12.08,0,0,1,5-2.32l5.64-1.12c1.6-3,2.28-5.36,2-7.12q-1.32-9.36-1.32-11.24,0-2.12,3.32-4.64h.56a.66.66,0,0,1,0,.28,10,10,0,0,1-.2,1.42,11.07,11.07,0,0,0-.2,1.34,41.53,41.53,0,0,0,.52,5.08,41.71,41.71,0,0,1,.52,5.08,12.7,12.7,0,0,1-1,5q-1.76,4.13-1.88,4.48,3,.33,6.52-4.56a99.67,99.67,0,0,0,5.24-9.24q2.68-5,3.64-5a2.3,2.3,0,0,1,1.44.84,3.4,3.4,0,0,1,.08.88q0,1-.18,3.84c-.12,1.87-.18,3-.18,3.32a19.11,19.11,0,0,0,1.24,7.32c1,2.35,2.37,3.52,4.16,3.52Z" fill="#757e96"/><path d="M635.66,1244.77a11.33,11.33,0,0,1-2.2,6c-1.6,2.46-3.23,3.68-4.88,3.68H622.7a20.75,20.75,0,0,1,1.8-4,39.79,39.79,0,0,0,4.76-.16c2.27-.32,3.4-1.13,3.4-2.44a28.63,28.63,0,0,0-1.88-8.22,28.61,28.61,0,0,1-1.88-8.42,7.47,7.47,0,0,1,1-4l2.52-3.16.64.48c-.61.67-.92,2-.92,4.12a28.12,28.12,0,0,0,1.76,8.08A28.11,28.11,0,0,1,635.66,1244.77Z" fill="#757e96"/><path d="M675.3,1250.49c-.35,1-.6,1.68-.76,2.08a8.94,8.94,0,0,1-1,1.92h-3.12a3.92,3.92,0,0,1-3.44-1.36,5.41,5.41,0,0,1-.76-3.2c0-.42,0-1.08.08-2s.08-1.54.08-1.94q0-3.48-5.12-3.48a20.36,20.36,0,0,0-5.52,1q-4.12,1.13-4.12,2.68c0,.62.52.92,1.56.92a16.25,16.25,0,0,0,4.06-.78,16.26,16.26,0,0,1,4.14-.78,5,5,0,0,1,3.24,1,40.82,40.82,0,0,1-2.4,3.84,4.49,4.49,0,0,0-1.84-.64,17.7,17.7,0,0,0-4.52.84,17.6,17.6,0,0,1-4.36.84,2.8,2.8,0,0,1-2-.68,2.32,2.32,0,0,1-.76-1.84q0-4.95,5.08-7.88a19,19,0,0,1,9.6-2.44,8.34,8.34,0,0,1,3.88.8,3.4,3.4,0,0,1,2,3.2,13.77,13.77,0,0,1-.26,2.16,13.77,13.77,0,0,0-.26,2.16c0,2.16,1.19,3.38,3.56,3.64Zm-9.6-20.92a16.11,16.11,0,0,1-1.2,2.88c-.48,1-2.54,1.48-6.16,1.48a4.3,4.3,0,0,1-2.36-.56,15.18,15.18,0,0,1,1.88-4.12,27.9,27.9,0,0,0,3.6.24,8.9,8.9,0,0,0,2.34-.4,14.16,14.16,0,0,1,1.62-.4l.28.08Z" fill="#757e96"/><path d="M690.58,1250.49c-.19.7-.37,1.38-.56,2a5.13,5.13,0,0,1-1,2h-1.44a5.9,5.9,0,0,1-3.26-1.34,4.91,4.91,0,0,1-2.14-2.66c-1.33,2.67-4,4-7.84,4H672c.72-2.66,1.21-4,1.48-4a22.49,22.49,0,0,0,4.72-.44q3.4-.72,3.76-2.4a58.15,58.15,0,0,0,1.76-12.76,21.76,21.76,0,0,0-1.72-8.12c.56-.8,1.45-1.94,2.68-3.44q2,2.45,2,8.68a37,37,0,0,1-.9,6.8,37,37,0,0,0-.9,6.64,5.44,5.44,0,0,0,1.24,3.46,3.62,3.62,0,0,0,2.92,1.58Z" fill="#757e96"/><path d="M709.78,1250.49a16.35,16.35,0,0,1-.44,2.24,5.27,5.27,0,0,1-.84,1.76,13.53,13.53,0,0,0-11.52,5.56c-.48.78-1,1.54-1.48,2.28a8.1,8.1,0,0,1-1.76,2c-.4,0-.79-.35-1.16-1a3.28,3.28,0,0,1-.56-1.58,11,11,0,0,1,1.18-4.12,11,11,0,0,0,1.18-4.12c0-.37-.15-.54-.44-.52a14.54,14.54,0,0,1-2.32,1.16,8.82,8.82,0,0,1-2.56.28H687.9a15.32,15.32,0,0,1,1.16-4,14.31,14.31,0,0,0,3.84-.48,8.56,8.56,0,0,0,2.08-.88,9.71,9.71,0,0,1,.88-.48q.43,0,.78.72a3,3,0,0,1,.34,1.24,12.74,12.74,0,0,1-1.3,4.46,19.29,19.29,0,0,0-1.3,3.38,2.53,2.53,0,0,0,.56,1.36,31.09,31.09,0,0,1,5.76-6.52,12.36,12.36,0,0,1,7.8-2.8Z" fill="#757e96"/><path d="M719.86,1250.49a9.67,9.67,0,0,1-1.52,4h-4.8a2,2,0,0,1-.4-.8,12.29,12.29,0,0,1-4.16.8h-1.72a24.36,24.36,0,0,1,1.24-3.92,19.4,19.4,0,0,0,4.76-.4,5.79,5.79,0,0,0,4.32-4.12c.48.19.72.32.72.4a8.89,8.89,0,0,1-.92,1.76c-.38.64-.76,1.28-1.16,1.92a5,5,0,0,0,2.16.36Z" fill="#757e96"/><path d="M731.82,1250.49c-.27.88-.64,2.22-1.12,4h-3.48c-.72,0-1.15-.24-1.28-.72a14.05,14.05,0,0,1-5,.92l-.16-.52a3.1,3.1,0,0,0-1,.18,2.64,2.64,0,0,1-1.06.14h-1.52a12.68,12.68,0,0,1,1.16-4,9,9,0,0,0,2.08-.16,10.8,10.8,0,0,0,1.88-.72,3.31,3.31,0,0,0,1.38-1.46,4,4,0,0,1,1.3-1.5v.74a6.66,6.66,0,0,1-.64,1.43c-.46.93-.71,1.46-.76,1.59s.14.08.36.08a5.07,5.07,0,0,0,3.48-1.14c.82-.9,1.64-1.8,2.44-2.7a.48.48,0,0,1,.2.44,3.72,3.72,0,0,1-.6,1.28,3.09,3.09,0,0,0-.56,1.68l.46.24a1.28,1.28,0,0,0,.54.2Z" fill="#757e96"/><path d="M741.9,1244.77a11.41,11.41,0,0,1-2.2,6c-1.6,2.46-3.23,3.68-4.88,3.68h-5.88a20.13,20.13,0,0,1,1.8-4,39.79,39.79,0,0,0,4.76-.16c2.26-.32,3.4-1.13,3.4-2.44a28.63,28.63,0,0,0-1.88-8.22,28.29,28.29,0,0,1-1.88-8.42,7.47,7.47,0,0,1,1-4l2.52-3.16.64.48c-.62.67-.92,2-.92,4.12a27.78,27.78,0,0,0,1.76,8.08A28.11,28.11,0,0,1,741.9,1244.77Z" fill="#757e96"/><path d="M752.66,1246.17a9.85,9.85,0,0,1-4.16,8.56l-.44-.44a17.81,17.81,0,0,0,1-3.22,11.86,11.86,0,0,0,.46-3.1q-.72-4.2-1.4-8.4a52.23,52.23,0,0,1-.88-8.4q0-4.11,4.56-7.2a.88.88,0,0,1,0,.28,11.86,11.86,0,0,1-.4,2.22,11.17,11.17,0,0,0-.4,2.54,65.39,65.39,0,0,0,.82,8.62A67.17,67.17,0,0,1,752.66,1246.17Z" fill="#757e96"/><path d="M792.06,1250.49c-.35,1-.6,1.68-.76,2.08a8.94,8.94,0,0,1-1,1.92h-3.12c-1.66,0-2.8-.45-3.44-1.36a5.41,5.41,0,0,1-.76-3.2c0-.42,0-1.08.08-2s.08-1.54.08-1.94q0-3.48-5.12-3.48a20.23,20.23,0,0,0-5.52,1q-4.12,1.13-4.12,2.68c0,.62.52.92,1.56.92a16.25,16.25,0,0,0,4.06-.78,16.26,16.26,0,0,1,4.14-.78,5,5,0,0,1,3.24,1q-1.17,2.09-2.4,3.84a4.54,4.54,0,0,0-1.84-.64,17.63,17.63,0,0,0-4.52.84,17.6,17.6,0,0,1-4.36.84,2.79,2.79,0,0,1-2-.68,2.32,2.32,0,0,1-.76-1.84q0-4.95,5.08-7.88a18.93,18.93,0,0,1,9.6-2.44,8.37,8.37,0,0,1,3.88.8,3.42,3.42,0,0,1,2,3.2,13.77,13.77,0,0,1-.26,2.16,12.64,12.64,0,0,0-.26,2.16c0,2.16,1.18,3.38,3.56,3.64Zm-9.6-20.92a16.11,16.11,0,0,1-1.2,2.88c-.48,1-2.54,1.48-6.16,1.48a4.27,4.27,0,0,1-2.36-.56,14.88,14.88,0,0,1,1.88-4.12,27.67,27.67,0,0,0,3.6.24,8.9,8.9,0,0,0,2.34-.4,13.14,13.14,0,0,1,1.62-.4l.28.08Z" fill="#757e96"/><path d="M808.82,1250.49a15.18,15.18,0,0,1-.84,2.64c-.32.86-.48,1.31-.48,1.36h-2.84a14.69,14.69,0,0,1-2.84-.58,15.33,15.33,0,0,0-2.92-.58,18.68,18.68,0,0,0-3.62.58,18.18,18.18,0,0,1-3.78.58h-2.88a.36.36,0,0,1-.12-.32,5.37,5.37,0,0,1,.8-2.08,9.73,9.73,0,0,1,1-1.61l5.72-.4a14.5,14.5,0,0,1,2.16-5.5c1.46-2.43,2.84-3.65,4.12-3.65a2.15,2.15,0,0,1,1.88,1.17,4.16,4.16,0,0,1,.64,2.25,8.77,8.77,0,0,1-2,5v.52c.4.51,1.29.71,2.68.6Zm-2.92-21.28a4.84,4.84,0,0,1-1.56,3.92,6.29,6.29,0,0,1-4.2,1.32H799a3.33,3.33,0,0,1-2.28-.92,23.14,23.14,0,0,1,1.6-4.12,14.75,14.75,0,0,0,2.88.48,6.6,6.6,0,0,0,4-1.16h.6A.69.69,0,0,1,805.9,1229.21Zm-3.68,18.2a2.61,2.61,0,0,0-.44-1.46,1.35,1.35,0,0,0-1.16-.66,2.07,2.07,0,0,0-1.34.62,1.74,1.74,0,0,0-.7,1.26q0,.28.78,1.14c.52.58.88.86,1.1.86a1.64,1.64,0,0,0,1.22-.56A1.7,1.7,0,0,0,802.22,1247.41Z" fill="#757e96"/><path d="M820.5,1245.33a5.28,5.28,0,0,1-.48,2.32c-.4.67-.79,1.34-1.16,2q-2.61,4.85-8.56,4.84h-4.72c.53-1.14,1.18-2.48,2-4h4a10.36,10.36,0,0,0,5.84-1.4v-.52a6,6,0,0,0-1-3.26,11.12,11.12,0,0,1-1.06-1.86q2.16-3.36,2.64-3.36c.42,0,.95.74,1.58,2.22A10.11,10.11,0,0,1,820.5,1245.33ZM818,1259.74a11.11,11.11,0,0,1-.76,2.34c-.54,1.21-1,1.81-1.24,1.81a7.28,7.28,0,0,1-1.28-.38,6.28,6.28,0,0,0-1.92-.38,8.46,8.46,0,0,0-2.56.48,15.72,15.72,0,0,1-2.4.64c.42-2.15.87-3.46,1.34-4s1.74-1,3.82-1.45a2.33,2.33,0,0,1,.68-.08A10,10,0,0,1,818,1259.74Z" fill="#757e96"/><path d="M845.86,1250.49a11.36,11.36,0,0,1-1.56,4h-1.68a7.42,7.42,0,0,0-5.68,2.32c-1,1.44-2.08,2.9-3.12,4.36a5.72,5.72,0,0,1-4.6,2.32c-2.75,0-4.4,0-5,.08-2.14.24-3.63.86-4.48,1.84h-.6l-.16-.47a5,5,0,0,1,3.64-5.17,25.41,25.41,0,0,1,6.88-.64,6,6,0,0,0,4.32-2.25l3.32-4.14c1.3-1.5,2.6-2.25,3.88-2.25Z" fill="#757e96"/><path d="M868.34,1250.49l-1.32,4H865.7a10.28,10.28,0,0,0-5.36,1.56c-.35.22-1.67,1.2-4,3a6.17,6.17,0,0,1-3.44,1.56,4.27,4.27,0,0,1-3.72-1.88,6.36,6.36,0,0,1-1-4.2h-5.32a35.84,35.84,0,0,1,1.24-4,16.64,16.64,0,0,0,4.28-.28q1.08-.51,1.08-3.24a64.71,64.71,0,0,0-.66-7.7,64.3,64.3,0,0,1-.66-7.58,8.54,8.54,0,0,1,1.4-4.52,9.69,9.69,0,0,1,3.36-3.32l.16.64a8.19,8.19,0,0,0-1.56,4.92c0,1.74.12,4.37.38,7.9s.38,6.18.38,7.94c1.09-1.36,2.2-2.7,3.32-4,1.46-1.62,2.88-2.44,4.24-2.44a2.3,2.3,0,0,1,1.88.9,3.21,3.21,0,0,1,.72,2.06q0,3.48-4,8t-7.52,4.56a4.08,4.08,0,0,0,3.52,2c.53,0,1.34-.5,2.44-1.52a24,24,0,0,1,3.56-2.76,11.15,11.15,0,0,1,5.72-1.52Zm-8.52-5.36c0-1.46-.7-2.2-2.08-2.2q-2.93,0-6.68,7.24a16.57,16.57,0,0,0,5.08-1.8Q859.82,1246.54,859.82,1245.13Z" fill="#757e96"/><path d="M878.22,1244.77a11.41,11.41,0,0,1-2.2,6c-1.6,2.46-3.23,3.68-4.88,3.68h-5.88a19.55,19.55,0,0,1,1.8-4,39.79,39.79,0,0,0,4.76-.16c2.26-.32,3.4-1.13,3.4-2.44a28.63,28.63,0,0,0-1.88-8.22,28.29,28.29,0,0,1-1.88-8.42,7.47,7.47,0,0,1,1-4l2.52-3.16.64.48c-.62.67-.92,2-.92,4.12a27.78,27.78,0,0,0,1.76,8.08A28.11,28.11,0,0,1,878.22,1244.77Z" fill="#757e96"/><path d="M889,1246.17a9.85,9.85,0,0,1-4.16,8.56l-.44-.44a17.81,17.81,0,0,0,1-3.22,12.32,12.32,0,0,0,.46-3.1q-.72-4.2-1.4-8.4a52.23,52.23,0,0,1-.88-8.4q0-4.11,4.56-7.2a.94.94,0,0,1,0,.28,11.57,11.57,0,0,1-.39,2.22,11.17,11.17,0,0,0-.4,2.54,65.39,65.39,0,0,0,.82,8.62A67.17,67.17,0,0,1,889,1246.17Z" fill="#757e96"/><path d="M198.53,1392.51q-.45,1.62-.48,1.68a3.23,3.23,0,0,1-.75,1.32h-1.41a4.75,4.75,0,0,1-3.27-1.07,3.81,3.81,0,0,1-1.2-3,35.48,35.48,0,0,1,.43-4.53,36.06,36.06,0,0,0,.44-4.62,13.46,13.46,0,0,0-1.44-6.42q1.26-1.8,2.07-2.73a12.45,12.45,0,0,1,1.71,7,33.49,33.49,0,0,1-.48,4.69,33.47,33.47,0,0,0-.48,4.61,2.91,2.91,0,0,0,1.05,2.58,4.77,4.77,0,0,0,2.58.54Z" fill="#757e96"/><path d="M209.48,1360.86a13.65,13.65,0,0,1-.33,1.62q-3.06,1.41-6.84,2.94a2.37,2.37,0,0,1,1.44-2.19q.12-.09,2.67-1A15.65,15.65,0,0,0,209.48,1360.86Zm-.39,2.52a2.73,2.73,0,0,1-1.32,2.19,13.33,13.33,0,0,1-2.78,1.26,13.1,13.1,0,0,0-2.68,1.2v-.9Q202.31,1366.23,209.09,1363.38Z" fill="#757e96"/><path d="M215.48,1392.51l-1,3h-1a7.72,7.72,0,0,0-4,1.17q-.39.24-3,2.22a4.62,4.62,0,0,1-2.58,1.17,3.21,3.21,0,0,1-2.79-1.41,4.8,4.8,0,0,1-.78-3.15h-4a27.46,27.46,0,0,1,.93-3,12.6,12.6,0,0,0,3.21-.21q.81-.39.81-2.43a48.75,48.75,0,0,0-.5-5.78,48,48,0,0,1-.49-5.68,6.44,6.44,0,0,1,1-3.39,7.31,7.31,0,0,1,2.52-2.49l.12.48a6.14,6.14,0,0,0-1.17,3.69q0,2,.28,5.92t.29,6q1.23-1.53,2.49-3a4.5,4.5,0,0,1,3.18-1.83,1.72,1.72,0,0,1,1.41.67,2.42,2.42,0,0,1,.54,1.55q0,2.61-3,6c-2.06,2.32-3.95,3.46-5.64,3.42a3.06,3.06,0,0,0,2.64,1.5q.6,0,1.83-1.14a17.82,17.82,0,0,1,2.67-2.07,8.35,8.35,0,0,1,4.29-1.14Zm-6.39-4c0-1.1-.53-1.65-1.56-1.65q-2.19,0-5,5.43a12.52,12.52,0,0,0,3.81-1.35Q209.09,1389.54,209.09,1388.49Z" fill="#757e96"/><path d="M225.92,1392.51q-.15.84-.33,1.71-.24,1.29-.72,1.29h-4.71q-1.29,0-1.59-.48l-1.8.31a10,10,0,0,1-1.74.17h-1.62q.42-1.32,1.08-3h2.25a9.88,9.88,0,0,0,3.24-.36,2.57,2.57,0,0,0,1.08-1,5.7,5.7,0,0,1,1.47-1.47v.45l-1.17,2.22q.15.18,1.11.18Zm-2.25,7.41a10.16,10.16,0,0,1-.78,1.59q-.69,1.2-1.08,1.2a3,3,0,0,1-.84-.2,2.91,2.91,0,0,0-.87-.19,7.94,7.94,0,0,0-2,.3l-1.92.57a.45.45,0,0,1-.24-.39,3.87,3.87,0,0,1,.63-1.43,6.25,6.25,0,0,1,1-1.35,4.64,4.64,0,0,1,1.77-.55,10.43,10.43,0,0,1,2-.27A3.44,3.44,0,0,1,223.67,1399.92Z" fill="#757e96"/><path d="M233.39,1392.51a7.34,7.34,0,0,1-1.14,3h-3.6a1.49,1.49,0,0,1-.3-.6,9.32,9.32,0,0,1-3.12.6h-1.29a19,19,0,0,1,.93-2.94,14.7,14.7,0,0,0,3.57-.3,4.35,4.35,0,0,0,3.24-3.09q.54.21.54.3a7.38,7.38,0,0,1-.69,1.32q-.42.72-.87,1.44a3.76,3.76,0,0,0,1.62.27Z" fill="#757e96"/><path d="M242.35,1392.51c-.2.66-.47,1.66-.83,3h-2.61c-.54,0-.87-.18-1-.54a10.67,10.67,0,0,1-3.78.69l-.13-.39a2.16,2.16,0,0,0-.73.13,2,2,0,0,1-.79.11h-1.14a9.58,9.58,0,0,1,.87-3,7,7,0,0,0,1.56-.12,8.84,8.84,0,0,0,1.41-.54,2.51,2.51,0,0,0,1-1.1,3,3,0,0,1,1-1.12v.55a5.32,5.32,0,0,1-.48,1.07c-.35.69-.54,1.09-.57,1.19s.1.07.27.07a3.8,3.8,0,0,0,2.61-.86l1.83-2a.37.37,0,0,1,.15.33,2.76,2.76,0,0,1-.46,1,2.39,2.39,0,0,0-.41,1.26l.34.18a1,1,0,0,0,.41.15Z" fill="#757e96"/><path d="M250.09,1388.64a4,4,0,0,1-.36,1.74q-.45.75-.87,1.5a6.73,6.73,0,0,1-6.42,3.63H240.1q.6-1.29,1.47-3,2.37,0,3.18-.09a6.86,6.86,0,0,0,3-1v-.39a4.42,4.42,0,0,0-.76-2.45,9.25,9.25,0,0,1-.8-1.39q1.62-2.52,2-2.52c.32,0,.72.55,1.19,1.66A7.37,7.37,0,0,1,250.09,1388.64Zm-2.58,11.49a3.07,3.07,0,0,1-.84,1.44q-.63.63-1.23,1.26l-2.79-1.8a8.73,8.73,0,0,1,2.19-2.58Z" fill="#757e96"/><path d="M264.07,1389.27a7.39,7.39,0,0,1-3.12,6.42l-.33-.33a13.34,13.34,0,0,0,.74-2.42,8.71,8.71,0,0,0,.34-2.32q-.54-3.15-1.05-6.3a39.57,39.57,0,0,1-.66-6.3q0-3.09,3.42-5.4a.51.51,0,0,1,0,.21,8.45,8.45,0,0,1-.3,1.66,8.54,8.54,0,0,0-.3,1.91,49.66,49.66,0,0,0,.62,6.46A49.27,49.27,0,0,1,264.07,1389.27Z" fill="#757e96"/><path d="M277.57,1377.11a13.65,13.65,0,0,1-.33,1.62q-3.06,1.41-6.84,2.94a2.37,2.37,0,0,1,1.44-2.19q.12-.09,2.67-1A15.65,15.65,0,0,0,277.57,1377.11Zm-.39,2.52a2.7,2.7,0,0,1-1.32,2.19,13.18,13.18,0,0,1-2.77,1.26,13.26,13.26,0,0,0-2.69,1.2v-.9Q270.4,1382.48,277.18,1379.63Z" fill="#757e96"/><path d="M283.42,1392.51a8.46,8.46,0,0,1-1.17,3H281a5.55,5.55,0,0,0-4.26,1.74l-2.34,3.27a4.29,4.29,0,0,1-3.45,1.74q-3.09,0-3.72.06a5.06,5.06,0,0,0-3.36,1.38h-.45l-.12-.36a3.74,3.74,0,0,1,2.73-3.88,19,19,0,0,1,5.16-.47,4.48,4.48,0,0,0,3.24-1.69l2.49-3.11a4,4,0,0,1,2.91-1.68Z" fill="#757e96"/><path d="M294.13,1388.73a3.23,3.23,0,0,1-.42,1.23l-.63,1.23q-1.62,4.32-9.72,4.32H281a16.13,16.13,0,0,1,1.11-3q2.64,0,3.09,0,2.43-.15,2.43-.75a4.92,4.92,0,0,1,1.38-3,3.86,3.86,0,0,1,2.76-1.77,2.81,2.81,0,0,1,1.59.42A1.59,1.59,0,0,1,294.13,1388.73Z" fill="#757e96"/><path d="M303.1,1368.06q0,2.43-2.79,3.69l-4.71,1.71A3.08,3.08,0,0,1,297,1371a15.34,15.34,0,0,1,2.4-.66,3.72,3.72,0,0,0,2.22-1.2.64.64,0,0,0-.33-.06,2.44,2.44,0,0,0-.91.28,2.56,2.56,0,0,1-.89.29,2.12,2.12,0,0,1-1.29-.42,1.29,1.29,0,0,1-.57-1.08,4,4,0,0,1,1.31-2.79,3.81,3.81,0,0,1,2.74-1.35q.72,0,.72.33a2.06,2.06,0,0,1-.55,1.09c-.37.47-.68.71-.92.71l-.3-.05a1.6,1.6,0,0,0-.33,0q-1.2,0-1.2.72c0,.18.18.36.53.55a1.93,1.93,0,0,0,.76.29,3.93,3.93,0,0,0,1-.35,3.71,3.71,0,0,1,1-.34Q303.1,1366.92,303.1,1368.06Z" fill="#757e96"/><path d="M301.39,1389.27a7.39,7.39,0,0,1-3.12,6.42l-.33-.33a13.34,13.34,0,0,0,.74-2.42,8.71,8.71,0,0,0,.34-2.32q-.54-3.15-1-6.3a39.57,39.57,0,0,1-.66-6.3q0-3.09,3.42-5.4a.51.51,0,0,1,0,.21,8.45,8.45,0,0,1-.3,1.66,8.54,8.54,0,0,0-.3,1.91,49.66,49.66,0,0,0,.62,6.46A49.27,49.27,0,0,1,301.39,1389.27Z" fill="#757e96"/><path d="M326.74,1392.51a8.46,8.46,0,0,1-1.17,3h-1.26a5.55,5.55,0,0,0-4.26,1.74l-2.34,3.27a4.29,4.29,0,0,1-3.45,1.74q-3.09,0-3.72.06a5.06,5.06,0,0,0-3.36,1.38h-.45l-.12-.36a3.74,3.74,0,0,1,2.73-3.88,19,19,0,0,1,5.16-.47,4.48,4.48,0,0,0,3.24-1.69l2.49-3.11a4,4,0,0,1,2.91-1.68Z" fill="#757e96"/><path d="M334,1388.64a4,4,0,0,1-.36,1.74q-.45.75-.87,1.5a6.73,6.73,0,0,1-6.42,3.63H324q.6-1.29,1.47-3,2.37,0,3.18-.09a6.86,6.86,0,0,0,3-1v-.39a4.42,4.42,0,0,0-.76-2.45,9.25,9.25,0,0,1-.8-1.39q1.62-2.52,2-2.52c.32,0,.72.55,1.19,1.66A7.37,7.37,0,0,1,334,1388.64Zm-.72-10.23q0,2.46-2.76,3.69-2.37.84-4.71,1.71a3,3,0,0,1,1.41-2.43,10.76,10.76,0,0,1,2.37-.66,3.72,3.72,0,0,0,2.22-1.23.64.64,0,0,0-.33-.06,2.52,2.52,0,0,0-.9.3,2.52,2.52,0,0,1-.9.3,2.08,2.08,0,0,1-1.27-.44,1.31,1.31,0,0,1-.59-1.09,4,4,0,0,1,1.32-2.78,3.82,3.82,0,0,1,2.73-1.36q.72,0,.72.36a2.19,2.19,0,0,1-.54,1.08q-.54.72-.9.72a1.29,1.29,0,0,1-.33-.06,1.29,1.29,0,0,0-.33-.06q-1.2,0-1.2.75c0,.16.18.33.53.52a1.92,1.92,0,0,0,.79.29,3.79,3.79,0,0,0,.95-.33,3.77,3.77,0,0,1,.94-.33Q333.28,1377.3,333.28,1378.41Z" fill="#757e96"/><path d="M342,1389.27a7.39,7.39,0,0,1-3.12,6.42l-.33-.33a13.34,13.34,0,0,0,.74-2.42,8.71,8.71,0,0,0,.34-2.32q-.54-3.15-1.05-6.3a39.57,39.57,0,0,1-.66-6.3q0-3.09,3.42-5.4a.51.51,0,0,1,0,.21,8.45,8.45,0,0,1-.3,1.66,8.54,8.54,0,0,0-.3,1.91,49.66,49.66,0,0,0,.62,6.46A49.27,49.27,0,0,1,342,1389.27Z" fill="#757e96"/><path d="M361.33,1392.51a8.46,8.46,0,0,1-1.17,3H358.9a5.55,5.55,0,0,0-4.26,1.74l-2.34,3.27a4.29,4.29,0,0,1-3.45,1.74q-3.09,0-3.72.06a5.06,5.06,0,0,0-3.36,1.38h-.45l-.12-.36a3.74,3.74,0,0,1,2.73-3.88,19,19,0,0,1,5.16-.47,4.48,4.48,0,0,0,3.24-1.69l2.49-3.11a4,4,0,0,1,2.91-1.68Zm-4.47-8a2.89,2.89,0,0,1-.69,1.44l-1.08,1.38q-.66-.33-3.06-1.77a4.08,4.08,0,0,1,.81-1.38q.54-.66,1.05-1.32Q354.85,1383.36,356.86,1384.53Z" fill="#757e96"/><path d="M374.59,1388.52q0,4.59-5.55,6.15a35.62,35.62,0,0,1-9,.84h-.84a16,16,0,0,1,.81-3h1.71a45.5,45.5,0,0,0,5.49-.42q4.23-.57,5-1.35-.33-2-4.05-2a10.24,10.24,0,0,0-3.48.48l-.69-.12.69-1.38a3.25,3.25,0,0,1,1.89-1.65c.7-.2,1.4-.43,2.09-.68a1.38,1.38,0,0,0,1-1.39,11.18,11.18,0,0,0-1-3.81,11.26,11.26,0,0,1-1-3.81q0-2.76,2.88-5.28l.24.39a7.4,7.4,0,0,0-.57,2.79,11.85,11.85,0,0,0,.93,3.79,11.9,11.9,0,0,1,.93,3.8,7.31,7.31,0,0,1-1.59,3.78Q374.59,1386.45,374.59,1388.52ZM369,1399.71q0,.33-2.28,2.4a16,16,0,0,1-2.58-2.4q0-.21,1.05-1.2.9-.87,1.32-1.2l1.41,1.2Q369,1399.44,369,1399.71Z" fill="#757e96"/><path d="M381.37,1389.27a7.39,7.39,0,0,1-3.12,6.42l-.33-.33a13.34,13.34,0,0,0,.74-2.42,8.71,8.71,0,0,0,.34-2.32q-.54-3.15-1.05-6.3a39.57,39.57,0,0,1-.66-6.3q0-3.09,3.42-5.4a.51.51,0,0,1,0,.21,8.45,8.45,0,0,1-.3,1.66,8.54,8.54,0,0,0-.3,1.91,49.66,49.66,0,0,0,.62,6.46A49.27,49.27,0,0,1,381.37,1389.27Z" fill="#757e96"/><path d="M414.55,1387.74q0,4.29-7.53,6.84a35.14,35.14,0,0,1-11.31,2,8.46,8.46,0,0,1-3.78-.87,3.3,3.3,0,0,1-2.1-2.91,8.46,8.46,0,0,1,1.59-4.1c1.06-1.69,2.06-2.68,3-3a26,26,0,0,1,3.93-.6,8,8,0,0,0,3.81-1.29v.45q-.81,1.44-1.14,1.89a4.31,4.31,0,0,1-1.5,1.53,10.67,10.67,0,0,1-2.73.51,20.15,20.15,0,0,0-3.39.54q-1.65.51-1.65,1.56,0,3.06,6.06,3.06,8.55,0,14.4-3.75-.48-1.41-3-1.41a17.19,17.19,0,0,0-2.2.19,17.61,17.61,0,0,1-2.15.2l-.12-.33q1.17-1.92,1.89-2.94l3.15-.6q2.28-.6,2.28-1.56a4.37,4.37,0,0,0-.84-2.55q-1.05,1-1.11,1.08a2.19,2.19,0,0,1-1.41.48,1.59,1.59,0,0,1-1.26-.66,2.15,2.15,0,0,1-.54-1.38,5.28,5.28,0,0,1,1.2-2.88q1.26-1.8,2.4-1.8,1.35,0,2.67,1.92a5.93,5.93,0,0,1,1.23,3.24,4.83,4.83,0,0,1-.66,2.4,17.67,17.67,0,0,1-1.5,2q0,.18.63.48a3.22,3.22,0,0,1,1.11.69A2.11,2.11,0,0,1,414.55,1387.74Zm-7.71,10.77a10.71,10.71,0,0,1-.57,1.77q-.57,1.44-.93,1.44a3.94,3.94,0,0,1-.85-.2,3.78,3.78,0,0,0-1-.19,10.68,10.68,0,0,0-4.35,1.44.47.47,0,0,1-.24-.42,3.81,3.81,0,0,1,1.8-3.24,6.24,6.24,0,0,1,3.66-1.11A7.52,7.52,0,0,1,406.84,1398.51ZM408,1374a9.75,9.75,0,0,1-1.05,1.57c-.62.83-1,1.25-1.11,1.25a7.6,7.6,0,0,1-1.26-.63q-1.29-.72-1.44-.78V1375a5,5,0,0,1,.93-1.29q.93-1.11,1.08-1.11s.5.22,1.37.66S407.89,1373.93,408,1374Z" fill="#757e96"/><path d="M439.21,1403.4l-1.71,2.37-2.49-.57a13.85,13.85,0,0,0-2.82.43,14.08,14.08,0,0,1-2.88.44,7.31,7.31,0,0,1-4.68-1.47,5.16,5.16,0,0,1-2.07-4.32,10.55,10.55,0,0,1,1.92-5.28,12.27,12.27,0,0,1,3.81-4.17l-1.17-1.32a3.59,3.59,0,0,1,1.44-2.46,4.1,4.1,0,0,1,2.61-1.32,3.87,3.87,0,0,1,2.25.66,2.36,2.36,0,0,1,1.11,2,3,3,0,0,1-.54,1.51,3.1,3.1,0,0,0-.54,1.22c0,.36.24.68.74,1a3.08,3.08,0,0,0,1.57.42H437l-.78,3H435a4.46,4.46,0,0,1-2.67-.84,7.57,7.57,0,0,1-1.53-1.56q-.63-.87-.75-.87a28.09,28.09,0,0,0-3.51,2.4,4.87,4.87,0,0,0-1.8,3.63,3.92,3.92,0,0,0,1.74,3.48,6.66,6.66,0,0,0,3.87,1,17.21,17.21,0,0,0,3-.39,17.12,17.12,0,0,1,3-.39,6.45,6.45,0,0,1,1.47.21l1.47.39Z" fill="#757e96"/><path d="M453.76,1392.51q-.36,1.14-1.14,3h-.84a4.43,4.43,0,0,1-3.39-1.11,4.66,4.66,0,0,1-1-3.27,1.75,1.75,0,0,0-1.86-1.86,4.16,4.16,0,0,0-2.7,1.26,5.31,5.31,0,0,1,2.22.45,2.18,2.18,0,0,1,.9,2,3.68,3.68,0,0,1-1.05,2.65,3.44,3.44,0,0,1-2.58,1.1,2.09,2.09,0,0,1-1.62-.51l-.84-1.44-1.63.46a6.52,6.52,0,0,1-1.76.23h-1.17a30.14,30.14,0,0,1,.84-3,11.78,11.78,0,0,0,2.09-.29,5.92,5.92,0,0,0,4.21-2.59,26.55,26.55,0,0,1,1.89-2.25,4.33,4.33,0,0,1,2.85-1,2,2,0,0,1,2.13,1.59l.54,3a2.22,2.22,0,0,0,2.37,1.59Z" fill="#757e96"/><path d="M465,1392.51q-1.26,3-1.95,3h-4.71q-1.29,0-1.59-.48l-1.8.31a10,10,0,0,1-1.74.17h-1.92q.57-1.32,1.38-3h2.25a9.88,9.88,0,0,0,3.24-.36,2.57,2.57,0,0,0,1.08-1,5.7,5.7,0,0,1,1.47-1.47v.45l-1.17,2.22q.15.18,1.11.18ZM463,1379.67a12.43,12.43,0,0,1-.9,2.16q-.54,1.11-4.62,1.11a3.27,3.27,0,0,1-1.77-.42,11.32,11.32,0,0,1,1.41-3.09,20.87,20.87,0,0,0,2.7.18,6.72,6.72,0,0,0,1.75-.3,9.27,9.27,0,0,1,1.22-.3l.21.06Z" fill="#757e96"/><path d="M483.55,1392.51l-1.2,3h-2a3.07,3.07,0,0,1-2.55-1.29,4.66,4.66,0,0,1-1-2.91,5.68,5.68,0,0,1,.3-1.44,5.68,5.68,0,0,0,.3-1.44q0-1.8-2.94-1.8a10.91,10.91,0,0,0-3.39.81,8.91,8.91,0,0,1,1.92.42,1.62,1.62,0,0,1,.9,1.59q0,1.32-1.92,3.69t-3.21,2.37h-6.93a.74.74,0,0,1-.12-.42,7.14,7.14,0,0,1,1.26-2.58q8.76,0,8.76-.87,0-1.2-2-1.2a5.34,5.34,0,0,0-3.18,1q-.57-.06-.57-.54,0-2.37,3.87-4.83a12.34,12.34,0,0,1,6.36-2.31,4.49,4.49,0,0,1,2.28.57,2.14,2.14,0,0,1,1.23,1.89,5.21,5.21,0,0,1-.35,1.51,5.22,5.22,0,0,0-.34,1.58,3.18,3.18,0,0,0,.79,2.11,3.14,3.14,0,0,0,2,1.13Zm-13,7.29a3.07,3.07,0,0,1-.84,1.44q-.63.63-1.23,1.26l-2.79-1.8a8.66,8.66,0,0,1,2.19-2.59Z" fill="#757e96"/><path d="M492.34,1390.38q0,3.24-3.42,4.41a19.16,19.16,0,0,1-6,.72h-1.26a18.08,18.08,0,0,1,.72-3H484a6.48,6.48,0,0,0,2.1-.3l1.08-1.8a4.4,4.4,0,0,0,.54-2,18.66,18.66,0,0,0-1.13-5.19,18.62,18.62,0,0,1-1.12-5.28,6.58,6.58,0,0,1,3.09-5.67l.12.24q-.78.3-.78,2.88a20.13,20.13,0,0,0,1.08,5.41,20.14,20.14,0,0,1,1.08,5.36,5.58,5.58,0,0,1-.69,2.52l1.86.36A1.35,1.35,0,0,1,492.34,1390.38Z" fill="#757e96"/><path d="M499.45,1389.27a7.39,7.39,0,0,1-3.12,6.42l-.33-.33a13.53,13.53,0,0,0,.73-2.42,8.87,8.87,0,0,0,.35-2.32q-.54-3.15-1.05-6.3a39.57,39.57,0,0,1-.66-6.3q0-3.09,3.42-5.4a.51.51,0,0,1,0,.21,8.45,8.45,0,0,1-.3,1.66,8.54,8.54,0,0,0-.3,1.91,49.26,49.26,0,0,0,.61,6.46A49.69,49.69,0,0,1,499.45,1389.27Z" fill="#757e96"/><path d="M532,1387.17q0,4.59-6.27,7a28.85,28.85,0,0,1-10.14,1.71,13.43,13.43,0,0,1-4.74-.72q-2.7-1-2.7-3.42a6.68,6.68,0,0,1,1.14-3.6,9.15,9.15,0,0,1,2.67-2.73,8,8,0,0,1,4.26-.81c.44,0,1,0,1.74,0l1.44.05a8.39,8.39,0,0,0,2.55-.6l.12.36a7.73,7.73,0,0,1-2.34,2.46,4.81,4.81,0,0,1-2.43.54c-.28,0-.83,0-1.65-.08s-1.51-.07-2.07-.07a5.26,5.26,0,0,0-2.13.42,1.77,1.77,0,0,0-1.26,1.59q0,3.66,7.11,3.66a36.47,36.47,0,0,0,7-.69q5.28-1,5.28-3a4.21,4.21,0,0,0-.17-1,4.08,4.08,0,0,1-.16-1,6.45,6.45,0,0,1,1-1.2,15.25,15.25,0,0,1,1.23-1.26A9,9,0,0,1,532,1387.17Zm-8-7.59a12.43,12.43,0,0,1-.9,2.16q-.54,1.11-4.62,1.11a3.27,3.27,0,0,1-1.77-.42,11.32,11.32,0,0,1,1.41-3.09,20.87,20.87,0,0,0,2.7.18,6.72,6.72,0,0,0,1.75-.3,9.27,9.27,0,0,1,1.22-.3l.21.06Z" fill="#757e96"/><path d="M560.41,1392.51a24.39,24.39,0,0,1-1.08,3h-2.64q-3.72,0-3.72-8a41.56,41.56,0,0,1,.36-5.31,27.32,27.32,0,0,1-3,6.6q-4.26,6.63-10.44,6.63a12.9,12.9,0,0,0-8.55,3.36l-.12-.33a4.75,4.75,0,0,1,1.65-3.81,9,9,0,0,1,3.78-1.74l4.23-.84q1.8-3.36,1.53-5.34-1-7-1-8.43,0-1.59,2.49-3.48h.42a.51.51,0,0,1,0,.21,7.17,7.17,0,0,1-.15,1.06,7.64,7.64,0,0,0-.15,1,31.77,31.77,0,0,0,.39,3.81,31.77,31.77,0,0,1,.39,3.81,9.59,9.59,0,0,1-.75,3.78q-1.32,3.09-1.41,3.36,2.28.24,4.89-3.42a74.75,74.75,0,0,0,3.93-6.93q2-3.78,2.73-3.78a1.72,1.72,0,0,1,1.08.63,2.41,2.41,0,0,1,.06.66c0,.52,0,1.48-.14,2.88s-.13,2.23-.13,2.49a14.38,14.38,0,0,0,.93,5.49q1.11,2.64,3.12,2.64Z" fill="#757e96"/><path d="M572.74,1392.51q-.42,1.71-.84,3h-1.8a3.56,3.56,0,0,1-2.73-1.17l-1.74-2.25-1.43,1.74a4.48,4.48,0,0,1-1.42,1.23,5.36,5.36,0,0,1-2.34.45h-2.07l.9-3.12h1.44q3.36,0,4.14-1.35.51-.93.51-5.13a15.79,15.79,0,0,0-.83-4.5,20,20,0,0,1-.82-3.09q1.29-1.71,2.1-2.58a10.57,10.57,0,0,1,1.35,3.63,18.68,18.68,0,0,1,.75,4,15.74,15.74,0,0,1-.21,2.1,15.74,15.74,0,0,0-.21,2.1,6,6,0,0,0,1,3.58,3.23,3.23,0,0,0,2.78,1.4Zm2.55-24q0,3.33-5.4,5.67a21.14,21.14,0,0,1-8.37,1.92,7.69,7.69,0,0,1-.8-.06,7.54,7.54,0,0,0-.79-.06l-.12-.33.9-2.94h.39a21,21,0,0,0,7.41-1.17,44.71,44.71,0,0,0,6.66-3.51A1,1,0,0,1,575.29,1368.54Z" fill="#757e96"/><path d="M580.39,1392.51a7.2,7.2,0,0,1-1.14,3h-3.6a1.63,1.63,0,0,1-.3-.6,9.32,9.32,0,0,1-3.12.6h-1.29a19,19,0,0,1,.93-2.94,14.65,14.65,0,0,0,3.57-.3,4.35,4.35,0,0,0,3.24-3.09q.54.21.54.3a6.66,6.66,0,0,1-.69,1.32q-.42.72-.87,1.44a3.76,3.76,0,0,0,1.62.27Z" fill="#757e96"/><path d="M589.36,1392.51q-.3,1-.84,3h-2.61q-.81,0-1-.54a10.63,10.63,0,0,1-3.78.69l-.12-.39a2.24,2.24,0,0,0-.74.13,2,2,0,0,1-.79.11h-1.14a9.58,9.58,0,0,1,.87-3,6.9,6.9,0,0,0,1.56-.12,8.48,8.48,0,0,0,1.41-.54,2.51,2.51,0,0,0,1-1.1,3,3,0,0,1,1-1.12v.55a4.73,4.73,0,0,1-.48,1.07c-.34.69-.53,1.09-.57,1.19s.11.07.27.07a3.78,3.78,0,0,0,2.61-.86l1.83-2a.35.35,0,0,1,.15.33,2.86,2.86,0,0,1-.45,1,2.33,2.33,0,0,0-.42,1.26l.34.18a1.08,1.08,0,0,0,.41.15Zm-1.11-13a4.59,4.59,0,0,1-.83,1.56c-.55.82-.9,1.23-1.06,1.23a5.92,5.92,0,0,1-.68-1,1.8,1.8,0,0,0-1.57-1,2.48,2.48,0,0,0-1.86.93,10.33,10.33,0,0,0-1.35,2,10.89,10.89,0,0,1-1.17,1.83q-.36-.12-.36-.36,0-1.65,2.31-4.53t3.93-2.88a2.8,2.8,0,0,1,1.75.7A2,2,0,0,1,588.25,1379.55Z" fill="#757e96"/><path d="M600.55,1388.73a3.23,3.23,0,0,1-.42,1.23l-.63,1.23q-1.62,4.32-9.72,4.32h-2.34a16.13,16.13,0,0,1,1.11-3q2.64,0,3.09,0,2.43-.15,2.43-.75a4.92,4.92,0,0,1,1.38-3,3.86,3.86,0,0,1,2.76-1.77,2.81,2.81,0,0,1,1.59.42A1.59,1.59,0,0,1,600.55,1388.73Z" fill="#757e96"/><path d="M635,1392.51a11,11,0,0,1-1,3h-2a2.39,2.39,0,0,1-1.29-.45q-.54-.45-1.05-.93-.87,2.73-4.95,4.44a17.91,17.91,0,0,1-6.81,1.41,11.68,11.68,0,0,1-5.46-1.26q-3-1.56-3-4.29,0-1.89,2.13-4.44t4-2.55a17.43,17.43,0,0,1,2.16.19,17.9,17.9,0,0,0,2.16.2,3.6,3.6,0,0,0,1.77-.78l.15.33q0,3.21-5.16,3.21l-1.28,0-1.06,0q-2.73,0-2.73,1.71,0,2.49,3.06,3.78a13.35,13.35,0,0,0,5.22,1,15.41,15.41,0,0,0,4.8-.9q3.39-1.14,3.39-2.76a20.45,20.45,0,0,0-.9-3.57l1.17-1.35a8,8,0,0,1,1.26-1.17,7.65,7.65,0,0,0,1.32,3.75,3.31,3.31,0,0,0,2.76,1.53Zm-8.79-10.38a4.06,4.06,0,0,1-.87,1.44q-.87,1.14-1.17,1.14a5.83,5.83,0,0,1-1.61-.83c-.89-.55-1.33-.87-1.33-1a4,4,0,0,1,.9-1.38q.9-1.11,1.17-1.11a5.72,5.72,0,0,1,1.59.76C625.73,1381.69,626.17,1382,626.17,1382.13Z" fill="#757e96"/><path d="M652.45,1390.41a4.48,4.48,0,0,1-.68,1.48,7.44,7.44,0,0,1-1,1.43q-.51.45-6,1.29-4.59.72-5.61.81-1.23.09-6.54.09a6,6,0,0,1,1.35-3l5.16-.27q-.39-.6-.75-1.2a2.66,2.66,0,0,1-.42-1.32,5.57,5.57,0,0,1,2-4,5.86,5.86,0,0,1,4-1.93,5.59,5.59,0,0,1,2.28.66q1.5.75,1.5,1.56a5.45,5.45,0,0,1-1.59,2.94,5.17,5.17,0,0,0-3.81-2.16q-2.1,0-2.1.93,0,1.59,2.28,2.67a8.74,8.74,0,0,0,3.72.9,11.54,11.54,0,0,0,3.15-.51l3-1Z" fill="#757e96"/><path d="M679.3,1387.83s-.56,1-1.68,3l-5.49,1.62a27.19,27.19,0,0,0-6.15,2.7q-2.94,1.89-2.94,4a3.52,3.52,0,0,0,1.56,3,5.37,5.37,0,0,0,3.3,1,16.15,16.15,0,0,0,4.2-.83,16.07,16.07,0,0,1,4.23-.82,5.33,5.33,0,0,1,2.88.6,4,4,0,0,1-.62,1.68,3.3,3.3,0,0,1-1.15,1.32,12.78,12.78,0,0,0-2.37-.39,13.54,13.54,0,0,0-4,.88,13.6,13.6,0,0,1-4.06.89,6.21,6.21,0,0,1-4.14-1.44,4.89,4.89,0,0,1-1.83-3.93,10,10,0,0,1,1.44-4.83,16.19,16.19,0,0,1,3.12-4l-1.5-1.32a2.52,2.52,0,0,1-.84-1.8q0-2.19,2.38-4.52a6.82,6.82,0,0,1,4.61-2.32,5.15,5.15,0,0,1,1.56.36q1.2.42,1.2.84a5.25,5.25,0,0,1-.74,1.5c-.49.82-.81,1.25-1,1.29a4.57,4.57,0,0,0-4.56-.66q-1.14.45-1.14,1.32,0,1.26,1.71,2.16a5.9,5.9,0,0,0,2.82.78,20.45,20.45,0,0,0,4.56-1.08q2.91-.93,4.65-1.65Zm-7-10.86a4.6,4.6,0,0,1-.93,1.32,13.79,13.79,0,0,1-1.14,1.29q-.57-.48-2.7-1.89l1-1.44q.81-1.14,1.14-1.14a5.3,5.3,0,0,1,1.41.87A5.24,5.24,0,0,1,672.28,1377Z" fill="#757e96"/><path d="M708.4,1392.51a24.39,24.39,0,0,1-1.08,3h-2.64q-3.72,0-3.72-8a41.56,41.56,0,0,1,.36-5.31,27.32,27.32,0,0,1-3,6.6q-4.26,6.63-10.44,6.63a12.9,12.9,0,0,0-8.55,3.36l-.12-.33a4.75,4.75,0,0,1,1.65-3.81,9,9,0,0,1,3.78-1.74l4.23-.84q1.8-3.36,1.53-5.34-1-7-1-8.43,0-1.59,2.49-3.48h.42a.51.51,0,0,1,0,.21,7.17,7.17,0,0,1-.15,1.06,7.64,7.64,0,0,0-.15,1,31.77,31.77,0,0,0,.39,3.81,31.77,31.77,0,0,1,.39,3.81,9.59,9.59,0,0,1-.75,3.78q-1.32,3.09-1.41,3.36,2.28.24,4.89-3.42a74.75,74.75,0,0,0,3.93-6.93q2-3.78,2.73-3.78a1.72,1.72,0,0,1,1.08.63,2.41,2.41,0,0,1,.06.66c0,.52-.05,1.48-.14,2.88s-.13,2.23-.13,2.49a14.38,14.38,0,0,0,.93,5.49q1.11,2.64,3.12,2.64Z" fill="#757e96"/><path d="M715.84,1388.64a4,4,0,0,1-.36,1.74q-.45.75-.87,1.5a6.73,6.73,0,0,1-6.42,3.63h-2.34q.6-1.29,1.47-3,2.37,0,3.18-.09a6.86,6.86,0,0,0,3-1v-.39a4.44,4.44,0,0,0-.77-2.45,8.61,8.61,0,0,1-.79-1.39q1.62-2.52,2-2.52c.32,0,.71.55,1.18,1.66A7.49,7.49,0,0,1,715.84,1388.64Zm-2.58,11.49a3.07,3.07,0,0,1-.84,1.44q-.63.63-1.23,1.26l-2.79-1.8a8.73,8.73,0,0,1,2.19-2.58Z" fill="#757e96"/><path d="M726.13,1401.06q0,2.43-2.79,3.69l-4.71,1.71A3.08,3.08,0,0,1,720,1404a15.34,15.34,0,0,1,2.4-.66,3.72,3.72,0,0,0,2.22-1.2.64.64,0,0,0-.33-.06,2.48,2.48,0,0,0-.92.28,2.53,2.53,0,0,1-.88.29,2.12,2.12,0,0,1-1.29-.42,1.29,1.29,0,0,1-.57-1.08,4,4,0,0,1,1.3-2.79,3.83,3.83,0,0,1,2.75-1.35q.72,0,.72.33a2.09,2.09,0,0,1-.56,1.09c-.37.47-.67.71-.91.71l-.3-.05a1.6,1.6,0,0,0-.33,0q-1.2,0-1.2.75c0,.16.17.33.52.52a2,2,0,0,0,.77.29,3.93,3.93,0,0,0,1-.35,3.71,3.71,0,0,1,1-.34Q726.13,1399.92,726.13,1401.06Z" fill="#757e96"/><path d="M737.35,1388.13a6.15,6.15,0,0,1-3.63,5.73,14.62,14.62,0,0,1-7,1.53,15.66,15.66,0,0,0-9.39,2.64l-.36-.39a7.41,7.41,0,0,1,2.7-3.39,9,9,0,0,1,3.24-.87,17.76,17.76,0,0,0,3.93-.84q.66-.24.66-3a34.74,34.74,0,0,0-.69-5,35.37,35.37,0,0,1-.69-4.84,3.59,3.59,0,0,1,.81-2.16,5.73,5.73,0,0,1,1.74-1.59q-.09,1-.09,1.53a33,33,0,0,0,.76,4.9,32.84,32.84,0,0,1,.77,5,8.19,8.19,0,0,1-1.65,5l.63.06q5.61,0,5.61-2.19a23.42,23.42,0,0,0-.74-4.4,27.77,27.77,0,0,1-.73-3.76,5.37,5.37,0,0,1,.91-2.91,5.84,5.84,0,0,1,2.27-2.13l.42.54a4.18,4.18,0,0,0-.78,2.46,28.09,28.09,0,0,0,.64,4A28,28,0,0,1,737.35,1388.13Z" fill="#757e96"/><path d="M744.88,1389.27a7.39,7.39,0,0,1-3.12,6.42l-.33-.33a13.53,13.53,0,0,0,.73-2.42,8.87,8.87,0,0,0,.35-2.32q-.54-3.15-1-6.3a39.57,39.57,0,0,1-.66-6.3q0-3.09,3.42-5.4a.51.51,0,0,1,0,.21,8.45,8.45,0,0,1-.3,1.66,8.54,8.54,0,0,0-.3,1.91,49.26,49.26,0,0,0,.61,6.46A49.69,49.69,0,0,1,744.88,1389.27Z" fill="#757e96"/><path d="M779.62,1392.51c-.12.44-.25.88-.38,1.33a6,6,0,0,1-.88,1.67h-.87a4.78,4.78,0,0,1-2.07-.39,7.34,7.34,0,0,1-1.65-1.29q-1.38,3.36-6.12,5.07a23.76,23.76,0,0,1-8.16,1.35,6.78,6.78,0,0,1-4-1.29,4.19,4.19,0,0,1-2-3.48,4.84,4.84,0,0,1,.39-1.59q.3-.81.63-1.59a6,6,0,0,1,3.39-3.81,22.45,22.45,0,0,1,4.71-.9,10.32,10.32,0,0,0,4.68-1.47,4.72,4.72,0,0,1-3.51,4.14q-.24.06-5.55.81-2.91.39-2.91,2.13a3.29,3.29,0,0,0,2.22,3,9.15,9.15,0,0,0,4,.81A19.85,19.85,0,0,0,768,1396q4.2-1.47,4.2-4.08a63.71,63.71,0,0,0-.74-8,63,63,0,0,1-.73-7.9,2.79,2.79,0,0,1,.9-2l1.71-1.47a42.91,42.91,0,0,1,.42,5.43q.15,4.5.3,6.09a15.8,15.8,0,0,0,1.23,5.19,10,10,0,0,0,1.2,1.89q1,1.32,1.92,1.32Z" fill="#757e96"/><path d="M791.79,1392.51c-.17.68-.49,1.68-.92,3H789a5.94,5.94,0,0,1-4.08-1.32,22.42,22.42,0,0,1-3.12,1.26c-.26,0-1.28.06-3,.06h-1.18c.11-.76.19-1.27.25-1.53a6.67,6.67,0,0,1,.48-1.47,24.83,24.83,0,0,0,4.8-.33A6,6,0,0,0,782,1391q-1-.87-1-1.2a3.4,3.4,0,0,1,1.29-2.63,4.16,4.16,0,0,1,2.79-1.12,3.83,3.83,0,0,1,2.23.75,2.22,2.22,0,0,1,1.07,1.86,3.37,3.37,0,0,1-.48,1.5,10.56,10.56,0,0,0-.69,1.47,3.71,3.71,0,0,0,2.55.9Z" fill="#757e96"/><path d="M807.1,1382.94q0,1-1.68,3.36a.37.37,0,0,1-.39-.36,2.56,2.56,0,0,0,0-.6c0-.72-.63-1.08-1.92-1.08a7.73,7.73,0,0,0-2.34.42,6.51,6.51,0,0,0-2.06,1,7.3,7.3,0,0,1,2.73.69,2.31,2.31,0,0,1,1.56,2.1,8.75,8.75,0,0,1-.89,2.32,11.45,11.45,0,0,1-1.3,2.33q-1.26,1.38-4.65,1.95a26.06,26.06,0,0,1-4.56.39H790a6.08,6.08,0,0,1,.84-3q4,0,5.16-.12a10.81,10.81,0,0,0,4.9-1.68c-.39-1.2-1.51-1.8-3.4-1.8-.37,0-1.21.07-2.51.21l-.21-.39a14.89,14.89,0,0,1,4.11-5.07,9.53,9.53,0,0,1,6-2.34,3,3,0,0,1,1.5.36A1.4,1.4,0,0,1,807.1,1382.94Zm-8.67,16.29a5.08,5.08,0,0,1-1,1.38c-.67.78-1.06,1.17-1.18,1.17s-.61-.34-1.32-1a13,13,0,0,1-1.26-1.29,19.41,19.41,0,0,1,2.28-2.37A10.55,10.55,0,0,1,798.43,1399.23Zm7.74-24.09a3.74,3.74,0,0,1-3.84,2.67,6.69,6.69,0,0,1-1.32-.2,6.45,6.45,0,0,0-1.3-.19,8.18,8.18,0,0,1,1.27-3.21,6,6,0,0,0,1.64.21,6.64,6.64,0,0,0,3.76-.93l.12.48A5.79,5.79,0,0,1,806.17,1375.14Z" fill="#757e96"/><path d="M843.37,1392.51q-.29,1-1,3H841c-1.46,0-2.38-.54-2.75-1.62-.21-1-.41-2-.61-3q-.6-1.59-2.85-1.59a9.33,9.33,0,0,0-2.67.48q-2,.63-2,1.44t1,.93h1.53c1.66,0,2.5.57,2.5,1.71a5.6,5.6,0,0,1-1.45,2.82q-3.51,4.5-10.95,4.5a11.91,11.91,0,0,1-5.31-1.08,4.5,4.5,0,0,1-2.85-4.2,6,6,0,0,1,2.43-5.19,9.15,9.15,0,0,1,5.55-1.53,5.79,5.79,0,0,0,1.8-.21c.52-.24,1-.49,1.54-.75a7.08,7.08,0,0,1-1.81,3.3,4.61,4.61,0,0,1-2.73.63l-1.08,0H819q-2.49,0-2.49,1.35,0,2.37,2.64,3.66a10.62,10.62,0,0,0,4.74,1,22.51,22.51,0,0,0,4.65-.48,9.18,9.18,0,0,0,4.23-1.83q-.06-.45-1.38-.57a10.17,10.17,0,0,1-2.4-.33,1.75,1.75,0,0,1-1.28-1.8c0-1.54,1-3.09,3.11-4.65a9.16,9.16,0,0,1,5.31-2.22c1.66,0,2.75.54,3.25,1.62a13.68,13.68,0,0,1,.44,3q.15,1.62,1.2,1.62Zm-13.15,10.92a7.19,7.19,0,0,1-.75,1.59q-.69,1.2-1.08,1.2a3,3,0,0,1-.87-.2,2.83,2.83,0,0,0-.84-.19,7.56,7.56,0,0,0-2,.3c-.65.2-1.3.39-2,.57a.44.44,0,0,1-.21-.36,3.79,3.79,0,0,1,.62-1.44,6.08,6.08,0,0,1,1-1.35,4.5,4.5,0,0,1,1.78-.57,10.43,10.43,0,0,1,2-.27A3.39,3.39,0,0,1,830.22,1403.43Z" fill="#757e96"/><path d="M853.8,1392.51a11.5,11.5,0,0,1-1,3H848c-.86,0-1.39-.16-1.58-.48l-1.81.31a9.93,9.93,0,0,1-1.74.17h-1.62c.28-.88.65-1.88,1.09-3h2.24a10,10,0,0,0,3.25-.36,2.61,2.61,0,0,0,1.07-1,5.86,5.86,0,0,1,1.47-1.47v.45l-1.17,2.22q.15.18,1.11.18Zm-1.65-11.46a4.13,4.13,0,0,1-.86,1.44q-.88,1.14-1.17,1.14a5.57,5.57,0,0,1-1.6-.83c-.88-.55-1.31-.87-1.31-1a4.32,4.32,0,0,1,.88-1.37c.59-.75,1-1.12,1.15-1.12a5.76,5.76,0,0,1,1.59.78Q852.15,1380.9,852.15,1381.05Z" fill="#757e96"/><path d="M866.19,1392.51q-.27,1-.93,3h-1.83a6,6,0,0,1-4.08-1.32,22.42,22.42,0,0,1-3.12,1.26c-.26,0-1.27.06-3,.06H852q.15-1.14.24-1.53a6.67,6.67,0,0,1,.48-1.47,24.76,24.76,0,0,0,4.8-.33,6,6,0,0,0-1.17-1.2q-1-.87-1-1.2a3.4,3.4,0,0,1,1.29-2.63,4.16,4.16,0,0,1,2.79-1.12,3.84,3.84,0,0,1,2.24.75,2.21,2.21,0,0,1,1.06,1.86,3.37,3.37,0,0,1-.48,1.5,13.81,13.81,0,0,0-.69,1.47,3.71,3.71,0,0,0,2.55.9Zm-4.73-13.59c0,.26-.74,1.1-2.2,2.52q-2.67-2.37-2.67-2.43a5.23,5.23,0,0,1,1-1.31c.67-.75,1.06-1.12,1.18-1.12a6.91,6.91,0,0,1,1.41,1.09A6.14,6.14,0,0,1,861.46,1378.92Z" fill="#757e96"/><path d="M878,1392.51q-.21.78-.42,1.53a4,4,0,0,1-.72,1.47h-1.08a4.4,4.4,0,0,1-2.44-1,3.7,3.7,0,0,1-1.61-2q-1.5,3-5.88,3h-1.77q.81-3,1.11-3a17.19,17.19,0,0,0,3.54-.33q2.55-.54,2.82-1.8a43.48,43.48,0,0,0,1.32-9.57,16.35,16.35,0,0,0-1.29-6.09q.63-.9,2-2.58,1.5,1.83,1.5,6.51a27.73,27.73,0,0,1-.67,5.1,27.8,27.8,0,0,0-.68,5,4.1,4.1,0,0,0,.93,2.59,2.73,2.73,0,0,0,2.19,1.19Z" fill="#757e96"/><path d="M885.42,1388.64a4,4,0,0,1-.36,1.74q-.45.75-.87,1.5a6.73,6.73,0,0,1-6.42,3.63h-2.34q.6-1.29,1.47-3,2.37,0,3.18-.09a6.86,6.86,0,0,0,3-1v-.39a4.42,4.42,0,0,0-.76-2.45,9.25,9.25,0,0,1-.8-1.39q1.62-2.52,2-2.52c.32,0,.72.55,1.19,1.66A7.37,7.37,0,0,1,885.42,1388.64Zm-2.58,11.49a3.07,3.07,0,0,1-.84,1.44q-.63.63-1.23,1.26L878,1401a8.73,8.73,0,0,1,2.19-2.58Z" fill="#757e96"/><path d="M143.13,1460.57a2.1,2.1,0,0,1-.24.6q-.27.6-.33.78a6.54,6.54,0,0,1-2.88,3.6,14.66,14.66,0,0,1-4,1.35,19.29,19.29,0,0,0-4,1.14,14.39,14.39,0,0,0-4.41,3.06q-.63.72-.9.69-.12,0-.12-.33a7.81,7.81,0,0,1,.24-1.47l.3-1.23q.45-.54.93-1.08a10.48,10.48,0,0,1,1.59-1.17A20.16,20.16,0,0,1,135,1464l4.32-1a5.29,5.29,0,0,0,3.45-2.67Q143.13,1460.24,143.13,1460.57Z" fill="#757e96"/><path d="M153.27,1464.29q-.45,1.62-.48,1.68a3.23,3.23,0,0,1-.75,1.32h-1.41a4.75,4.75,0,0,1-3.27-1.07,3.81,3.81,0,0,1-1.2-3,36,36,0,0,1,.44-4.53,35.64,35.64,0,0,0,.43-4.62,13.46,13.46,0,0,0-1.44-6.42q1.26-1.8,2.07-2.73a12.45,12.45,0,0,1,1.71,7,33.35,33.35,0,0,1-.48,4.69,33.47,33.47,0,0,0-.48,4.61,2.91,2.91,0,0,0,1.05,2.58,4.77,4.77,0,0,0,2.58.54Z" fill="#757e96"/><path d="M170.22,1464.29l-1,3h-1a7.72,7.72,0,0,0-4,1.17q-.39.24-3,2.22a4.62,4.62,0,0,1-2.58,1.17,3.21,3.21,0,0,1-2.79-1.41,4.8,4.8,0,0,1-.78-3.15h-4a27.46,27.46,0,0,1,.93-3,12.6,12.6,0,0,0,3.21-.21q.81-.39.81-2.43a48.15,48.15,0,0,0-.49-5.77,48.76,48.76,0,0,1-.5-5.69,6.44,6.44,0,0,1,1.05-3.39,7.31,7.31,0,0,1,2.52-2.49l.12.48a6.14,6.14,0,0,0-1.17,3.69c0,1.3.1,3.27.29,5.93s.28,4.63.28,5.95q1.23-1.53,2.49-3a4.52,4.52,0,0,1,3.18-1.83,1.72,1.72,0,0,1,1.41.67,2.42,2.42,0,0,1,.54,1.55q0,2.61-3,6t-5.64,3.42a3.08,3.08,0,0,0,2.64,1.5q.6,0,1.83-1.14a17.82,17.82,0,0,1,2.67-2.07,8.35,8.35,0,0,1,4.29-1.14Zm-6.39-4q0-1.65-1.56-1.65-2.19,0-5,5.43a12.52,12.52,0,0,0,3.81-1.35Q163.83,1461.32,163.83,1460.27Zm3-10.68a6.66,6.66,0,0,1-2.31,2.58q-.09-.12-1.35-1.26a7.66,7.66,0,0,1-1.11-1.11,4.88,4.88,0,0,1,.95-1.35c.63-.76,1-1.14,1.12-1.14a6,6,0,0,1,1.41,1A7.5,7.5,0,0,1,166.86,1449.59Z" fill="#757e96"/><path d="M181.56,1464.29q-1.26,3-1.95,3H174.9q-1.29,0-1.59-.48l-1.8.31a9.13,9.13,0,0,1-1.74.17h-1.92q.57-1.32,1.38-3h2.25a9.88,9.88,0,0,0,3.24-.36,2.57,2.57,0,0,0,1.08-1,5.7,5.7,0,0,1,1.47-1.47v.45l-1.17,2.22q.15.18,1.11.18Zm-1.92-12.84a12.43,12.43,0,0,1-.9,2.16q-.54,1.11-4.62,1.11a3.27,3.27,0,0,1-1.77-.42,11.32,11.32,0,0,1,1.41-3.09,20.87,20.87,0,0,0,2.7.18,6.78,6.78,0,0,0,1.76-.3,9.33,9.33,0,0,1,1.21-.3l.21.06Z" fill="#757e96"/><path d="M188.19,1460.42a4,4,0,0,1-.36,1.74q-.45.75-.87,1.5a6.73,6.73,0,0,1-6.42,3.63H178.2q.6-1.29,1.47-3,2.37,0,3.18-.09a6.86,6.86,0,0,0,3-1v-.39a4.37,4.37,0,0,0-.76-2.44,9.6,9.6,0,0,1-.8-1.4q1.62-2.52,2-2.52c.32,0,.72.55,1.19,1.67A7.26,7.26,0,0,1,188.19,1460.42ZM186.27,1450a3.1,3.1,0,0,1-.83,1.43c-.42.41-.83.83-1.22,1.25l-2.8-1.8a8.74,8.74,0,0,1,2.18-2.56Z" fill="#757e96"/><path d="M216.42,1464.29a24.39,24.39,0,0,1-1.08,3H212.7q-3.72,0-3.72-8a41.56,41.56,0,0,1,.36-5.31,27.32,27.32,0,0,1-3,6.6q-4.26,6.63-10.44,6.63a12.9,12.9,0,0,0-8.55,3.36l-.12-.33a4.75,4.75,0,0,1,1.65-3.81,9,9,0,0,1,3.78-1.74l4.23-.84q1.8-3.36,1.53-5.34-1-7-1-8.43,0-1.59,2.49-3.48h.42a.51.51,0,0,1,0,.21,7.42,7.42,0,0,1-.15,1.07,7.35,7.35,0,0,0-.15,1,31.77,31.77,0,0,0,.39,3.81,31.77,31.77,0,0,1,.39,3.81,9.59,9.59,0,0,1-.75,3.78q-1.32,3.09-1.41,3.36,2.28.24,4.89-3.42a74.75,74.75,0,0,0,3.93-6.93q2-3.78,2.73-3.78a1.72,1.72,0,0,1,1.08.63,2.41,2.41,0,0,1,.06.66c0,.52,0,1.48-.13,2.88s-.14,2.23-.14,2.49a14.38,14.38,0,0,0,.93,5.49q1.11,2.64,3.12,2.64Z" fill="#757e96"/><path d="M223.68,1460a8.52,8.52,0,0,1-1.65,4.53q-1.8,2.76-3.66,2.76H214a15.1,15.1,0,0,1,1.35-3,30.4,30.4,0,0,0,3.57-.12q2.55-.36,2.55-1.83a21.37,21.37,0,0,0-1.41-6.17,21.4,21.4,0,0,1-1.41-6.31,5.6,5.6,0,0,1,.75-3l1.89-2.37.48.36A4.81,4.81,0,0,0,221,1448a21,21,0,0,0,1.32,6.06A21,21,0,0,1,223.68,1460Z" fill="#757e96"/><path d="M261.36,1464.29q-.27,1-1,3H259a2.57,2.57,0,0,1-2.76-1.62l-.6-3q-.6-1.59-2.85-1.59a9.33,9.33,0,0,0-2.67.48q-2,.63-2,1.44t1,.93h1.53q2.49,0,2.49,1.71a5.56,5.56,0,0,1-1.44,2.82q-3.51,4.5-10.95,4.5a11.91,11.91,0,0,1-5.31-1.08,4.5,4.5,0,0,1-2.85-4.2,6,6,0,0,1,2.43-5.19,9.13,9.13,0,0,1,5.55-1.53,5.79,5.79,0,0,0,1.8-.21q.78-.36,1.53-.75a7,7,0,0,1-1.8,3.3,4.61,4.61,0,0,1-2.73.63l-1.08,0H237q-2.49,0-2.49,1.35,0,2.37,2.64,3.66a10.59,10.59,0,0,0,4.74,1,22.51,22.51,0,0,0,4.65-.48,9.18,9.18,0,0,0,4.23-1.83q-.06-.45-1.38-.57a10.17,10.17,0,0,1-2.4-.33,1.76,1.76,0,0,1-1.29-1.8q0-2.31,3.12-4.65a9.16,9.16,0,0,1,5.31-2.22q2.49,0,3.24,1.62a12.8,12.8,0,0,1,.45,3q.15,1.62,1.2,1.62Zm-13.14,10.92a7.19,7.19,0,0,1-.75,1.59q-.69,1.2-1.08,1.2a3,3,0,0,1-.87-.2,2.89,2.89,0,0,0-.84-.19,7.69,7.69,0,0,0-2,.3q-1,.3-1.95.57a.44.44,0,0,1-.21-.36,3.79,3.79,0,0,1,.62-1.44,5.48,5.48,0,0,1,1-1.35,4.44,4.44,0,0,1,1.78-.57,10.43,10.43,0,0,1,1.95-.27A3.39,3.39,0,0,1,248.22,1475.21Z" fill="#757e96"/><path d="M278.88,1462.19a4.39,4.39,0,0,1-.68,1.48,7.1,7.1,0,0,1-1,1.43q-.51.45-6,1.29-4.59.72-5.61.81-1.23.09-6.54.09a6,6,0,0,1,1.35-3l5.16-.27q-.39-.6-.75-1.2a2.66,2.66,0,0,1-.42-1.32,5.57,5.57,0,0,1,2-4,5.86,5.86,0,0,1,4-1.93,5.59,5.59,0,0,1,2.28.66q1.5.75,1.5,1.56a5.45,5.45,0,0,1-1.59,2.94,5.17,5.17,0,0,0-3.81-2.16q-2.1,0-2.1.93,0,1.59,2.28,2.67a8.74,8.74,0,0,0,3.72.9,11.54,11.54,0,0,0,3.15-.51l3-1Z" fill="#757e96"/><path d="M286.56,1461.05a7.39,7.39,0,0,1-3.12,6.42l-.33-.33a13.27,13.27,0,0,0,.73-2.42,8.82,8.82,0,0,0,.35-2.32q-.54-3.15-1.05-6.3a39.57,39.57,0,0,1-.66-6.3q0-3.09,3.42-5.4a.51.51,0,0,1,0,.21,8.45,8.45,0,0,1-.3,1.66,8.54,8.54,0,0,0-.3,1.91,49.26,49.26,0,0,0,.61,6.46A49.85,49.85,0,0,1,286.56,1461.05Z" fill="#757e96"/><path d="M302.76,1461.29q0,1.38-2.07,4.41a4.63,4.63,0,0,1-4.11,1.83q-.48,0-1.47-.06t-1.5-.06a27,27,0,0,0-4.83.69.43.43,0,0,1-.12-.36,5.39,5.39,0,0,1,.63-1.36,5.64,5.64,0,0,1,.87-1.34q.66-.63,4.35-.63c.6,0,1.33,0,2.2,0l1.55,0a3.3,3.3,0,0,0,2.28-.66,3.12,3.12,0,0,0-1.59-2.7,5.45,5.45,0,0,0-3.18-.75,5.84,5.84,0,0,1,.81-1.83q.72-1.08,1.38-1.08a5.51,5.51,0,0,1,3.21,1A3.3,3.3,0,0,1,302.76,1461.29Z" fill="#757e96"/><path d="M329.73,1459.91a6.15,6.15,0,0,1-3.63,5.73,14.62,14.62,0,0,1-7,1.53,15.66,15.66,0,0,0-9.39,2.64l-.36-.39a7.41,7.41,0,0,1,2.7-3.39,9,9,0,0,1,3.24-.87,17.76,17.76,0,0,0,3.93-.84q.66-.24.66-3a34.48,34.48,0,0,0-.69-5,35.64,35.64,0,0,1-.69-4.85,3.59,3.59,0,0,1,.81-2.16,5.73,5.73,0,0,1,1.74-1.59q-.09,1-.09,1.53a33.21,33.21,0,0,0,.76,4.91,32.78,32.78,0,0,1,.77,5,8.19,8.19,0,0,1-1.65,5l.63.06q5.61,0,5.61-2.19a23.55,23.55,0,0,0-.74-4.4,27.47,27.47,0,0,1-.73-3.76,5.37,5.37,0,0,1,.91-2.91,5.84,5.84,0,0,1,2.27-2.13l.42.54a4.18,4.18,0,0,0-.78,2.46,27.87,27.87,0,0,0,.64,4A28.17,28.17,0,0,1,329.73,1459.91Z" fill="#757e96"/><path d="M340.26,1464.86a2.28,2.28,0,0,1,.7-1.69,2.33,2.33,0,0,1,1.7-.71,2.37,2.37,0,0,1,1.71.71,2.26,2.26,0,0,1,.72,1.69,2.29,2.29,0,0,1-.72,1.72,2.37,2.37,0,0,1-1.71.71,2.41,2.41,0,0,1-2.4-2.43Z" fill="#757e96"/><path d="M369.6,1464.29q-.39,1.11-.57,1.56a6.84,6.84,0,0,1-.78,1.44h-2.34a3,3,0,0,1-2.58-1,4.08,4.08,0,0,1-.57-2.4c0-.32,0-.82.06-1.49s.06-1.15.06-1.45q0-2.61-3.84-2.61a15.24,15.24,0,0,0-4.14.72q-3.09.84-3.09,2,0,.69,1.17.69a12.54,12.54,0,0,0,3-.58,11.85,11.85,0,0,1,3.11-.59,3.78,3.78,0,0,1,2.43.72,32.39,32.39,0,0,1-1.8,2.88,3.31,3.31,0,0,0-1.38-.48,13.28,13.28,0,0,0-3.39.63,13.18,13.18,0,0,1-3.27.63,2.12,2.12,0,0,1-1.47-.51,1.76,1.76,0,0,1-.57-1.38q0-3.72,3.81-5.91a14.17,14.17,0,0,1,7.2-1.83,6.22,6.22,0,0,1,2.91.6,2.55,2.55,0,0,1,1.47,2.4,10.17,10.17,0,0,1-.2,1.62,9.89,9.89,0,0,0-.19,1.62q0,2.43,2.67,2.73Zm-7.2-15.69a12.43,12.43,0,0,1-.9,2.16q-.54,1.11-4.62,1.11a3.27,3.27,0,0,1-1.77-.42,11.32,11.32,0,0,1,1.41-3.09,20.87,20.87,0,0,0,2.7.18,6.72,6.72,0,0,0,1.75-.3,9.27,9.27,0,0,1,1.22-.3l.21.06Z" fill="#757e96"/><path d="M376.65,1460a8.52,8.52,0,0,1-1.65,4.53q-1.8,2.76-3.66,2.76h-4.41a15.1,15.1,0,0,1,1.35-3,30.4,30.4,0,0,0,3.57-.12q2.55-.36,2.55-1.83a21.37,21.37,0,0,0-1.41-6.17,21.4,21.4,0,0,1-1.41-6.31,5.6,5.6,0,0,1,.75-3l1.89-2.37.48.36A4.81,4.81,0,0,0,374,1448a21,21,0,0,0,1.32,6.06A21,21,0,0,1,376.65,1460Z" fill="#757e96"/><path d="M394.32,1461.53a7.38,7.38,0,0,1-1.59,3.9,9.28,9.28,0,0,1-4.83,3.66l-5.16,1.08a10,10,0,0,0-5.22,3.18l-.24-.42q0-3.42,3.81-5a62.66,62.66,0,0,1,7.08-1.77q3.84-.81,3.84-2.34a2.24,2.24,0,0,0-.48-1.62l-1,.75a2.11,2.11,0,0,1-1.14.42,1.65,1.65,0,0,1-1.25-.57,1.85,1.85,0,0,1-.52-1.29,4.86,4.86,0,0,1,1.33-2.8c.89-1.12,1.72-1.67,2.48-1.67s1.33.6,2,1.8A5.93,5.93,0,0,1,394.32,1461.53Z" fill="#757e96"/><path d="M408.54,1452.23q0,2.46-2.76,3.69-2.37.84-4.71,1.71a3,3,0,0,1,1.41-2.43,10.76,10.76,0,0,1,2.37-.66,3.72,3.72,0,0,0,2.22-1.23.64.64,0,0,0-.33-.06,2.52,2.52,0,0,0-.9.3,2.52,2.52,0,0,1-.9.3,2.1,2.1,0,0,1-1.28-.43,1.33,1.33,0,0,1-.58-1.1,4.05,4.05,0,0,1,1.32-2.78,3.82,3.82,0,0,1,2.73-1.36q.72,0,.72.36a2.19,2.19,0,0,1-.54,1.08q-.54.72-.9.72a1.29,1.29,0,0,1-.33-.06,1.29,1.29,0,0,0-.33-.06q-1.2,0-1.2.75c0,.16.17.33.52.53a1.89,1.89,0,0,0,.8.28,3.77,3.77,0,0,0,.94-.33,3.79,3.79,0,0,1,.95-.33Q408.54,1451.12,408.54,1452.23Z" fill="#757e96"/><path d="M413.58,1464.29l-.9,3h-1.23q-.78,0-1.89,1.5-1.74,2.31-2.16,2.73a4.59,4.59,0,0,1-3.3,1.5q-4.38,0-5.34.09-3.75.39-4.95,2h-.63l-.12-.33q0-3.33,4-4.44a27.15,27.15,0,0,1,6.57-.57,10.75,10.75,0,0,0,2.73-.33q1.83-.45,1.83-1.44,0-.63-1.17-.81-2-.33-2.22-.39a1.69,1.69,0,0,1-1.17-1.71,5.79,5.79,0,0,1,1.33-2.63c.89-1.23,1.58-1.84,2.06-1.84q2,0,3.6,3.63Z" fill="#757e96"/><path d="M421.17,1464.29a7.2,7.2,0,0,1-1.14,3h-3.6a1.63,1.63,0,0,1-.3-.6,9.32,9.32,0,0,1-3.12.6h-1.29a19,19,0,0,1,.93-2.94,14.65,14.65,0,0,0,3.57-.3,4.35,4.35,0,0,0,3.24-3.09q.54.21.54.3a6.66,6.66,0,0,1-.69,1.32q-.42.72-.87,1.44a3.76,3.76,0,0,0,1.62.27Z" fill="#757e96"/><path d="M430.14,1464.29q-.3,1-.84,3h-2.61q-.81,0-1-.54a10.63,10.63,0,0,1-3.78.69l-.12-.39a2.53,2.53,0,0,0-.74.13,2,2,0,0,1-.79.11h-1.14a9.58,9.58,0,0,1,.87-3,6.9,6.9,0,0,0,1.56-.12,8.48,8.48,0,0,0,1.41-.54,2.53,2.53,0,0,0,1-1.09,3,3,0,0,1,1-1.13v.55a4.73,4.73,0,0,1-.48,1.07q-.51,1-.57,1.2s.11.06.27.06a3.78,3.78,0,0,0,2.61-.86c.62-.67,1.23-1.35,1.83-2a.35.35,0,0,1,.15.33,2.86,2.86,0,0,1-.45,1A2.33,2.33,0,0,0,428,1464l.34.18a1.08,1.08,0,0,0,.41.15Z" fill="#757e96"/><path d="M439.32,1462.16q0,3.24-3.42,4.41a19.16,19.16,0,0,1-6,.72h-1.26a18.08,18.08,0,0,1,.72-3H431a6.48,6.48,0,0,0,2.1-.3l1.08-1.8a4.4,4.4,0,0,0,.54-2,18.66,18.66,0,0,0-1.13-5.19,18.62,18.62,0,0,1-1.12-5.28,6.58,6.58,0,0,1,3.09-5.67l.12.24q-.78.3-.78,2.88a20.26,20.26,0,0,0,1.08,5.42,20,20,0,0,1,1.08,5.35,5.58,5.58,0,0,1-.69,2.52l1.86.36A1.35,1.35,0,0,1,439.32,1462.16Z" fill="#757e96"/><path d="M446.43,1461.05a7.39,7.39,0,0,1-3.12,6.42l-.33-.33a13.27,13.27,0,0,0,.73-2.42,8.82,8.82,0,0,0,.35-2.32q-.54-3.15-1.05-6.3a39.57,39.57,0,0,1-.66-6.3q0-3.09,3.42-5.4a.51.51,0,0,1,0,.21,8.45,8.45,0,0,1-.3,1.66,8.54,8.54,0,0,0-.3,1.91,49.26,49.26,0,0,0,.61,6.46A49.85,49.85,0,0,1,446.43,1461.05Z" fill="#757e96"/><path d="M475.62,1464.29q-.39,1.11-.57,1.56a6.84,6.84,0,0,1-.78,1.44h-2.34a3,3,0,0,1-2.58-1,4.08,4.08,0,0,1-.57-2.4c0-.32,0-.82.06-1.49s.06-1.15.06-1.45q0-2.61-3.84-2.61a15.24,15.24,0,0,0-4.14.72q-3.09.84-3.09,2,0,.69,1.17.69a12.54,12.54,0,0,0,3-.58,11.85,11.85,0,0,1,3.11-.59,3.78,3.78,0,0,1,2.43.72,32.39,32.39,0,0,1-1.8,2.88,3.31,3.31,0,0,0-1.38-.48,13.28,13.28,0,0,0-3.39.63,13.18,13.18,0,0,1-3.27.63,2.12,2.12,0,0,1-1.47-.51,1.76,1.76,0,0,1-.57-1.38q0-3.72,3.81-5.91a14.17,14.17,0,0,1,7.2-1.83,6.22,6.22,0,0,1,2.91.6,2.55,2.55,0,0,1,1.47,2.4,10.17,10.17,0,0,1-.2,1.62,9.89,9.89,0,0,0-.19,1.62q0,2.43,2.67,2.73Zm-7.2-15.69a12.43,12.43,0,0,1-.9,2.16q-.54,1.11-4.62,1.11a3.27,3.27,0,0,1-1.77-.42,11.32,11.32,0,0,1,1.41-3.09,20.87,20.87,0,0,0,2.7.18,6.72,6.72,0,0,0,1.75-.3,9.27,9.27,0,0,1,1.22-.3l.21.06Z" fill="#757e96"/><path d="M492.45,1464.29l-1,3h-1a7.72,7.72,0,0,0-4,1.17q-.39.24-3,2.22a4.62,4.62,0,0,1-2.58,1.17,3.21,3.21,0,0,1-2.79-1.41,4.8,4.8,0,0,1-.78-3.15h-4a27.46,27.46,0,0,1,.93-3,12.6,12.6,0,0,0,3.21-.21q.81-.39.81-2.43a48.62,48.62,0,0,0-.5-5.77,48.24,48.24,0,0,1-.49-5.69,6.44,6.44,0,0,1,1.05-3.39,7.31,7.31,0,0,1,2.52-2.49l.12.48a6.14,6.14,0,0,0-1.17,3.69c0,1.3.09,3.27.28,5.93s.29,4.63.29,5.95q1.23-1.53,2.49-3a4.52,4.52,0,0,1,3.18-1.83,1.72,1.72,0,0,1,1.41.67,2.42,2.42,0,0,1,.54,1.55q0,2.61-3,6t-5.64,3.42a3.08,3.08,0,0,0,2.64,1.5q.6,0,1.83-1.14a17.82,17.82,0,0,1,2.67-2.07,8.35,8.35,0,0,1,4.29-1.14Zm-6.39-4q0-1.65-1.56-1.65-2.19,0-5,5.43a12.52,12.52,0,0,0,3.81-1.35Q486.06,1461.32,486.06,1460.27Z" fill="#757e96"/><path d="M504.27,1464.29l-.42,1.53a4,4,0,0,1-.72,1.47h-1.08a4.43,4.43,0,0,1-2.45-1,3.64,3.64,0,0,1-1.6-2q-1.5,3-5.88,3h-1.77q.81-3,1.11-3A17.19,17.19,0,0,0,495,1464q2.55-.54,2.82-1.8a43.48,43.48,0,0,0,1.32-9.57,16.35,16.35,0,0,0-1.29-6.09q.63-.9,2-2.58,1.5,1.83,1.5,6.51a27.93,27.93,0,0,1-.68,5.1,27.57,27.57,0,0,0-.67,5,4.08,4.08,0,0,0,.93,2.59,2.71,2.71,0,0,0,2.19,1.19Z" fill="#757e96"/><path d="M511.65,1464.29a7.2,7.2,0,0,1-1.14,3h-3.6a1.63,1.63,0,0,1-.3-.6,9.32,9.32,0,0,1-3.12.6H502.2a19,19,0,0,1,.93-2.94,14.65,14.65,0,0,0,3.57-.3,4.35,4.35,0,0,0,3.24-3.09q.54.21.54.3a6.66,6.66,0,0,1-.69,1.32q-.42.72-.87,1.44a3.76,3.76,0,0,0,1.62.27Z" fill="#757e96"/><path d="M520.62,1464.29q-.3,1-.84,3h-2.61q-.81,0-1-.54a10.63,10.63,0,0,1-3.78.69l-.12-.39a2.53,2.53,0,0,0-.74.13,2,2,0,0,1-.79.11h-1.14a9.58,9.58,0,0,1,.87-3,6.9,6.9,0,0,0,1.56-.12,8.48,8.48,0,0,0,1.41-.54,2.53,2.53,0,0,0,1-1.09,3,3,0,0,1,1-1.13v.55A4.73,4.73,0,0,1,515,1463q-.51,1-.57,1.2s.11.06.27.06a3.78,3.78,0,0,0,2.61-.86c.62-.67,1.23-1.35,1.83-2a.35.35,0,0,1,.15.33,2.86,2.86,0,0,1-.45,1,2.33,2.33,0,0,0-.42,1.26l.34.18a1.08,1.08,0,0,0,.41.15Z" fill="#757e96"/><path d="M528.18,1460a8.52,8.52,0,0,1-1.65,4.53q-1.8,2.76-3.66,2.76h-4.41a15.1,15.1,0,0,1,1.35-3,30.4,30.4,0,0,0,3.57-.12q2.55-.36,2.55-1.83a21.37,21.37,0,0,0-1.41-6.17,21.4,21.4,0,0,1-1.41-6.31,5.6,5.6,0,0,1,.75-3l1.89-2.37.48.36a4.81,4.81,0,0,0-.69,3.09,21,21,0,0,0,1.32,6.06A21,21,0,0,1,528.18,1460Z" fill="#757e96"/><path d="M536.25,1461.05a7.39,7.39,0,0,1-3.12,6.42l-.33-.33a13.27,13.27,0,0,0,.73-2.42,8.82,8.82,0,0,0,.35-2.32q-.54-3.15-1-6.3a39.57,39.57,0,0,1-.66-6.3q0-3.09,3.42-5.4a.51.51,0,0,1,0,.21,8.45,8.45,0,0,1-.3,1.66,8.54,8.54,0,0,0-.3,1.91,49.26,49.26,0,0,0,.61,6.46A49.85,49.85,0,0,1,536.25,1461.05Z" fill="#757e96"/><path d="M568.86,1460.21a4.33,4.33,0,0,1-.48,1.65l.26.24-.33-.09q-1.38,3.81-7,6a26.45,26.45,0,0,1-9.6,1.8,12.33,12.33,0,0,1-4.33-.66q-2.55-.93-2.55-3.06a8.53,8.53,0,0,1,1.57-4.16c1-1.68,2-2.68,3.06-3,.07,0,1.31-.33,3.71-.87a10.83,10.83,0,0,0,3.51-1.41l.13.33a6.32,6.32,0,0,1-3.79,4c-.16.06-1.6.36-4.35.9q-2.07.42-2.07,1.92,0,2.82,6,2.82a37.68,37.68,0,0,0,7.78-1.17c4.09-.94,6.15-2,6.15-3,0-.58-.9-.87-2.71-.87h-3.33V1461a2.06,2.06,0,0,1,.88-1.68,7.58,7.58,0,0,1,1.84-1,10.51,10.51,0,0,0,1.67-.82,11.55,11.55,0,0,0-1.19-3.89,10.66,10.66,0,0,1-1.15-4,6.14,6.14,0,0,1,.86-3,3.84,3.84,0,0,1,2.23-2.07l.11.42-.77,2.73a10.48,10.48,0,0,0,1.12,3.78,10.55,10.55,0,0,1,1.13,3.84,5.37,5.37,0,0,1-1.48,3.18l2,.39A1.34,1.34,0,0,1,568.86,1460.21Z" fill="#757e96"/><path d="M578.46,1472.84q0,2.43-2.8,3.69l-4.7,1.71a3.05,3.05,0,0,1,1.41-2.46,15.07,15.07,0,0,1,2.39-.66,3.69,3.69,0,0,0,2.22-1.2.64.64,0,0,0-.33-.06,2.5,2.5,0,0,0-.91.28,2.5,2.5,0,0,1-.89.29,2.14,2.14,0,0,1-1.29-.42,1.29,1.29,0,0,1-.57-1.08,4,4,0,0,1,1.31-2.79,3.81,3.81,0,0,1,2.74-1.35c.49,0,.72.11.72.33a2,2,0,0,1-.55,1.09c-.37.47-.67.71-.92.71a1.53,1.53,0,0,1-.3,0,1.19,1.19,0,0,0-.33-.05c-.79,0-1.2.25-1.2.75,0,.16.18.33.53.52a1.93,1.93,0,0,0,.76.29,3.79,3.79,0,0,0,1-.35,3.71,3.71,0,0,1,1-.34C578.19,1471.7,578.46,1472.08,578.46,1472.84Z" fill="#757e96"/><path d="M576.14,1461.05a7.41,7.41,0,0,1-3.11,6.42l-.33-.33a14.13,14.13,0,0,0,.73-2.42,9.28,9.28,0,0,0,.35-2.32q-.56-3.15-1.06-6.3a40.79,40.79,0,0,1-.66-6.3c0-2.06,1.15-3.86,3.42-5.4a.51.51,0,0,1,0,.21,8.45,8.45,0,0,1-.3,1.66,8.54,8.54,0,0,0-.3,1.91,49.66,49.66,0,0,0,.62,6.46A49.42,49.42,0,0,1,576.14,1461.05Z" fill="#757e96"/><path d="M600.05,1460.57a2.1,2.1,0,0,1-.24.6q-.27.6-.33.78a6.54,6.54,0,0,1-2.88,3.6,14.66,14.66,0,0,1-4,1.35,19.29,19.29,0,0,0-4,1.14,14.39,14.39,0,0,0-4.41,3.06q-.63.72-.9.69-.12,0-.12-.33a7.81,7.81,0,0,1,.24-1.47c.11-.42.2-.83.3-1.23q.45-.54.93-1.08a10.48,10.48,0,0,1,1.59-1.17,20.16,20.16,0,0,1,5.64-2.55l4.32-1a5.29,5.29,0,0,0,3.45-2.67Q600.05,1460.24,600.05,1460.57Z" fill="#757e96"/><path d="M619,1464.29l-.9,3h-1.23q-.78,0-1.89,1.5-1.74,2.31-2.16,2.73a4.59,4.59,0,0,1-3.3,1.5q-4.38,0-5.34.09-3.75.39-4.95,2h-.63l-.12-.33q0-3.33,4-4.44a27.15,27.15,0,0,1,6.57-.57,10.75,10.75,0,0,0,2.73-.33q1.83-.45,1.83-1.44,0-.63-1.17-.81-2-.33-2.22-.39a1.69,1.69,0,0,1-1.17-1.71,5.84,5.84,0,0,1,1.34-2.63c.89-1.23,1.57-1.84,2-1.84q2,0,3.6,3.63Z" fill="#757e96"/><path d="M632,1464.29a11.66,11.66,0,0,1-.63,2q-.36,1-.36,1h-2.13a11.52,11.52,0,0,1-2.13-.44,11.73,11.73,0,0,0-2.19-.43,14.35,14.35,0,0,0-2.71.43,13.88,13.88,0,0,1-2.84.44h-2.16a.27.27,0,0,1-.09-.24,4.19,4.19,0,0,1,.6-1.57,7.79,7.79,0,0,1,.75-1.2l4.29-.3a10.84,10.84,0,0,1,1.62-4.12c1.1-1.83,2.13-2.74,3.09-2.74a1.61,1.61,0,0,1,1.41.87,3.11,3.11,0,0,1,.48,1.69,6.54,6.54,0,0,1-1.47,3.77v.39q.45.57,2,.45Zm-3.66-14.19a3.41,3.41,0,0,1-.87,1.48q-.6.63-1.23,1.23l-2.76-1.77a8.15,8.15,0,0,1,2.19-2.62ZM627,1462a2,2,0,0,0-.33-1.1,1,1,0,0,0-.87-.49,1.54,1.54,0,0,0-1,.46,1.33,1.33,0,0,0-.53,1c0,.14.2.42.59.86s.66.64.82.64a1.25,1.25,0,0,0,.92-.42A1.28,1.28,0,0,0,627,1462Z" fill="#757e96"/><path d="M639.35,1460a8.52,8.52,0,0,1-1.65,4.53q-1.8,2.76-3.66,2.76h-4.41a15.1,15.1,0,0,1,1.35-3,30.4,30.4,0,0,0,3.57-.12q2.55-.36,2.55-1.83a21.37,21.37,0,0,0-1.41-6.17,21.4,21.4,0,0,1-1.41-6.31,5.6,5.6,0,0,1,.75-3l1.89-2.37.48.36a4.81,4.81,0,0,0-.69,3.09A21,21,0,0,0,638,1454,21,21,0,0,1,639.35,1460Z" fill="#757e96"/><path d="M647.42,1461.05a7.39,7.39,0,0,1-3.12,6.42l-.33-.33a13.08,13.08,0,0,0,.74-2.42,8.66,8.66,0,0,0,.34-2.32q-.54-3.15-1-6.3a39.57,39.57,0,0,1-.66-6.3q0-3.09,3.42-5.4a.51.51,0,0,1,0,.21,8.45,8.45,0,0,1-.3,1.66,8.54,8.54,0,0,0-.3,1.91,49.66,49.66,0,0,0,.62,6.46A49.42,49.42,0,0,1,647.42,1461.05Z" fill="#757e96"/><path d="M684.92,1464.29q-.27,1-1,3h-1.41a2.57,2.57,0,0,1-2.76-1.62l-.6-3q-.6-1.59-2.85-1.59a9.33,9.33,0,0,0-2.67.48q-1.95.63-1.95,1.44t1,.93h1.53q2.49,0,2.49,1.71a5.56,5.56,0,0,1-1.44,2.82q-3.51,4.5-11,4.5a11.91,11.91,0,0,1-5.31-1.08,4.5,4.5,0,0,1-2.85-4.2,6,6,0,0,1,2.43-5.19,9.13,9.13,0,0,1,5.55-1.53,5.79,5.79,0,0,0,1.8-.21q.78-.36,1.53-.75a7,7,0,0,1-1.8,3.3,4.61,4.61,0,0,1-2.73.63l-1.08,0h-1.26q-2.49,0-2.49,1.35,0,2.37,2.64,3.66a10.59,10.59,0,0,0,4.74,1,22.51,22.51,0,0,0,4.65-.48,9.18,9.18,0,0,0,4.23-1.83q-.06-.45-1.38-.57a10.17,10.17,0,0,1-2.4-.33,1.76,1.76,0,0,1-1.29-1.8q0-2.31,3.12-4.65a9.16,9.16,0,0,1,5.31-2.22q2.49,0,3.24,1.62a12.8,12.8,0,0,1,.45,3q.15,1.62,1.2,1.62Z" fill="#757e96"/><path d="M696.74,1464.29l-.42,1.53a4,4,0,0,1-.72,1.47h-1.08a4.4,4.4,0,0,1-2.44-1,3.67,3.67,0,0,1-1.61-2q-1.5,3-5.88,3h-1.77q.81-3,1.11-3a17.19,17.19,0,0,0,3.54-.33q2.55-.54,2.82-1.8a43.48,43.48,0,0,0,1.32-9.57,16.35,16.35,0,0,0-1.29-6.09q.63-.9,2-2.58,1.5,1.83,1.5,6.51a27.73,27.73,0,0,1-.67,5.1,27.8,27.8,0,0,0-.68,5,4.08,4.08,0,0,0,.93,2.59,2.71,2.71,0,0,0,2.19,1.19Z" fill="#757e96"/><path d="M714.11,1462.19a4.28,4.28,0,0,1-.67,1.48,7,7,0,0,1-1,1.43q-.51.45-6,1.29-4.59.72-5.61.81-1.23.09-6.54.09a6,6,0,0,1,1.35-3l5.16-.27q-.39-.6-.75-1.2a2.66,2.66,0,0,1-.42-1.32,5.59,5.59,0,0,1,2-4,5.84,5.84,0,0,1,4-1.93,5.59,5.59,0,0,1,2.28.66q1.5.75,1.5,1.56a5.45,5.45,0,0,1-1.59,2.94,5.17,5.17,0,0,0-3.81-2.16q-2.1,0-2.1.93,0,1.59,2.28,2.67a8.74,8.74,0,0,0,3.72.9,11.54,11.54,0,0,0,3.15-.51l3-1Z" fill="#757e96"/><path d="M741.89,1457.36a9.23,9.23,0,0,1-3.81,7.92,14.32,14.32,0,0,1-8.7,2.49,10.93,10.93,0,0,1-4.59-.87,3.77,3.77,0,0,1-2.46-3.54q0-4,3.72-7.29a11.85,11.85,0,0,1,7.62-3.3,6.63,6.63,0,0,1,.63,2.31,21.19,21.19,0,0,1,.18,2.52,6.16,6.16,0,0,1-1.47,3,8.22,8.22,0,0,1-2,.25,9.32,9.32,0,0,0-2,.23,3.17,3.17,0,0,0-1.71,1.11l-.45-.42a8.66,8.66,0,0,1,1.77-3,8.14,8.14,0,0,1,3.24-1l.24-.24q0-.45-.09-.9a1.26,1.26,0,0,0-.27-.81h-.3q-1.5,0-4.29,1.77-2.94,1.89-2.94,3.3,0,3.6,7.65,3.6a11.42,11.42,0,0,0,5-1.11q2.82-1.38,2.82-3.72a17.11,17.11,0,0,0-.91-4.53,17.24,17.24,0,0,1-.92-4.56q0-1.92,2.31-4a4.07,4.07,0,0,1,.06,1.26q-.06,1.29-.06,1.26a14.67,14.67,0,0,0,.89,4.06A14.65,14.65,0,0,1,741.89,1457.36Zm6.42-17.85q0,2.79-4.59,5.28a15.32,15.32,0,0,1-7.17,2.25,4.25,4.25,0,0,1-.6-.06,5,5,0,0,1-.54-.1c-.1,0-.15-.13-.15-.29a27.66,27.66,0,0,1,1.11-3,4.11,4.11,0,0,0,1,.09,10.52,10.52,0,0,0,4.65-1,21.26,21.26,0,0,0,3.18-2.16,13.41,13.41,0,0,1,3.15-2Z" fill="#757e96"/><path d="M763,1464.29a8.46,8.46,0,0,1-1.17,3h-1.26a5.55,5.55,0,0,0-4.26,1.74L754,1472.3a4.29,4.29,0,0,1-3.45,1.74q-3.09,0-3.72.06a5.06,5.06,0,0,0-3.36,1.38H743l-.12-.36a3.72,3.72,0,0,1,2.73-3.87,18.88,18.88,0,0,1,5.16-.48,4.45,4.45,0,0,0,3.24-1.69l2.49-3.1a4,4,0,0,1,2.91-1.69Z" fill="#757e96"/><path d="M771.5,1460.42a4,4,0,0,1-.36,1.74q-.45.75-.87,1.5a6.73,6.73,0,0,1-6.42,3.63h-3.54q.6-1.29,1.47-3h3a7.79,7.79,0,0,0,4.38-1v-.39a4.37,4.37,0,0,0-.76-2.44,9.6,9.6,0,0,1-.8-1.4q1.62-2.52,2-2.52c.32,0,.72.55,1.19,1.67A7.26,7.26,0,0,1,771.5,1460.42Zm-1.89,10.81A8,8,0,0,1,769,1473c-.4.91-.71,1.36-.93,1.36a5.43,5.43,0,0,1-1-.29,4.58,4.58,0,0,0-1.44-.28,6.37,6.37,0,0,0-1.92.36,12.45,12.45,0,0,1-1.8.48,7,7,0,0,1,1-3,6.78,6.78,0,0,1,2.86-1.09,1.69,1.69,0,0,1,.51-.06A7.38,7.38,0,0,1,769.61,1471.23Z" fill="#757e96"/><path d="M789.08,1460.57a2.1,2.1,0,0,1-.24.6q-.27.6-.33.78a6.54,6.54,0,0,1-2.88,3.6,14.66,14.66,0,0,1-4,1.35,19.29,19.29,0,0,0-4,1.14,14.39,14.39,0,0,0-4.41,3.06q-.63.72-.9.69-.12,0-.12-.33a7.81,7.81,0,0,1,.24-1.47q.15-.63.3-1.23.45-.54.93-1.08a10.48,10.48,0,0,1,1.59-1.17,20.16,20.16,0,0,1,5.64-2.55l4.32-1a5.29,5.29,0,0,0,3.45-2.67Q789.08,1460.24,789.08,1460.57Z" fill="#757e96"/><path d="M799.22,1464.29q-.45,1.62-.48,1.68a3.23,3.23,0,0,1-.75,1.32h-1.41a4.75,4.75,0,0,1-3.27-1.07,3.81,3.81,0,0,1-1.2-3,36,36,0,0,1,.44-4.53,35.64,35.64,0,0,0,.43-4.62,13.46,13.46,0,0,0-1.44-6.42q1.26-1.8,2.07-2.73a12.45,12.45,0,0,1,1.71,7,33.35,33.35,0,0,1-.48,4.69,33.47,33.47,0,0,0-.48,4.61,2.91,2.91,0,0,0,1,2.58,4.77,4.77,0,0,0,2.58.54Z" fill="#757e96"/><path d="M811.91,1464.29a11.66,11.66,0,0,1-.63,2q-.36,1-.36,1h-2.13a11.52,11.52,0,0,1-2.13-.44,11.73,11.73,0,0,0-2.19-.43,14.35,14.35,0,0,0-2.71.43,13.88,13.88,0,0,1-2.84.44h-2.16a.27.27,0,0,1-.09-.24,4.19,4.19,0,0,1,.6-1.57,7.79,7.79,0,0,1,.75-1.2l4.29-.3a10.84,10.84,0,0,1,1.62-4.12c1.1-1.83,2.13-2.74,3.09-2.74a1.61,1.61,0,0,1,1.41.87,3.11,3.11,0,0,1,.48,1.69,6.54,6.54,0,0,1-1.47,3.77v.39q.45.57,2,.45Zm-2.19-16a3.64,3.64,0,0,1-1.17,2.94,4.72,4.72,0,0,1-3.15,1h-.87a2.53,2.53,0,0,1-1.71-.69,17.78,17.78,0,0,1,1.2-3.09,11.06,11.06,0,0,0,2.16.36,5,5,0,0,0,3-.87h.45A.52.52,0,0,1,809.72,1448.33ZM807,1462a2,2,0,0,0-.33-1.1,1,1,0,0,0-.87-.49,1.54,1.54,0,0,0-1,.46,1.33,1.33,0,0,0-.53,1c0,.14.2.42.59.86s.66.64.82.64a1.25,1.25,0,0,0,.92-.42A1.28,1.28,0,0,0,807,1462Z" fill="#757e96"/><path d="M819.47,1460.42a4,4,0,0,1-.36,1.74q-.45.75-.87,1.5a6.73,6.73,0,0,1-6.42,3.63h-2.34q.6-1.29,1.47-3,2.37,0,3.18-.09a6.86,6.86,0,0,0,3-1v-.39a4.37,4.37,0,0,0-.76-2.44,9.6,9.6,0,0,1-.8-1.4q1.62-2.52,2-2.52c.32,0,.72.55,1.19,1.67A7.26,7.26,0,0,1,819.47,1460.42Zm0-12a3.66,3.66,0,0,1-1.37,3.09,5.18,5.18,0,0,1-3.3,1,9.56,9.56,0,0,1-2.86-.51c.28-.7.7-1.73,1.28-3.09a11.76,11.76,0,0,0,2.11.18,9.14,9.14,0,0,0,2.09-.18,15.51,15.51,0,0,0,1.93-.78A.39.39,0,0,1,819.47,1448.42Z" fill="#757e96"/><path d="M849.14,1458.17q0,5.1-5.1,8a19.1,19.1,0,0,1-9.69,2.43,10.47,10.47,0,0,1-4.38-.78,3.66,3.66,0,0,1-2.25-3.48,6.7,6.7,0,0,1,2.76-5.67,9.87,9.87,0,0,1,6.06-1.83,15.21,15.21,0,0,0,4.47-1.05,4.83,4.83,0,0,1-2.67,3.45,10.15,10.15,0,0,1-4,.6h-1.17a6.79,6.79,0,0,0-2.43.3,1.61,1.61,0,0,0-1,1.65q0,3.81,5.94,3.81a22.74,22.74,0,0,0,6.36-1q4.47-1.32,4.47-3.54a29,29,0,0,0-.78-5.43,29,29,0,0,1-.78-5.46,8,8,0,0,1,.63-3.51,6.2,6.2,0,0,1,2.61-2.43l-.12,1v5.07a22.23,22.23,0,0,0,.53,3.89A22.9,22.9,0,0,1,849.14,1458.17Z" fill="#757e96"/><path d="M861,1464.29q-.45,1.62-.48,1.68a3.23,3.23,0,0,1-.75,1.32h-1.41a4.75,4.75,0,0,1-3.27-1.07,3.81,3.81,0,0,1-1.2-3,34.12,34.12,0,0,1,.44-4.53,37.54,37.54,0,0,0,.43-4.62,13.46,13.46,0,0,0-1.44-6.42q1.26-1.8,2.07-2.73a12.45,12.45,0,0,1,1.71,7,33.35,33.35,0,0,1-.48,4.69,33.47,33.47,0,0,0-.48,4.61,2.91,2.91,0,0,0,1.05,2.58,4.77,4.77,0,0,0,2.58.54Z" fill="#757e96"/><path d="M868.31,1464.29a7.2,7.2,0,0,1-1.14,3h-3.6a1.63,1.63,0,0,1-.3-.6,9.32,9.32,0,0,1-3.12.6h-1.29a19,19,0,0,1,.93-2.94,14.65,14.65,0,0,0,3.57-.3,4.35,4.35,0,0,0,3.24-3.09q.54.21.54.3a6.66,6.66,0,0,1-.69,1.32q-.42.72-.87,1.44a3.76,3.76,0,0,0,1.62.27Z" fill="#757e96"/><path d="M877,1461.08a9.89,9.89,0,0,1-1.83,4.44q-1.11,1.77-4.56,1.77a1.25,1.25,0,0,1-.78-.21V1467a6.8,6.8,0,0,0-1.14.15,7,7,0,0,1-1.26.15h-1.23q-.27,0-.27-.33a3.82,3.82,0,0,1,.57-1.53,5.71,5.71,0,0,1,.72-1.14h1.47a2.91,2.91,0,0,0,2.47-1.12c.57-.75,1.13-1.53,1.67-2.33a.39.39,0,0,1,.15.36,7.42,7.42,0,0,1-.41,1.35c-.26.76-.45,1.25-.55,1.47a1.33,1.33,0,0,0,.42.06,4.12,4.12,0,0,0,2.55-.69,4.86,4.86,0,0,0,1-1.38A1.78,1.78,0,0,1,877,1461.08Z" fill="#757e96"/><path d="M894.65,1460.57a2.1,2.1,0,0,1-.24.6q-.27.6-.33.78a6.54,6.54,0,0,1-2.88,3.6,14.66,14.66,0,0,1-4,1.35,19.29,19.29,0,0,0-4,1.14,14.39,14.39,0,0,0-4.41,3.06q-.63.72-.9.69-.12,0-.12-.33A7.81,7.81,0,0,1,878,1470l.3-1.23q.45-.54.93-1.08a10.48,10.48,0,0,1,1.59-1.17,20.16,20.16,0,0,1,5.64-2.55l4.32-1a5.29,5.29,0,0,0,3.45-2.67Q894.65,1460.24,894.65,1460.57Z" fill="#757e96"/><path d="M903.35,1472.84q0,2.43-2.79,3.69l-4.71,1.71a3.08,3.08,0,0,1,1.41-2.46,15.34,15.34,0,0,1,2.4-.66,3.72,3.72,0,0,0,2.22-1.2.64.64,0,0,0-.33-.06,2.48,2.48,0,0,0-.92.28,2.53,2.53,0,0,1-.88.29,2.12,2.12,0,0,1-1.29-.42,1.29,1.29,0,0,1-.57-1.08,4,4,0,0,1,1.3-2.79,3.83,3.83,0,0,1,2.75-1.35q.72,0,.72.33a2.06,2.06,0,0,1-.56,1.09c-.37.47-.67.71-.91.71a1.53,1.53,0,0,1-.3,0,1.19,1.19,0,0,0-.33-.05q-1.2,0-1.2.75c0,.16.17.33.52.52a2,2,0,0,0,.77.29,3.93,3.93,0,0,0,1-.35,3.71,3.71,0,0,1,1-.34Q903.35,1471.7,903.35,1472.84Z" fill="#757e96"/><path d="M901,1461.05a7.39,7.39,0,0,1-3.12,6.42l-.33-.33a13.27,13.27,0,0,0,.73-2.42,8.82,8.82,0,0,0,.35-2.32q-.54-3.15-1-6.3a39.57,39.57,0,0,1-.66-6.3q0-3.09,3.42-5.4a.51.51,0,0,1,0,.21,8.45,8.45,0,0,1-.3,1.66,8.54,8.54,0,0,0-.3,1.91,49.26,49.26,0,0,0,.61,6.46A49.85,49.85,0,0,1,901,1461.05Z" fill="#757e96"/><path d="M928.25,1464.29a16.41,16.41,0,0,0-.39,1.89,2.28,2.28,0,0,1-.51,1.11h-.69q-2.49,0-3.39-1.44a19.61,19.61,0,0,1-.81-2.67q-.36-1.47-1.62-1.47a5.66,5.66,0,0,0-2.49.63q2.43.87,2.43,2.46a4.18,4.18,0,0,1-.9,2.61,3,3,0,0,1-2.4,1.23,2.48,2.48,0,0,1-2.73-2.61l-.24-.21a8.09,8.09,0,0,0-1.2.27,2.65,2.65,0,0,0-.95.69,1.33,1.33,0,0,0-.43.78,7.91,7.91,0,0,0,1.47,3.6l2.7,4.32a9.47,9.47,0,0,1,1.47,4.41,5,5,0,0,1-.6,1.89q-.6,1.26-1.11,1.47a5.79,5.79,0,0,1-.42-1.47q-.21-1.11-.33-1.5a39.9,39.9,0,0,0-3-5.4q-2.19-3.57-2.19-5.22a7.82,7.82,0,0,1,1.68-4.35q1.8-2.55,3.63-2.55a3.91,3.91,0,0,0,1-.18,8.65,8.65,0,0,1,2.52-2.79,5.86,5.86,0,0,1,3.51-1.29,1.94,1.94,0,0,1,2,1.5q.33,1.41.69,2.79a2.23,2.23,0,0,0,2.25,1.5Z" fill="#757e96"/><path d="M939.68,1464.29q-1.26,3-1.95,3H933q-1.29,0-1.59-.48l-1.8.31a9.13,9.13,0,0,1-1.74.17H926q.57-1.32,1.38-3h2.25a9.88,9.88,0,0,0,3.24-.36,2.57,2.57,0,0,0,1.08-1,5.7,5.7,0,0,1,1.47-1.47v.45l-1.17,2.22q.15.18,1.11.18Zm-1.92-12.84a12.43,12.43,0,0,1-.9,2.16q-.54,1.11-4.62,1.11a3.27,3.27,0,0,1-1.77-.42,11.32,11.32,0,0,1,1.41-3.09,20.87,20.87,0,0,0,2.7.18,6.72,6.72,0,0,0,1.75-.3,9.27,9.27,0,0,1,1.22-.3l.21.06Z" fill="#757e96"/><path d="M947.51,1460.42a4,4,0,0,1-.36,1.74q-.45.75-.87,1.5a6.73,6.73,0,0,1-6.42,3.63h-3.54q.6-1.29,1.47-3h3a7.79,7.79,0,0,0,4.38-1v-.39a4.39,4.39,0,0,0-.77-2.44,8.91,8.91,0,0,1-.79-1.4q1.62-2.52,2-2.52c.32,0,.71.55,1.18,1.67A7.38,7.38,0,0,1,947.51,1460.42Zm-1.89,10.81a8,8,0,0,1-.57,1.75c-.4.91-.71,1.36-.93,1.36a5.43,5.43,0,0,1-1-.29,4.58,4.58,0,0,0-1.44-.28,6.37,6.37,0,0,0-1.92.36,12.45,12.45,0,0,1-1.8.48,7.08,7.08,0,0,1,1-3,6.85,6.85,0,0,1,2.87-1.09,1.69,1.69,0,0,1,.51-.06A7.38,7.38,0,0,1,945.62,1471.23Z" fill="#757e96"/><path d="M355.44,1524.29q-.39,1.11-.57,1.56a6.84,6.84,0,0,1-.78,1.44h-2.34a3,3,0,0,1-2.58-1,4.08,4.08,0,0,1-.57-2.4c0-.32,0-.82.06-1.49s.06-1.15.06-1.45q0-2.61-3.84-2.61a15.24,15.24,0,0,0-4.14.72q-3.09.84-3.09,2,0,.69,1.17.69a12.54,12.54,0,0,0,3-.58,11.85,11.85,0,0,1,3.11-.59,3.78,3.78,0,0,1,2.43.72,32.39,32.39,0,0,1-1.8,2.88,3.31,3.31,0,0,0-1.38-.48,13.28,13.28,0,0,0-3.39.63,13.18,13.18,0,0,1-3.27.63,2.12,2.12,0,0,1-1.47-.51,1.76,1.76,0,0,1-.57-1.38q0-3.72,3.81-5.91a14.17,14.17,0,0,1,7.2-1.83,6.22,6.22,0,0,1,2.91.6,2.55,2.55,0,0,1,1.47,2.4,10.17,10.17,0,0,1-.2,1.62,9.89,9.89,0,0,0-.19,1.62q0,2.43,2.67,2.73Zm-7.2-15.69a12.43,12.43,0,0,1-.9,2.16q-.54,1.11-4.62,1.11a3.27,3.27,0,0,1-1.77-.42,11.32,11.32,0,0,1,1.41-3.09,20.87,20.87,0,0,0,2.7.18,6.72,6.72,0,0,0,1.75-.3,9.27,9.27,0,0,1,1.22-.3l.21.06Z" fill="#757e96"/><path d="M366.9,1524.29l-.42,1.53a4,4,0,0,1-.72,1.47h-1.08a4.43,4.43,0,0,1-2.45-1,3.64,3.64,0,0,1-1.6-2q-1.5,3-5.88,3H353q.81-3,1.11-3a17.19,17.19,0,0,0,3.54-.33q2.55-.54,2.82-1.8a43.48,43.48,0,0,0,1.32-9.57,16.35,16.35,0,0,0-1.29-6.09q.63-.9,2-2.58,1.5,1.83,1.5,6.51a27.93,27.93,0,0,1-.68,5.1,27.57,27.57,0,0,0-.67,5,4.08,4.08,0,0,0,.93,2.59,2.71,2.71,0,0,0,2.19,1.19Z" fill="#757e96"/><path d="M375.54,1520.42a4,4,0,0,1-.36,1.74q-.45.75-.87,1.5a6.73,6.73,0,0,1-6.42,3.63h-3.54q.6-1.29,1.47-3h3a7.79,7.79,0,0,0,4.38-1v-.39a4.39,4.39,0,0,0-.77-2.44,8.91,8.91,0,0,1-.79-1.4q1.62-2.52,2-2.52c.32,0,.71.55,1.18,1.67A7.38,7.38,0,0,1,375.54,1520.42Zm-1.89,10.81a8,8,0,0,1-.57,1.75c-.4.91-.71,1.36-.93,1.36a5.43,5.43,0,0,1-1-.29,4.58,4.58,0,0,0-1.44-.28,6.37,6.37,0,0,0-1.92.36,12.45,12.45,0,0,1-1.8.48,7.08,7.08,0,0,1,1-3,6.85,6.85,0,0,1,2.87-1.09,1.69,1.69,0,0,1,.51-.06A7.38,7.38,0,0,1,373.65,1531.23Z" fill="#757e96"/><path d="M395.64,1524.29l-.9,3h-1.23q-.78,0-1.89,1.5-1.74,2.31-2.16,2.73a4.59,4.59,0,0,1-3.3,1.5q-4.38,0-5.34.09-3.75.39-4.95,2h-.63l-.12-.33q0-3.33,4-4.44a27.15,27.15,0,0,1,6.57-.57,10.75,10.75,0,0,0,2.73-.33q1.83-.45,1.83-1.44,0-.63-1.17-.81-2-.33-2.22-.39a1.69,1.69,0,0,1-1.17-1.71,5.79,5.79,0,0,1,1.33-2.63c.89-1.23,1.58-1.84,2.06-1.84q2,0,3.6,3.63Z" fill="#757e96"/><path d="M408.42,1519.1q0,5.79-9.75,7.74a14.77,14.77,0,0,0-.57,1.68,4.36,4.36,0,0,1-.81,1.59h-.42l-.12-.39q.42-1.59.78-2.58a.63.63,0,0,0-.45-.18,1.92,1.92,0,0,0-.71.16,2.74,2.74,0,0,1-1.09.17h-1.56a.69.69,0,0,1-.18-.51,4,4,0,0,1,1.2-2.49,10.37,10.37,0,0,0,2.79-.21q1-.36,1-2a28,28,0,0,0-1-6.18,27.9,27.9,0,0,1-1-6.12,6.21,6.21,0,0,1,3-5.07l.33.45A5.3,5.3,0,0,0,399,1508a29.74,29.74,0,0,0,.81,5.88q1,4.5,1.11,5.91,2-3.12,4.65-3.12a3.11,3.11,0,0,1,1.95.74A2.12,2.12,0,0,1,408.42,1519.1Zm-2.13,2.34a1.3,1.3,0,0,0-.81-1.23,3.19,3.19,0,0,0-1.5-.33,3.61,3.61,0,0,0-1.86.63,3.76,3.76,0,0,0-1.34,1.38c-.31.56-.61,1.12-.91,1.68A17.05,17.05,0,0,0,406.29,1521.44Z" fill="#757e96"/><path d="M442.05,1524.29c-.12.44-.25.88-.38,1.33a5.91,5.91,0,0,1-.88,1.67h-.87a4.78,4.78,0,0,1-2.07-.39,7.34,7.34,0,0,1-1.65-1.29q-1.38,3.36-6.12,5.07a23.76,23.76,0,0,1-8.16,1.35,6.78,6.78,0,0,1-4-1.29,4.19,4.19,0,0,1-2-3.48,4.84,4.84,0,0,1,.39-1.59q.3-.81.63-1.59a6,6,0,0,1,3.39-3.81,22.45,22.45,0,0,1,4.71-.9,10.32,10.32,0,0,0,4.68-1.47,4.72,4.72,0,0,1-3.51,4.14q-.24.06-5.55.81-2.91.39-2.91,2.13a3.29,3.29,0,0,0,2.22,3,9.15,9.15,0,0,0,4,.81,19.85,19.85,0,0,0,6.48-1.08q4.2-1.47,4.2-4.08a63.71,63.71,0,0,0-.74-8,62.88,62.88,0,0,1-.73-7.9,2.79,2.79,0,0,1,.9-2l1.71-1.47a42.91,42.91,0,0,1,.42,5.43q.15,4.5.3,6.09a15.8,15.8,0,0,0,1.23,5.19,10,10,0,0,0,1.2,1.89q1,1.32,1.92,1.32Z" fill="#757e96"/><path d="M449.37,1520.42a4,4,0,0,1-.36,1.74q-.45.75-.87,1.5a6.73,6.73,0,0,1-6.42,3.63h-2.34q.6-1.29,1.47-3,2.37,0,3.18-.09a6.86,6.86,0,0,0,3-1v-.39a4.39,4.39,0,0,0-.77-2.44,8.91,8.91,0,0,1-.79-1.4q1.62-2.52,2-2.52c.32,0,.71.55,1.18,1.67A7.38,7.38,0,0,1,449.37,1520.42Zm-.72-10.23q0,2.46-2.76,3.69-2.37.84-4.71,1.71a3,3,0,0,1,1.41-2.43,10.76,10.76,0,0,1,2.37-.66,3.72,3.72,0,0,0,2.22-1.23.64.64,0,0,0-.33-.06,2.52,2.52,0,0,0-.9.3,2.52,2.52,0,0,1-.9.3,2.1,2.1,0,0,1-1.28-.43,1.33,1.33,0,0,1-.58-1.1,4.05,4.05,0,0,1,1.32-2.78,3.82,3.82,0,0,1,2.73-1.36q.72,0,.72.36a2.19,2.19,0,0,1-.54,1.08q-.54.72-.9.72a1.29,1.29,0,0,1-.33-.06,1.29,1.29,0,0,0-.33-.06q-1.2,0-1.2.75c0,.16.17.33.52.53a1.89,1.89,0,0,0,.8.28,3.77,3.77,0,0,0,.94-.33,3.79,3.79,0,0,1,.95-.33Q448.65,1509.08,448.65,1510.19Z" fill="#757e96"/><path d="M461.1,1524.29q-.45,1.62-.48,1.68a3.23,3.23,0,0,1-.75,1.32h-1.41a4.75,4.75,0,0,1-3.27-1.07,3.81,3.81,0,0,1-1.2-3,35.48,35.48,0,0,1,.43-4.53,36.06,36.06,0,0,0,.44-4.62,13.46,13.46,0,0,0-1.44-6.42q1.26-1.8,2.07-2.73a12.45,12.45,0,0,1,1.71,7,33.35,33.35,0,0,1-.48,4.69,33.47,33.47,0,0,0-.48,4.61,2.91,2.91,0,0,0,1.05,2.58,4.77,4.77,0,0,0,2.58.54Z" fill="#757e96"/><path d="M468.39,1524.29a7.2,7.2,0,0,1-1.14,3h-3.6a1.63,1.63,0,0,1-.3-.6,9.32,9.32,0,0,1-3.12.6h-1.29a19,19,0,0,1,.93-2.94,14.65,14.65,0,0,0,3.57-.3,4.35,4.35,0,0,0,3.24-3.09q.54.21.54.3a6.66,6.66,0,0,1-.69,1.32q-.42.72-.87,1.44a3.76,3.76,0,0,0,1.62.27Z" fill="#757e96"/><path d="M477.06,1521.08a9.89,9.89,0,0,1-1.83,4.44q-1.11,1.77-4.56,1.77a1.25,1.25,0,0,1-.78-.21V1527a6.8,6.8,0,0,0-1.14.15,7,7,0,0,1-1.26.15h-1.23q-.27,0-.27-.33a3.82,3.82,0,0,1,.57-1.53,5.71,5.71,0,0,1,.72-1.14h1.47a2.91,2.91,0,0,0,2.47-1.12c.57-.75,1.13-1.53,1.67-2.33a.39.39,0,0,1,.15.36,7.42,7.42,0,0,1-.41,1.35c-.27.76-.45,1.25-.55,1.47a1.33,1.33,0,0,0,.42.06,4.12,4.12,0,0,0,2.55-.69,4.86,4.86,0,0,0,1-1.38A1.78,1.78,0,0,1,477.06,1521.08Z" fill="#757e96"/><path d="M494.73,1520.57a2.1,2.1,0,0,1-.24.6q-.27.6-.33.78a6.54,6.54,0,0,1-2.88,3.6,14.66,14.66,0,0,1-4,1.35,19.29,19.29,0,0,0-4,1.14,14.39,14.39,0,0,0-4.41,3.06q-.63.72-.9.69-.12,0-.12-.33a7.81,7.81,0,0,1,.24-1.47q.15-.63.3-1.23.45-.54.93-1.08a10.48,10.48,0,0,1,1.59-1.17,20.16,20.16,0,0,1,5.64-2.55l4.32-1a5.29,5.29,0,0,0,3.45-2.67Q494.73,1520.24,494.73,1520.57Z" fill="#757e96"/><path d="M522.42,1524.29q-.39,1.11-.57,1.56a6.84,6.84,0,0,1-.78,1.44h-2.34a3,3,0,0,1-2.58-1,4.08,4.08,0,0,1-.57-2.4c0-.32,0-.82.06-1.49s.06-1.15.06-1.45q0-2.61-3.84-2.61a15.24,15.24,0,0,0-4.14.72q-3.09.84-3.09,2,0,.69,1.17.69a12.54,12.54,0,0,0,3-.58,11.85,11.85,0,0,1,3.11-.59,3.78,3.78,0,0,1,2.43.72,32.39,32.39,0,0,1-1.8,2.88,3.31,3.31,0,0,0-1.38-.48,13.28,13.28,0,0,0-3.39.63,13.18,13.18,0,0,1-3.27.63,2.12,2.12,0,0,1-1.47-.51,1.76,1.76,0,0,1-.57-1.38q0-3.72,3.81-5.91a14.17,14.17,0,0,1,7.2-1.83,6.22,6.22,0,0,1,2.91.6,2.55,2.55,0,0,1,1.47,2.4,10.17,10.17,0,0,1-.2,1.62,9.89,9.89,0,0,0-.19,1.62q0,2.43,2.67,2.73Zm-7.2-15.69a12.43,12.43,0,0,1-.9,2.16q-.54,1.11-4.62,1.11a3.27,3.27,0,0,1-1.77-.42,11.32,11.32,0,0,1,1.41-3.09,20.87,20.87,0,0,0,2.7.18,6.72,6.72,0,0,0,1.75-.3,9.27,9.27,0,0,1,1.22-.3l.21.06Z" fill="#757e96"/><path d="M529.65,1520.42a4,4,0,0,1-.36,1.74q-.45.75-.87,1.5a6.73,6.73,0,0,1-6.42,3.63h-2.34q.6-1.29,1.47-3,2.37,0,3.18-.09a6.86,6.86,0,0,0,3-1v-.39a4.39,4.39,0,0,0-.77-2.44,8.91,8.91,0,0,1-.79-1.4q1.62-2.52,2-2.52c.32,0,.71.55,1.18,1.67A7.38,7.38,0,0,1,529.65,1520.42Zm-2.58,11.49a3.07,3.07,0,0,1-.84,1.44q-.63.63-1.23,1.26l-2.79-1.8a8.73,8.73,0,0,1,2.19-2.58Z" fill="#757e96"/><path d="M541.38,1524.29q-.45,1.62-.48,1.68a3.23,3.23,0,0,1-.75,1.32h-1.41a4.75,4.75,0,0,1-3.27-1.07,3.81,3.81,0,0,1-1.2-3,35.48,35.48,0,0,1,.43-4.53,36.06,36.06,0,0,0,.44-4.62,13.46,13.46,0,0,0-1.44-6.42q1.26-1.8,2.07-2.73a12.45,12.45,0,0,1,1.71,7,33.35,33.35,0,0,1-.48,4.69,33.47,33.47,0,0,0-.48,4.61,2.91,2.91,0,0,0,1.05,2.58,4.77,4.77,0,0,0,2.58.54Z" fill="#757e96"/><path d="M552.48,1524.29q-1.26,3-2,3h-4.71q-1.29,0-1.59-.48l-1.8.31a9.13,9.13,0,0,1-1.74.17h-1.92q.57-1.32,1.38-3h2.25a9.88,9.88,0,0,0,3.24-.36,2.57,2.57,0,0,0,1.08-1,5.7,5.7,0,0,1,1.47-1.47v.45l-1.17,2.22q.15.18,1.11.18Zm-1.92-12.84a12.43,12.43,0,0,1-.9,2.16q-.54,1.11-4.62,1.11a3.27,3.27,0,0,1-1.77-.42,11.32,11.32,0,0,1,1.41-3.09,20.87,20.87,0,0,0,2.7.18,6.72,6.72,0,0,0,1.75-.3,9.27,9.27,0,0,1,1.22-.3l.21.06Z" fill="#757e96"/><path d="M559.74,1520.24a4.58,4.58,0,0,1-.48,2q-1.53,3.39-3.06,4.29t-5.4.81h-1.38a2.6,2.6,0,0,1,.36-1.47q.39-.78.75-1.53,2.88,0,3.66-.09a6.64,6.64,0,0,0,3.3-1v-.48a14.73,14.73,0,0,0-1.4-5.26,15.46,15.46,0,0,1-1.42-5.27q0-2,2.46-4.41l.36.3L557,1510a15.08,15.08,0,0,0,1.36,5.13A15.16,15.16,0,0,1,559.74,1520.24Zm7-20.79q0,2.16-2.67,4.23a20.63,20.63,0,0,1-5.73,2.94,16.72,16.72,0,0,1-5.28,1.11c-.93,0-1.48-.17-1.68-.51a28.33,28.33,0,0,1,1.08-3.09,8.43,8.43,0,0,0,1.35.09q5.79,0,12.51-5.16Q566.73,1499.21,566.73,1499.45Z" fill="#757e96"/><path d="M584.58,1521.53a7.46,7.46,0,0,1-1.59,3.9,9.32,9.32,0,0,1-4.83,3.66l-5.16,1.08a10,10,0,0,0-5.22,3.18l-.24-.42q0-3.42,3.81-5a62,62,0,0,1,7.08-1.77c2.55-.54,3.84-1.32,3.84-2.34a2.24,2.24,0,0,0-.48-1.62l-1,.75a2.14,2.14,0,0,1-1.15.42,1.63,1.63,0,0,1-1.24-.57,1.85,1.85,0,0,1-.52-1.29,4.86,4.86,0,0,1,1.33-2.8c.89-1.12,1.71-1.67,2.48-1.67s1.33.6,2,1.8A5.93,5.93,0,0,1,584.58,1521.53Z" fill="#757e96"/><path d="M593,1499.84c0,1.62-.92,2.85-2.79,3.69l-4.71,1.71a3.08,3.08,0,0,1,1.42-2.46,15.44,15.44,0,0,1,2.39-.66,3.78,3.78,0,0,0,2.23-1.2.66.66,0,0,0-.33-.06,2.63,2.63,0,0,0-.92.28,2.59,2.59,0,0,1-.88.29,2.1,2.1,0,0,1-1.29-.42,1.27,1.27,0,0,1-.58-1.08,4,4,0,0,1,1.31-2.79,3.81,3.81,0,0,1,2.75-1.35c.48,0,.71.11.71.33a2,2,0,0,1-.55,1.09c-.37.47-.68.71-.91.71a1.61,1.61,0,0,1-.31,0,1.19,1.19,0,0,0-.33-.05c-.79,0-1.19.24-1.19.72,0,.18.17.37.52.55a1.93,1.93,0,0,0,.76.29,3.52,3.52,0,0,0,1-.35,4.36,4.36,0,0,1,1-.34C592.75,1498.7,593,1499.08,593,1499.84Z" fill="#757e96"/><path d="M591.29,1521.05a7.41,7.41,0,0,1-3.11,6.42l-.33-.33a14.13,14.13,0,0,0,.73-2.42,9.28,9.28,0,0,0,.35-2.32q-.55-3.15-1-6.3a39.78,39.78,0,0,1-.67-6.3c0-2.06,1.15-3.86,3.42-5.4a.48.48,0,0,1,0,.21,9.31,9.31,0,0,1-.3,1.66,8.67,8.67,0,0,0-.31,1.91,49.66,49.66,0,0,0,.62,6.46A49.42,49.42,0,0,1,591.29,1521.05Z" fill="#757e96"/><path d="M624.05,1527.29h-2a10.75,10.75,0,0,1-2.07-.3,6.91,6.91,0,0,0-4.62.21,15.42,15.42,0,0,1-2.7.63q-2.34.21-4.83.21-7.89,0-7.89-3.6,0-4.14,3.3-5.55A18.84,18.84,0,0,1,610,1518a5.82,5.82,0,0,0,1.83-.33q1.32-.42,1.68-.51a4.78,4.78,0,0,1-1.89,3.09,5.61,5.61,0,0,1-3,.63h-2.55a9.62,9.62,0,0,0-2.37.33c-1.18.27-1.77.65-1.77,1.12q0,1.65,2.94,2.37a20.18,20.18,0,0,0,4.32.41q5.55,0,6.84-.66a9.2,9.2,0,0,1,1.65-3.9q1.71-2.64,3-2.64a1.74,1.74,0,0,1,1.44.75,2.62,2.62,0,0,1,.57,1.62,7.49,7.49,0,0,1-1.56,3.63,4.54,4.54,0,0,0,2.37.36h2A24,24,0,0,1,624.05,1527.29ZM622.88,1511a3,3,0,0,1-.83,1.43c-.42.41-.82.83-1.22,1.25l-2.79-1.8a8.72,8.72,0,0,1,2.17-2.56Zm-2.31,11.67q0-1.62-1.32-1.62a1.77,1.77,0,0,0-1.14.6v.27a1.3,1.3,0,0,0,.15.67,2.53,2.53,0,0,0,.62.62,1.38,1.38,0,0,0,.76.36,3.14,3.14,0,0,0,.9-.51A3.28,3.28,0,0,0,620.57,1522.67Z" fill="#757e96"/><path d="M632.63,1520.42a4,4,0,0,1-.36,1.74q-.45.75-.87,1.5a6.73,6.73,0,0,1-6.42,3.63h-2.34q.6-1.29,1.47-3,2.37,0,3.18-.09a6.86,6.86,0,0,0,3-1v-.39a4.37,4.37,0,0,0-.76-2.44,9.6,9.6,0,0,1-.8-1.4q1.62-2.52,2-2.52c.32,0,.72.55,1.19,1.67A7.26,7.26,0,0,1,632.63,1520.42Zm0-12a3.66,3.66,0,0,1-1.36,3.09,5.23,5.23,0,0,1-3.31,1,9.67,9.67,0,0,1-2.86-.51c.28-.7.71-1.73,1.28-3.09a11.8,11.8,0,0,0,2.12.18,9.1,9.1,0,0,0,2.08-.18,15.43,15.43,0,0,0,1.94-.78A.42.42,0,0,1,632.63,1508.42Z" fill="#757e96"/><path d="M643.85,1524.29q-.45,1.62-.48,1.68a3.23,3.23,0,0,1-.75,1.32h-1.41a4.75,4.75,0,0,1-3.27-1.07,3.81,3.81,0,0,1-1.2-3,36,36,0,0,1,.44-4.53,35.64,35.64,0,0,0,.43-4.62,13.46,13.46,0,0,0-1.44-6.42q1.26-1.8,2.07-2.73a12.45,12.45,0,0,1,1.71,7,33.35,33.35,0,0,1-.48,4.69,33.47,33.47,0,0,0-.48,4.61,2.91,2.91,0,0,0,1,2.58,4.77,4.77,0,0,0,2.58.54Z" fill="#757e96"/><path d="M658.16,1524.29a12.35,12.35,0,0,1-.33,1.68,4,4,0,0,1-.63,1.32,10.14,10.14,0,0,0-8.64,4.17q-.54.87-1.11,1.71a6,6,0,0,1-1.32,1.53c-.3,0-.59-.27-.87-.74a2.41,2.41,0,0,1-.42-1.18,8.32,8.32,0,0,1,.89-3.09,8.27,8.27,0,0,0,.88-3.09q0-.42-.33-.39a11.26,11.26,0,0,1-1.74.87,6.69,6.69,0,0,1-1.92.21h-.87a11.56,11.56,0,0,1,.87-3,10.71,10.71,0,0,0,2.88-.36,6.78,6.78,0,0,0,1.56-.66q.63-.36.66-.36c.22,0,.42.18.59.54a2.24,2.24,0,0,1,.25.93,9.38,9.38,0,0,1-1,3.34,14.7,14.7,0,0,0-1,2.54,1.9,1.9,0,0,0,.42,1,23.47,23.47,0,0,1,4.32-4.89,9.25,9.25,0,0,1,5.85-2.1Z" fill="#757e96"/><path d="M665.6,1520a8.52,8.52,0,0,1-1.65,4.53q-1.8,2.76-3.66,2.76h-4.41a15.1,15.1,0,0,1,1.35-3,30.4,30.4,0,0,0,3.57-.12q2.55-.36,2.55-1.83a21.37,21.37,0,0,0-1.41-6.17,21.4,21.4,0,0,1-1.41-6.31,5.6,5.6,0,0,1,.75-3l1.89-2.37.48.36A4.81,4.81,0,0,0,663,1508a21,21,0,0,0,1.32,6.06A21,21,0,0,1,665.6,1520Z" fill="#757e96"/><path d="M673.67,1521.05a7.39,7.39,0,0,1-3.12,6.42l-.33-.33a13.08,13.08,0,0,0,.74-2.42,8.66,8.66,0,0,0,.34-2.32q-.54-3.15-1-6.3a39.57,39.57,0,0,1-.66-6.3q0-3.09,3.42-5.4a.51.51,0,0,1,0,.21,8.45,8.45,0,0,1-.3,1.66,8.54,8.54,0,0,0-.3,1.91,49.66,49.66,0,0,0,.62,6.46A49.42,49.42,0,0,1,673.67,1521.05Z" fill="#757e96"/><path d="M711.17,1524.29q-.27,1-1,3h-1.41a2.57,2.57,0,0,1-2.76-1.62l-.6-3q-.6-1.59-2.85-1.59a9.33,9.33,0,0,0-2.67.48q-1.95.63-1.95,1.44t1,.93h1.53q2.49,0,2.49,1.71a5.56,5.56,0,0,1-1.44,2.82q-3.51,4.5-11,4.5a11.91,11.91,0,0,1-5.31-1.08,4.5,4.5,0,0,1-2.85-4.2,6,6,0,0,1,2.43-5.19,9.13,9.13,0,0,1,5.55-1.53,5.79,5.79,0,0,0,1.8-.21q.78-.36,1.53-.75a7,7,0,0,1-1.8,3.3,4.61,4.61,0,0,1-2.73.63l-1.08,0h-1.26q-2.49,0-2.49,1.35,0,2.37,2.64,3.66a10.59,10.59,0,0,0,4.74,1,22.51,22.51,0,0,0,4.65-.48,9.18,9.18,0,0,0,4.23-1.83q-.06-.45-1.38-.57a10.17,10.17,0,0,1-2.4-.33,1.76,1.76,0,0,1-1.29-1.8q0-2.31,3.12-4.65a9.16,9.16,0,0,1,5.31-2.22q2.49,0,3.24,1.62a12.8,12.8,0,0,1,.45,3q.15,1.62,1.2,1.62Z" fill="#757e96"/><path d="M723,1524.29l-.42,1.53a4,4,0,0,1-.72,1.47h-1.08a4.4,4.4,0,0,1-2.44-1,3.67,3.67,0,0,1-1.61-2q-1.5,3-5.88,3h-1.77q.81-3,1.11-3a17.19,17.19,0,0,0,3.54-.33q2.55-.54,2.82-1.8a43.48,43.48,0,0,0,1.32-9.57,16.35,16.35,0,0,0-1.29-6.09q.63-.9,2-2.58,1.5,1.83,1.5,6.51a27.73,27.73,0,0,1-.67,5.1,27.8,27.8,0,0,0-.68,5,4.08,4.08,0,0,0,.93,2.59,2.71,2.71,0,0,0,2.19,1.19Z" fill="#757e96"/><path d="M740.36,1522.19a4.28,4.28,0,0,1-.67,1.48,7,7,0,0,1-1,1.43q-.51.45-6,1.29-4.59.72-5.61.81-1.23.09-6.54.09a6,6,0,0,1,1.35-3L727,1524q-.39-.6-.75-1.2a2.66,2.66,0,0,1-.42-1.32,5.59,5.59,0,0,1,2-4,5.84,5.84,0,0,1,4-1.93,5.59,5.59,0,0,1,2.28.66q1.5.75,1.5,1.56a5.45,5.45,0,0,1-1.59,2.94,5.17,5.17,0,0,0-3.81-2.16q-2.1,0-2.1.93,0,1.59,2.28,2.67a8.74,8.74,0,0,0,3.72.9,11.54,11.54,0,0,0,3.15-.51l3-1Z" fill="#757e96"/></svg>