<svg id="Layer_1" data-name="Layer 1" xmlns="http://www.w3.org/2000/svg" viewBox="0 0 49.99 49.99"><g id="logo-v1"><path d="M25.28,28.07l-.59-.61a.08.08,0,0,1,0-.11.07.07,0,0,1,.1,0l.46.48.58-.84a.08.08,0,0,1,.1,0,.09.09,0,0,1,0,.11Z" transform="translate(0 0)" fill="#064663"/><path d="M19.61,25.91,19.76,19l5.6,0a4,4,0,0,1,1.41.19,3.67,3.67,0,0,1,2.57,4.17,4.08,4.08,0,0,1-3.16,3l-.2,0L25.69,26l-.39.14L24.9,26l-.27.32-.42.08-.08.42-.32.27.14.4-.14.4.32.28.08.42.42.07.27.33.4-.15.4.15L26,28.7l.41-.07.08-.42.28-.21.05-.11a8.4,8.4,0,0,0,3-2.31,4,4,0,0,1,.4,3.18,3.55,3.55,0,0,1-3.4,2.18L21.09,31a8.32,8.32,0,0,1,1.84-6.18,7.62,7.62,0,0,1,2.95-2.1l-.17.7L27.42,22l-2.19-.61.56.72a6.53,6.53,0,0,0-6.18,3.82Z" transform="translate(0 0)" fill="#064663"/><path d="M38.77,21.94l5.4-13a25,25,0,0,0-22-8.8Z" transform="translate(0 0)" fill="#01b6e5"/><path d="M29.29,11.52,20.75.36A25,25,0,0,0,2.13,15Z" transform="translate(0 0)" fill="#01b6e5"/><path d="M15.47,14.48,1.53,16.29A24.92,24.92,0,0,0,4.91,39.74Z" transform="translate(0 0)" fill="#064663"/><path d="M11.24,28.06,5.84,41a25,25,0,0,0,22,8.8Z" transform="translate(0 0)" fill="#064663"/><path d="M20.82,38.26l8.54,11.17A25,25,0,0,0,48,34.77Z" transform="translate(0 0)" fill="#01b6e5"/><path d="M34.53,35.29l13.94-1.81A24.92,24.92,0,0,0,45.09,10Z" transform="translate(0 0)" fill="#01b6e5"/></g></svg>