<svg id="Layer_1" data-name="Layer 1" xmlns="http://www.w3.org/2000/svg" viewBox="0 0 50 50"><g id="logo-v1"><path d="M15.89,13.53l0-.06,13.45-2L21,.32A25,25,0,0,0,2.07,15l13.81-1.58Z" fill="#01b6e5"/><path d="M10.47,27.1l5-12.53L1.61,16.15A25,25,0,0,0,5,40l5.47-12.89Z" fill="#064663"/><path d="M39.53,22.9l-5,12.51,14-2A25,25,0,0,0,44.92,9.9l-5.4,13Z" fill="#01b6e5"/><path d="M38.78,21.94l5.4-13A25,25,0,0,0,25,0a26.39,26.39,0,0,0-2.83.16l10.51,14Z" fill="#01b6e5"/><path d="M48.12,34.53,30.38,37.07l-9.68,1.4,8.43,11.19A25,25,0,0,0,48.12,34.53Z" fill="#01b6e5"/><path d="M11.21,28.05,5.74,40.94A25,25,0,0,0,25,50a25.94,25.94,0,0,0,2.94-.17L18.39,37.15Z" fill="#064663"/><polygon points="34.53 35.41 39.53 22.9 39.52 22.89 34.3 35.45 34.53 35.41" fill="#01b6e5"/><path d="M15.89,13.53v-.07L2.07,15c-.16.36-.31.73-.46,1.11l13.86-1.58Z" fill="#fff"/><path d="M10.47,27.11,5,40c.24.32.48.63.74.94l5.47-12.89Z" fill="#fff"/><path d="M19.56,38.64l-1.17-1.49,9.55,12.68,1.19-.17L20.7,38.47Z" fill="#fff"/><path d="M30.44,11.36l2.24,2.84L22.17.16,21,.32l8.38,11.2Z" fill="#fff"/><path d="M34.09,36.53l-3.71.54,17.74-2.54c.15-.37.29-.74.43-1.12l-14,2Z" fill="#fff"/><path d="M39.52,22.89l5.4-13c-.24-.32-.49-.63-.74-.94l-5.4,13Z" fill="#fff"/><path d="M19.6,25.91,19.75,19l5.61,0a3.87,3.87,0,0,1,4,2.82,3.9,3.9,0,0,1-3.15,4.58L26.62,28a8.63,8.63,0,0,0,1.71-1,9,9,0,0,0,1.46-1.4,3.93,3.93,0,0,1,.45,3.06,3.64,3.64,0,0,1-3.61,2.3L21.08,31a7.76,7.76,0,0,1,4.79-8.28l-.15.69L27.41,22l-2.19-.61.58.74a6.7,6.7,0,0,0-2.8.54A6.92,6.92,0,0,0,19.6,25.91Z" fill="#064663"/><path d="M26.64,27.53c0-.13.18-.28.15-.4s-.26-.16-.33-.27,0-.33-.07-.42-.31,0-.42-.08-.15-.29-.28-.32-.27.14-.4.14S25,26,24.89,26s-.16.26-.27.32-.33,0-.42.08,0,.31-.08.42-.29.15-.32.27.14.27.14.4-.17.28-.14.4.26.17.32.28,0,.33.08.42.31,0,.42.07.15.29.27.33.27-.15.4-.15.28.18.4.15.17-.26.28-.33.33,0,.42-.07,0-.31.07-.42.3-.15.33-.28S26.64,27.66,26.64,27.53Z" fill="#fff"/><path d="M25.28,28.07l-.59-.61a.08.08,0,0,1,0-.11.07.07,0,0,1,.1,0l.46.48.58-.84a.08.08,0,0,1,.1,0,.09.09,0,0,1,0,.11Z" fill="#064663"/></g></svg>