<svg xmlns="http://www.w3.org/2000/svg" xmlns:xlink="http://www.w3.org/1999/xlink" viewBox="0 0 574.28 804.9"><defs><linearGradient id="linear-gradient" x1="-185.87" y1="-52.07" x2="294.21" y2="516.08" gradientUnits="userSpaceOnUse"><stop offset="0" stop-color="#fff"/><stop offset="0.42" stop-color="#fdfdfd"/><stop offset="0.66" stop-color="#f4f4f4"/><stop offset="0.85" stop-color="#e7e7e7"/><stop offset="1" stop-color="#d6d6d6"/></linearGradient><clipPath id="clip-path" transform="translate(150.43 54.4)"><rect width="350" height="750" fill="url(#linear-gradient)"/></clipPath><linearGradient id="linear-gradient-3" x1="150.43" y1="429.4" x2="500.43" y2="429.4" gradientUnits="userSpaceOnUse"><stop offset="0" stop-color="#03b0e2"/><stop offset="0.99" stop-color="#44bfe2"/></linearGradient><linearGradient id="linear-gradient-4" x1="246.6" y1="434.66" x2="330.54" y2="434.66" gradientUnits="userSpaceOnUse"><stop offset="0" stop-color="#fff" stop-opacity="0.15"/><stop offset="1" stop-color="#fff" stop-opacity="0.15"/></linearGradient><linearGradient id="linear-gradient-5" x1="374.43" y1="743.63" x2="495.96" y2="743.63" gradientUnits="userSpaceOnUse"><stop offset="0" stop-color="#fff"/><stop offset="1" stop-color="#44bfe2"/></linearGradient><linearGradient id="linear-gradient-6" x1="11.75" y1="310.21" x2="94.93" y2="310.21" gradientUnits="userSpaceOnUse"><stop offset="0" stop-color="#fff" stop-opacity="0.1"/><stop offset="1" stop-color="#fff" stop-opacity="0.1"/></linearGradient><linearGradient id="linear-gradient-7" x1="233.02" y1="262.28" x2="279.96" y2="262.28" xlink:href="#linear-gradient-4"/><clipPath id="clip-path-2" transform="translate(150.43 54.4)"><rect x="4.75" width="165.17" height="344" fill="none"/></clipPath></defs><g style="isolation:isolate"><g id="Layer_1" data-name="Layer 1"><rect x="150.43" y="54.4" width="350" height="750" fill="url(#linear-gradient)"/><g clip-path="url(#clip-path)"><rect x="150.43" y="54.4" width="350" height="750" fill="url(#linear-gradient-3)"/><rect x="150.43" y="54.4" width="350" height="750" fill="#fff" stroke="#1d1d1b" stroke-miterlimit="10" opacity="0.15"/><path d="M288.57,476.63a42,42,0,1,1,42-42A42,42,0,0,1,288.57,476.63Zm0-77.08a35.12,35.12,0,1,0,35.11,35.11A35.15,35.15,0,0,0,288.57,399.55Z" transform="translate(150.43 54.4)" opacity="0.5" fill="url(#linear-gradient-4)"/><circle cx="435.2" cy="743.63" r="60.77" opacity="0.1" fill="url(#linear-gradient-5)"/><circle cx="500.43" cy="483.04" r="60.77" fill="#fff" opacity="0.1"/><path d="M350,750c-7-9.42-66-85.69-169.81-88.15C70.08,659.24,6,742,0,750V729.26c8.31-10.12,69.18-81.78,172.41-83,106.32-1.22,169.69,73.34,177.59,83Z" transform="translate(150.43 54.4)" fill="#064663" opacity="0.1"/><path d="M53.34,351.81a41.6,41.6,0,1,1,41.59-41.6A41.64,41.64,0,0,1,53.34,351.81Zm0-76.4a34.81,34.81,0,1,0,34.8,34.8A34.84,34.84,0,0,0,53.34,275.41Z" transform="translate(150.43 54.4)" opacity="0.5" fill="url(#linear-gradient-6)"/><path d="M256.49,285.75A23.47,23.47,0,1,1,280,262.28,23.5,23.5,0,0,1,256.49,285.75Zm0-40.15a16.68,16.68,0,1,0,16.68,16.68A16.7,16.7,0,0,0,256.49,245.6Z" transform="translate(150.43 54.4)" opacity="0.5" fill="url(#linear-gradient-7)"/><image width="512" height="512" transform="translate(213.43 431.95) scale(0.31)" opacity="0.1" xlink:href="../send.png"/><g id="logo_v2" data-name="logo v2" opacity="0.1"><path d="M323.56,59.47,321.2,57a.3.3,0,1,1,.44-.41l1.85,2,2.35-3.4a.3.3,0,1,1,.49.34Z" transform="translate(150.43 54.4)" fill="#fff"/><path d="M300.58,50.67l.59-27.92,22.76-.12a15.86,15.86,0,0,1,5.72.74,15.52,15.52,0,0,1,8.71,7,15.24,15.24,0,0,1,1.7,10c-1.13,5.89-6.17,10.72-12.81,12.33l-.84-.1-1.16-1.34-1.58.6L322,51.2l-1.1,1.33-1.7.31-.31,1.7-1.31,1.12.58,1.62-.58,1.62L318.92,60l.31,1.7,1.7.31L322,63.34l1.63-.58,1.62.58L326.41,62l1.7-.31.3-1.7,1.13-.83.2-.46a34.08,34.08,0,0,0,12.16-9.36c.85,1.5,3.79,7.29,1.64,12.87a14.38,14.38,0,0,1-13.79,8.85l-23.18.3c-.27-2.63-1.23-15,7.47-25.09a31.42,31.42,0,0,1,12-8.52l-.68,2.86,6.94-5.88-8.88-2.47,2.29,2.89A26.77,26.77,0,0,0,312,38.42,27.21,27.21,0,0,0,300.58,50.67Z" transform="translate(150.43 54.4)" fill="#fff"/><path d="M378.32,34.59,400.23-18A101.28,101.28,0,0,0,311-53.75Z" transform="translate(150.43 54.4)" fill="#fff"/><path d="M339.86-7.68,305.22-53A101.26,101.26,0,0,0,229.68,6.47Z" transform="translate(150.43 54.4)" fill="#fff"/><path d="M283.78,4.31l-56.55,7.35a101.25,101.25,0,0,0,13.71,95.14Z" transform="translate(150.43 54.4)" fill="#fff"/><path d="M266.62,59.41l-21.91,52.64A101.18,101.18,0,0,0,334,147.75Q300.28,103.57,266.62,59.41Z" transform="translate(150.43 54.4)" fill="#fff"/><path d="M305.51,100.8l34.64,45.29a101.2,101.2,0,0,0,75.54-59.44Z" transform="translate(150.43 54.4)" fill="#fff"/><path d="M361.12,88.75l56.54-7.35A101.23,101.23,0,0,0,404-13.74Z" transform="translate(150.43 54.4)" fill="#fff"/></g></g><g clip-path="url(#clip-path-2)"><g opacity="0.1"><polygon points="156.19 139.79 225.37 208.96 255.27 208.96 156.19 109.89 155.26 110.82 155.26 140.72 156.19 139.79" fill="#c5aea1"/><polygon points="155.26 308.54 155.26 278.64 86.3 209.68 87.02 208.96 57.12 208.96 56.4 209.68 155.26 308.54" fill="#24366c" opacity="0.15" style="mix-blend-mode:multiply"/><polygon points="155.26 140.72 155.26 110.82 57.12 208.96 87.02 208.96 155.26 140.72" fill="#24366c" opacity="0.15" style="mix-blend-mode:multiply"/><polygon points="226.09 209.68 156.19 279.57 155.26 278.64 155.26 308.54 156.19 309.48 255.99 209.68 255.27 208.96 225.37 208.96 226.09 209.68" fill="#064663"/><polygon points="155.26 54.42 155.26 84.32 156.19 83.39 281.76 208.96 311.67 208.96 156.19 53.49 155.26 54.42" fill="#c5aea1"/><polygon points="29.9 209.68 30.62 208.96 0.72 208.96 0 209.68 155.26 364.94 155.26 335.04 29.9 209.68" fill="#24366c" opacity="0.15" style="mix-blend-mode:multiply"/><polygon points="282.49 209.68 156.19 335.98 155.26 335.04 155.26 364.94 156.19 365.88 312.38 209.68 311.67 208.96 281.76 208.96 282.49 209.68" fill="#064663"/><polygon points="155.26 84.32 155.26 54.42 0.72 208.96 30.62 208.96 155.26 84.32" fill="#24366c" opacity="0.15" style="mix-blend-mode:multiply"/><polygon points="155.26 159.6 155.26 189.5 156.19 188.57 176.59 208.96 206.49 208.96 156.19 158.67 155.26 159.6" fill="#c5aea1"/><polygon points="177.31 209.68 156.19 230.8 155.26 229.86 155.26 259.76 156.19 260.7 207.21 209.68 206.49 208.96 176.59 208.96 177.31 209.68" fill="#064663"/><polygon points="135.08 209.68 135.8 208.96 105.9 208.96 105.18 209.68 155.26 259.76 155.26 229.86 135.08 209.68" fill="#24366c" opacity="0.15" style="mix-blend-mode:multiply"/><polygon points="155.26 189.5 155.26 159.6 105.9 208.96 135.8 208.96 155.26 189.5" fill="#24366c" opacity="0.15" style="mix-blend-mode:multiply"/></g></g></g></g></svg>